<?xml version="1.0" standalone="no"?>
<!DOCTYPE svg PUBLIC "-//W3C//DTD SVG 20010904//EN"
 "http://www.w3.org/TR/2001/REC-SVG-20010904/DTD/svg10.dtd">
<svg version="1.0" xmlns="http://www.w3.org/2000/svg"
 width="900.000000pt" height="880.000000pt" viewBox="0 0 900.000000 880.000000"
 preserveAspectRatio="xMidYMid meet">

<g transform="translate(0.000000,880.000000) scale(0.100000,-0.100000)"
fill="#000000" stroke="none">
<path d="M4415 8793 c-11 -3 -30 -14 -42 -25 -22 -21 -29 -51 -54 -243 -19
-149 -65 -455 -74 -492 -3 -13 -19 -100 -35 -195 -42 -249 -116 -611 -189
-936 -26 -112 -34 -88 123 -359 64 -111 116 -207 116 -212 0 -5 -30 -65 -66
-133 -169 -312 -186 -350 -180 -386 3 -23 71 -134 192 -313 l186 -279 -68
-139 c-53 -107 -74 -140 -91 -144 -27 -5 -24 -13 -63 183 -18 93 -38 165 -49
180 -14 19 -16 31 -9 50 5 13 6 37 2 53 -6 31 -149 203 -249 302 -34 33 -99
112 -145 175 -46 63 -143 196 -215 295 -73 99 -139 192 -149 206 l-17 27 103
104 c108 109 136 141 204 223 92 112 89 149 -22 276 -27 31 -80 93 -119 139
-38 46 -109 130 -157 186 -49 57 -88 108 -88 113 0 6 41 92 91 191 84 168 90
183 82 218 -11 48 -45 73 -330 242 -255 151 -283 160 -329 107 -29 -34 -32
-91 -7 -127 15 -23 158 -193 210 -251 l24 -26 -127 -199 c-70 -109 -131 -213
-137 -231 -13 -42 -3 -59 171 -312 121 -174 140 -206 131 -223 -6 -11 -12 -18
-14 -16 -1 1 -30 44 -63 93 -33 50 -118 162 -187 250 -70 88 -159 201 -198
252 -40 50 -82 97 -95 104 -30 17 -84 17 -116 0 -29 -16 -37 -35 -66 -151 -26
-102 -184 -589 -209 -645 -10 -22 -31 -71 -46 -110 -39 -104 -98 -238 -150
-342 -72 -147 -58 -191 77 -242 249 -94 520 -235 754 -392 l71 -48 5 -78 c3
-43 5 -79 3 -81 -1 -1 -15 9 -31 24 -16 14 -76 47 -134 73 -118 54 -179 82
-328 152 -57 27 -106 49 -109 49 -2 0 -30 13 -61 28 -32 16 -69 32 -84 35 -26
7 -175 90 -233 131 -22 15 -45 21 -86 21 -55 0 -57 1 -68 32 -9 24 -30 42 -94
79 -184 107 -402 250 -678 444 -50 36 -111 79 -135 95 -61 43 -251 229 -357
350 -49 55 -121 148 -160 207 -61 91 -78 110 -112 123 -46 18 -78 11 -110 -25
-19 -20 -20 -39 -23 -242 -2 -122 2 -257 8 -302 6 -45 13 -137 15 -206 3 -75
15 -177 31 -255 14 -71 26 -143 26 -160 2 -52 59 -395 70 -421 14 -29 124
-100 268 -170 14 -7 59 -29 100 -49 41 -20 109 -50 150 -67 41 -16 97 -40 125
-53 195 -90 773 -305 821 -305 13 0 34 4 49 10 22 8 27 7 34 -13 5 -12 17 -29
27 -38 19 -15 200 -96 259 -115 25 -8 29 -15 27 -37 -2 -23 30 -245 45 -304 5
-22 2 -23 -53 -24 -33 0 -68 -4 -79 -8 -12 -5 -30 -3 -45 4 -22 11 -124 33
-310 65 -223 40 -513 105 -550 125 -14 7 -59 21 -100 30 -41 10 -102 31 -135
46 -75 35 -201 84 -250 98 -63 17 -125 -24 -125 -84 0 -44 54 -212 107 -335
26 -58 56 -132 68 -165 68 -186 129 -322 154 -346 23 -21 43 -27 127 -38 54
-7 124 -13 155 -15 31 -2 60 -6 66 -9 5 -4 39 -7 74 -8 35 -1 80 -8 99 -15 39
-14 126 -28 275 -44 55 -6 132 -15 170 -20 117 -16 350 -24 370 -13 13 8 28 7
51 -3 18 -8 58 -14 88 -14 48 0 55 -3 62 -22 13 -46 77 -205 110 -276 19 -40
34 -77 34 -82 0 -13 -713 -13 -758 -1 -18 6 -86 11 -150 12 -64 1 -158 7 -209
12 -109 12 -161 1 -188 -39 -35 -54 -24 -86 71 -211 48 -64 115 -145 148 -181
160 -172 274 -285 301 -299 25 -13 51 -14 165 -8 74 5 164 9 200 10 36 2 157
6 270 11 268 12 361 10 754 -10 l330 -18 165 -60 c91 -33 170 -64 175 -69 6
-5 -4 -9 -24 -9 -38 0 -95 -15 -390 -102 -227 -67 -500 -162 -810 -281 -180
-69 -188 -74 -210 -109 -24 -39 -25 -69 -5 -108 12 -24 28 -33 88 -50 149 -43
388 -132 496 -185 30 -15 69 -29 87 -32 19 -3 37 -14 44 -27 13 -26 16 -27
145 -96 55 -29 105 -56 110 -60 36 -27 182 -100 209 -105 20 -4 47 -1 68 8 30
13 39 25 57 71 11 31 26 77 32 103 12 49 42 97 116 190 22 29 43 56 45 61 9
23 188 163 321 253 84 56 159 107 167 114 8 7 24 15 35 18 11 2 37 12 58 21
20 9 37 14 37 12 0 -3 -75 -73 -167 -156 -176 -158 -198 -188 -182 -243 4 -16
34 -60 66 -98 32 -39 79 -96 104 -127 l47 -57 -108 -135 c-127 -158 -133 -175
-94 -258 155 -333 213 -489 274 -739 17 -71 36 -138 42 -150 20 -40 70 -55
174 -51 125 4 125 5 174 194 64 249 154 490 265 715 63 126 66 119 -143 347
l-72 80 116 120 c180 189 180 191 -42 390 -90 80 -162 147 -161 149 6 6 83
-22 102 -37 11 -9 79 -55 150 -103 159 -106 298 -218 339 -274 17 -23 49 -65
72 -95 55 -70 68 -97 98 -199 31 -102 49 -122 114 -123 42 -1 69 11 252 112
113 62 217 127 231 143 14 16 34 29 44 29 10 0 71 24 135 54 103 48 395 153
475 171 41 9 73 42 81 82 10 52 -29 104 -97 130 -224 86 -378 143 -524 194
-93 33 -188 66 -210 74 -136 48 -556 165 -595 166 l-35 0 50 24 c28 13 53 24
57 25 4 0 45 18 90 39 46 22 94 42 108 45 34 7 647 39 785 40 61 1 205 -3 320
-8 116 -5 239 -9 275 -10 36 -1 117 -6 182 -10 173 -13 170 -13 298 117 61 62
113 122 116 134 4 15 14 23 29 23 41 0 88 44 202 190 102 131 113 149 113 186
0 52 -29 91 -73 99 -40 8 -300 -9 -318 -20 -16 -11 -100 -13 -591 -20 -226 -3
-388 -2 -388 3 0 5 22 56 48 113 27 57 62 141 78 186 l29 83 65 0 c36 0 77 6
91 13 17 10 33 11 50 4 26 -10 218 -3 369 14 269 30 427 52 450 64 14 7 52 13
85 14 33 1 76 6 95 10 19 5 60 10 91 10 94 2 231 28 250 48 16 17 97 205 144
338 12 33 31 83 44 110 77 168 133 337 134 398 0 51 -38 91 -85 91 -35 0 -193
-56 -293 -104 -33 -16 -85 -34 -115 -40 -30 -6 -73 -19 -95 -30 -49 -23 -377
-96 -655 -145 -113 -20 -215 -43 -227 -51 -16 -10 -29 -11 -48 -4 -15 6 -49
10 -77 10 l-50 0 5 37 c3 21 13 99 23 173 10 74 23 138 29 142 5 4 32 15 59
24 28 8 92 35 144 60 77 36 95 49 105 74 8 22 16 28 27 23 42 -21 119 -4 335
76 341 127 663 259 813 334 26 13 81 40 122 60 216 106 263 147 275 235 4 26
16 103 27 172 11 69 20 141 19 160 0 19 5 58 13 85 23 84 48 287 51 415 1 36
7 101 14 145 8 51 11 159 9 297 l-3 218 -28 27 c-21 21 -36 27 -66 27 -51 -2
-71 -17 -127 -100 -111 -162 -235 -309 -364 -428 -41 -39 -86 -82 -100 -97
-58 -64 -598 -431 -852 -579 -119 -70 -125 -75 -133 -109 -5 -25 -9 -27 -63
-27 -51 0 -66 -5 -146 -52 -49 -29 -101 -61 -115 -71 -14 -10 -38 -21 -53 -25
-45 -10 -681 -307 -717 -334 l-34 -25 6 33 c4 18 7 52 7 76 l0 43 88 60 c202
135 426 255 647 345 246 100 252 111 157 303 -32 65 -84 183 -116 263 -32 80
-67 159 -77 176 -11 17 -19 38 -19 46 0 8 -9 41 -19 74 -10 32 -31 100 -46
149 -15 50 -30 101 -35 115 -5 14 -23 72 -41 130 -71 234 -75 243 -102 264
-32 24 -86 25 -118 3 -12 -9 -126 -147 -253 -308 -127 -161 -236 -292 -241
-291 -28 3 -6 46 103 201 66 93 126 179 132 191 18 34 6 79 -38 145 -21 33
-80 124 -131 203 l-91 143 97 115 c143 169 143 169 149 205 12 75 -46 129
-116 109 -46 -13 -528 -311 -545 -336 -33 -50 -30 -63 68 -259 l94 -189 -95
-111 c-52 -60 -106 -123 -121 -140 -15 -16 -75 -87 -134 -158 -130 -155 -128
-136 -56 -420 28 -111 59 -238 69 -282 10 -44 25 -108 35 -143 l16 -63 -67
-92 c-175 -239 -209 -281 -286 -359 -220 -220 -269 -290 -239 -347 9 -16 9
-26 0 -43 -6 -12 -26 -95 -44 -185 -18 -90 -35 -166 -38 -169 -10 -10 -57 8
-57 22 0 8 -27 68 -60 134 -33 66 -60 124 -60 130 0 5 84 136 186 289 152 228
186 286 186 314 0 25 -35 101 -126 274 -69 132 -126 243 -126 247 0 3 26 50
59 104 99 165 190 328 196 355 4 15 -8 90 -29 184 -79 356 -118 558 -181 938
-25 149 -49 295 -55 325 -11 58 -36 237 -50 357 -21 169 -34 186 -158 189 -48
2 -96 0 -107 -3z m160 -145 c3 -29 13 -98 21 -153 12 -89 19 -142 29 -225 1
-14 13 -88 25 -165 13 -77 23 -154 24 -172 0 -17 4 -29 7 -27 5 3 27 -122 34
-195 1 -14 5 -33 8 -41 6 -17 17 -80 23 -128 2 -18 8 -48 13 -67 7 -26 6 -33
-2 -28 -7 4 -6 -1 2 -11 12 -14 12 -19 2 -25 -9 -6 -8 -11 4 -21 19 -16 20
-34 0 -26 -11 4 -15 -1 -15 -17 0 -18 2 -19 10 -7 7 11 10 6 9 -20 l0 -35 -21
45 c-12 25 -23 40 -25 33 -3 -8 -20 -10 -54 -6 -35 4 -49 2 -49 -6 0 -7 -4 -9
-10 -6 -6 4 -10 -5 -10 -19 0 -14 -4 -26 -10 -26 -5 0 -10 7 -10 16 0 10 -6
14 -14 11 -17 -7 -49 19 -60 48 -6 16 -9 17 -16 5 -5 -8 -7 -17 -4 -21 2 -4
-12 -6 -32 -4 -27 3 -33 1 -25 -9 8 -9 7 -18 -4 -32 -14 -19 -14 -19 -29 1 -8
11 -16 26 -16 33 0 6 -4 12 -10 12 -5 0 -9 -3 -9 -7 1 -5 1 -18 0 -30 -2 -34
-21 -28 -21 7 0 23 -4 30 -20 30 -11 0 -20 -5 -20 -12 0 -9 -3 -9 -12 0 -7 7
-22 12 -34 12 -16 0 -21 5 -19 23 1 12 3 32 4 45 0 13 5 20 11 17 5 -3 7 0 4
8 -3 8 2 20 11 27 8 7 15 20 15 28 0 13 -3 12 -15 -4 -8 -10 -15 -14 -15 -8 0
6 7 17 15 24 18 15 20 37 3 42 -7 3 -8 9 -3 19 5 7 11 32 12 54 2 22 8 58 14
80 6 22 13 54 15 70 2 17 8 53 14 80 13 61 39 224 46 285 3 25 12 88 20 140
19 125 54 382 54 398 0 8 20 12 64 12 l64 0 7 -52z m-1662 -552 c29 -18 75
-46 102 -61 28 -15 68 -40 89 -56 22 -16 43 -29 48 -29 11 0 78 -47 73 -52 -2
-2 4 -4 13 -5 10 -1 36 -14 59 -28 l41 -27 -34 -67 c-19 -36 -39 -73 -43 -81
-5 -8 -17 -34 -26 -57 -10 -23 -22 -40 -28 -36 -6 3 -7 2 -4 -4 5 -9 -28 -90
-42 -103 -6 -5 -31 -48 -31 -53 0 -1 18 -22 40 -47 21 -24 36 -48 33 -53 -3
-6 -1 -7 4 -4 6 4 16 1 22 -7 9 -10 8 -16 -4 -26 -8 -7 -15 -22 -14 -34 l0
-21 9 21 c9 23 30 41 30 27 0 -5 14 -24 31 -42 21 -24 27 -37 20 -44 -6 -6
-11 -21 -11 -34 0 -22 1 -22 18 -5 15 14 15 18 3 23 -9 3 -11 8 -4 12 6 4 19
-3 29 -14 16 -17 16 -22 4 -31 -12 -8 -12 -9 2 -4 24 7 48 -36 27 -50 -16 -10
-9 -19 16 -20 21 -2 24 1 14 12 -7 8 -9 17 -7 20 6 6 48 -44 48 -57 0 -4 -4
-11 -10 -14 -5 -3 -7 0 -4 8 3 8 1 18 -5 22 -6 3 -11 1 -11 -6 0 -8 -4 -8 -15
1 -13 10 -15 9 -15 -9 0 -11 -4 -21 -10 -21 -5 0 -7 7 -4 15 4 8 1 15 -5 15
-6 0 -11 6 -11 14 0 8 -8 17 -17 19 -14 4 -13 5 3 6 25 1 42 31 18 31 -8 0
-12 -5 -8 -11 4 -6 -1 -9 -12 -8 -11 2 -25 0 -31 -4 -9 -6 -13 -2 -13 10 0 14
-3 13 -16 -6 -16 -23 -16 -25 7 -44 l24 -19 -28 16 c-27 16 -28 16 -52 -11
-13 -15 -25 -37 -25 -48 -1 -19 -2 -19 -17 3 -14 20 -61 34 -49 14 2 -4 0 -14
-5 -22 -7 -12 -10 -11 -15 8 -4 12 -11 22 -16 22 -5 0 -6 -5 -3 -10 4 -6 1
-18 -7 -27 -11 -15 -10 -16 10 -11 13 4 20 2 16 -4 -3 -5 8 -24 26 -41 34 -33
61 -75 40 -62 -7 4 -17 1 -22 -6 -7 -10 -8 -7 -4 11 4 19 -4 33 -38 65 -24 23
-52 57 -62 76 -10 19 -23 37 -28 40 -4 4 -3 9 3 13 7 5 7 15 1 32 -6 14 -7 31
-3 37 4 7 -1 6 -11 -2 -13 -11 -14 -16 -4 -22 7 -4 9 -12 4 -16 -10 -10 -58
45 -51 58 4 5 1 9 -4 9 -6 0 -28 26 -48 58 -21 31 -41 59 -45 60 -5 2 -8 10
-8 18 0 8 -5 14 -11 14 -18 0 -2 43 36 101 19 30 35 57 35 62 0 4 6 5 13 1 6
-4 9 -4 5 1 -8 9 31 85 44 85 4 0 8 7 8 15 0 8 5 15 10 15 6 0 10 6 11 13 0 6
18 39 39 72 70 107 73 113 57 135 -8 11 -31 38 -51 60 -20 21 -36 41 -36 44 0
3 -12 18 -27 34 -16 16 -43 46 -62 68 -19 21 -45 51 -59 67 -34 36 -21 34 41
-7z m3228 17 c-6 -10 -24 -34 -42 -53 -137 -152 -237 -285 -210 -277 9 2 63
-75 141 -201 79 -127 89 -146 84 -154 -3 -5 0 -7 7 -6 7 2 22 -13 32 -32 18
-33 19 -39 5 -65 -8 -17 -20 -29 -26 -28 -7 2 -11 0 -10 -5 3 -14 -14 -42 -23
-36 -5 3 -6 11 -3 17 4 7 3 9 -1 4 -12 -10 -14 -47 -2 -40 5 3 1 -6 -8 -21 -9
-14 -22 -23 -28 -19 -5 3 -7 1 -3 -5 3 -5 -4 -23 -17 -39 -13 -15 -27 -36 -30
-46 -4 -10 -11 -15 -17 -12 -9 6 -14 -7 -11 -27 0 -4 -5 -5 -12 -2 -9 3 -13
-3 -13 -17 1 -12 -7 -25 -16 -30 -10 -5 -26 -13 -35 -18 -25 -12 -28 -39 -6
-63 18 -20 18 -21 -2 -10 -22 12 -67 47 -47 37 6 -3 12 -1 12 6 0 7 10 23 22
36 23 24 24 23 -23 27 -7 1 -16 -9 -20 -22 -6 -15 -5 -21 1 -17 6 3 10 1 10
-4 0 -6 -4 -11 -9 -11 -15 0 -26 23 -22 44 2 14 -2 17 -13 13 -9 -4 -16 -2
-16 3 0 6 -7 10 -16 10 -14 0 -14 3 -4 15 11 14 7 19 -12 16 -5 0 -8 3 -8 8 0
6 -9 8 -20 6 -12 -2 -18 0 -14 6 3 6 -3 13 -15 16 -12 3 -21 13 -21 22 -1 14
-2 14 -11 -1 -5 -10 -16 -15 -24 -11 -10 3 -13 1 -10 -9 3 -8 -6 -26 -21 -41
-24 -24 -25 -27 -8 -28 16 0 17 -1 3 -7 -11 -5 -15 -17 -13 -37 2 -19 0 -25
-5 -16 -7 11 -11 9 -20 -8 -7 -11 -17 -21 -24 -21 -9 0 -9 2 0 8 17 11 40 72
38 101 -2 16 4 25 16 28 11 3 19 11 19 18 0 6 9 20 20 30 11 10 17 22 13 28
-3 5 -1 7 5 3 6 -3 13 2 17 13 9 28 31 45 41 30 4 -7 3 -9 -4 -5 -6 3 -13 2
-16 -3 -4 -5 2 -8 11 -7 10 2 18 11 18 22 0 25 74 126 86 118 5 -3 8 0 7 8 -2
7 4 12 12 10 8 -2 12 0 8 4 -11 10 12 35 25 27 6 -4 7 -1 2 7 -4 7 -2 16 5 20
10 6 5 24 -21 77 -19 37 -37 69 -40 71 -4 2 -5 13 -2 25 3 15 2 18 -4 9 -7 -9
-13 -1 -23 28 -7 22 -18 40 -23 40 -6 0 -7 3 -4 7 4 3 2 12 -4 20 -6 7 -8 13
-3 13 5 0 4 4 -2 8 -6 4 -24 31 -39 61 -22 44 -24 56 -13 66 25 22 183 118
196 118 6 0 12 4 12 8 0 9 71 52 88 52 6 0 10 2 7 5 -5 5 102 72 115 72 4 0
13 7 20 15 17 20 23 19 11 -2z m464 -744 c-4 -5 -2 -9 3 -9 5 0 9 -6 9 -12 1
-7 11 -46 22 -86 12 -40 18 -78 15 -84 -4 -6 -2 -8 4 -4 6 3 13 -2 16 -11 3
-10 26 -88 52 -173 25 -85 49 -164 52 -174 4 -14 1 -17 -9 -12 -8 4 -6 1 4 -7
30 -24 21 -36 -20 -26 -21 5 -54 12 -73 15 -19 2 -48 9 -65 14 -40 12 -90 22
-91 18 0 -2 -8 3 -18 11 -14 12 -16 12 -10 -4 4 -11 3 -16 -2 -13 -10 7 -10
-35 1 -103 4 -33 3 -40 -4 -29 -11 15 -10 -4 5 -89 5 -24 3 -32 -5 -27 -6 4
-11 2 -11 -3 0 -6 5 -11 12 -11 6 0 8 -3 5 -6 -4 -4 -13 -1 -21 5 -11 10 -19
10 -33 1 -16 -10 -16 -11 5 -7 12 3 22 1 22 -4 0 -5 7 -9 15 -9 8 0 15 -4 15
-8 0 -4 -9 -8 -19 -8 -11 0 -17 4 -14 10 3 5 -5 7 -20 4 -15 -3 -24 -1 -21 4
3 5 -1 8 -9 6 -9 -2 -17 1 -19 7 -2 5 4 10 12 11 8 1 20 2 25 2 14 3 15 65 1
74 -17 12 -28 9 -23 -4 6 -17 -12 -50 -23 -43 -5 3 -12 33 -16 66 -7 66 -19
82 -34 47 -10 -22 -10 -22 -6 -1 2 12 0 23 -6 25 -5 2 -11 19 -14 38 -7 41
-14 52 -14 22 0 -12 -6 -22 -12 -22 -8 0 -9 -3 -3 -8 6 -4 12 -16 13 -27 2
-11 1 -17 -4 -13 -4 4 -13 3 -21 -3 -15 -13 -18 -33 -4 -24 5 3 12 2 14 -3 3
-4 -6 -12 -19 -19 -16 -7 -22 -8 -17 -1 3 7 1 8 -6 4 -7 -4 -10 -13 -8 -19 2
-7 0 -20 -5 -29 -5 -11 -5 -25 1 -37 8 -15 7 -18 -7 -17 -31 2 -112 38 -106
47 3 5 -4 9 -16 9 -16 0 -21 5 -18 23 2 12 10 27 18 34 13 10 12 11 -3 9 -10
-1 -22 -9 -27 -16 -5 -8 -11 -12 -15 -9 -8 8 30 40 51 43 28 4 41 32 27 56 -7
11 -9 21 -3 25 5 3 11 1 15 -5 3 -5 11 -10 16 -10 6 0 7 5 3 12 -5 8 -2 9 11
4 17 -6 18 -5 3 11 -8 10 -14 23 -11 29 2 6 -3 14 -11 17 -12 5 -15 0 -13 -16
1 -14 -3 -22 -13 -22 -8 0 -18 -4 -21 -9 -4 -4 -10 -3 -13 3 -4 6 -2 11 4 11
6 0 8 5 4 12 -4 6 -3 8 3 5 6 -4 22 15 36 42 22 39 52 76 62 76 1 0 10 -7 20
-15 17 -14 17 -14 5 7 -8 12 -19 19 -25 16 -5 -3 -2 2 7 12 15 16 21 17 45 6
l28 -12 -25 20 c-24 20 -24 20 -3 16 16 -3 20 0 16 11 -3 7 -10 11 -16 7 -6
-4 -1 8 12 26 20 27 25 30 39 19 15 -11 15 -11 4 3 -10 13 -8 20 12 42 13 14
27 23 30 19 4 -3 4 2 0 12 -5 14 -4 17 4 12 7 -4 12 -2 12 4 0 21 63 100 74
93 6 -3 8 -3 4 2 -10 10 31 67 43 60 5 -4 7 0 4 7 -3 7 15 35 40 63 25 27 45
54 46 60 0 5 7 -5 15 -23 8 -18 12 -37 9 -43z m-4132 14 c25 -34 32 -50 24
-56 -8 -6 -6 -7 5 -3 13 4 34 -16 83 -78 36 -46 65 -86 65 -89 0 -4 11 -18 26
-32 14 -14 22 -30 18 -37 -4 -6 -3 -8 4 -4 15 9 23 -7 11 -24 -8 -13 -10 -13
-20 0 -9 13 -10 13 -6 0 2 -8 14 -14 26 -13 11 2 21 -2 21 -8 0 -5 4 -8 9 -5
5 3 11 0 14 -8 3 -8 -2 -16 -13 -19 -12 -3 -18 -13 -17 -25 0 -11 5 -19 9 -16
4 3 5 11 2 19 -4 10 2 13 23 12 20 -2 28 -8 27 -21 -1 -9 0 -15 3 -12 3 3 12
-1 19 -9 15 -15 19 -29 6 -21 -5 3 -9 -1 -9 -9 0 -7 8 -12 18 -10 20 4 35 -10
21 -19 -14 -8 -2 -56 14 -56 16 0 16 -2 8 -24 -3 -9 -10 -16 -15 -16 -4 0 -6
7 -3 15 7 17 -11 21 -21 5 -4 -6 -11 -8 -16 -5 -5 4 -9 1 -9 -4 0 -6 -8 -11
-17 -11 -22 0 -63 -42 -63 -64 0 -12 10 -16 40 -16 41 0 54 -13 23 -23 -10 -4
-28 -14 -40 -23 -23 -16 -23 -16 -23 15 0 30 -2 31 -40 31 -31 0 -40 -4 -40
-17 0 -25 -47 -66 -68 -61 -14 4 -17 -3 -19 -43 -2 -28 2 -51 9 -55 8 -5 9 -1
4 11 -6 17 -5 18 11 3 12 -10 25 -13 38 -8 19 8 19 9 1 9 -11 1 -17 4 -13 7 3
3 15 3 27 -1 24 -8 22 -32 -3 -27 -8 1 -18 -2 -22 -8 -3 -5 -11 -10 -16 -10
-6 0 -7 5 -4 10 10 16 -11 12 -25 -5 -16 -20 -36 -19 -44 1 -5 14 -4 15 9 4 9
-7 19 -9 23 -5 4 4 1 10 -6 12 -6 3 -10 9 -6 14 3 5 -2 9 -11 9 -15 0 -16 12
-10 118 8 134 12 155 30 148 14 -5 9 30 -6 40 -5 3 -6 -1 -3 -9 9 -24 -25 -39
-93 -41 -23 -1 -39 -3 -37 -6 7 -6 -116 -40 -148 -40 -14 0 -28 -6 -31 -12 -2
-7 -7 -10 -11 -7 -4 4 1 26 10 50 9 24 23 70 32 102 12 41 21 56 31 52 10 -4
11 -2 3 8 -11 13 -6 57 7 57 4 0 8 6 8 13 1 28 35 127 44 127 6 0 8 4 5 8 -3
5 2 31 10 58 9 27 17 58 19 69 1 11 3 20 4 20 2 0 4 11 7 25 8 43 25 90 34 90
4 0 24 -21 43 -47z m1795 -61 c16 16 35 -2 26 -25 -7 -19 -34 -23 -34 -6 0 5
-4 8 -9 5 -5 -3 -14 9 -20 27 -11 32 -11 32 7 9 14 -18 20 -20 30 -10z m205 3
c-3 -9 -8 -14 -10 -11 -3 3 -2 9 2 15 9 16 15 13 8 -4z m326 -35 c1 -13 0 -13
-9 0 -5 8 -9 24 -9 35 l0 20 9 -20 c5 -11 9 -27 9 -35z m-170 27 c8 -10 7 -14
-2 -14 -8 0 -14 6 -14 14 0 7 1 13 2 13 2 0 8 -6 14 -13z m-397 -56 c-3 -24
-7 -27 -17 -18 -7 7 -9 13 -4 15 4 2 6 18 3 35 -5 29 -4 30 9 15 8 -10 12 -30
9 -47z m316 47 c17 -17 15 -24 -10 -25 -18 -2 -20 0 -8 7 10 7 11 10 3 10 -7
0 -13 5 -13 10 0 14 13 13 28 -2z m52 -39 c0 -5 -4 -9 -10 -9 -5 0 -10 7 -10
16 0 8 5 12 10 9 6 -3 10 -10 10 -16z m-134 -26 c-3 -4 -6 0 -6 8 0 12 -2 12
-10 -1 -5 -8 -12 -11 -16 -7 -4 3 -1 14 6 22 12 15 14 15 23 0 5 -9 6 -19 3
-22z m88 11 c5 -14 4 -15 -9 -4 -17 14 -19 20 -6 20 5 0 12 -7 15 -16z m-174
-31 c0 -20 -3 -24 -11 -16 -7 7 -9 19 -6 27 10 24 17 19 17 -11z m46 -20 c-3
-4 -6 -1 -6 6 0 7 -4 9 -10 6 -6 -4 -7 1 -3 11 6 15 7 15 15 -1 6 -9 7 -19 4
-22z m-219 7 c-3 -21 -17 -40 -17 -22 0 13 11 42 16 42 2 0 3 -9 1 -20z m239
-22 c-9 -12 -16 -18 -16 -13 0 6 -5 3 -10 -5 -6 -9 -10 -10 -10 -3 0 7 9 17
20 23 11 6 20 18 21 28 0 10 3 12 6 5 2 -7 -3 -23 -11 -35z m114 7 c0 -5 -5
-3 -10 5 -5 8 -10 20 -10 25 0 6 5 3 10 -5 5 -8 10 -19 10 -25z m260 -4 c0
-21 -13 -4 -17 22 -2 17 -1 19 7 7 5 -8 10 -21 10 -29z m-560 -4 c0 -7 -9 -20
-19 -29 -17 -14 -20 -14 -25 -2 -4 10 -2 12 6 8 7 -5 9 0 6 14 -5 17 -2 22 13
22 10 0 19 -6 19 -13z m-4077 -117 c71 -103 110 -152 200 -252 l57 -65 0 -162
0 -162 -23 13 c-27 15 -81 55 -210 154 -86 66 -92 73 -99 115 -10 64 -10 475
0 464 5 -6 38 -53 75 -105z m8712 -306 l-7 -91 -81 -64 c-44 -35 -117 -90
-161 -122 l-81 -57 -3 166 -2 165 66 72 c60 64 197 242 249 322 l20 30 3 -165
c2 -91 0 -206 -3 -256z m-4455 354 c0 -26 -13 -16 -17 13 -2 12 1 18 7 14 5
-3 10 -16 10 -27z m-263 -20 c-3 -8 -6 -5 -6 6 -1 11 2 17 5 13 3 -3 4 -12 1
-19z m30 0 c-3 -8 -6 -5 -6 6 -1 11 2 17 5 13 3 -3 4 -12 1 -19z m1523 -53 c0
-3 -17 -5 -37 -5 -22 0 -33 4 -26 8 7 5 10 19 7 36 l-5 27 31 -31 c16 -17 30
-33 30 -35z m-1503 3 c-3 -8 -6 -5 -6 6 -1 11 2 17 5 13 3 -3 4 -12 1 -19z
m363 18 c0 -3 -4 -8 -10 -11 -5 -3 -10 -1 -10 4 0 6 5 11 10 11 6 0 10 -2 10
-4z m-1310 -16 c0 -5 -7 -10 -15 -10 -8 0 -15 5 -15 10 0 6 7 10 15 10 8 0 15
-4 15 -10z m229 -82 c0 -7 -5 -2 -10 12 -8 18 -12 21 -18 11 -6 -9 -11 -10
-15 -2 -4 6 -3 11 3 11 6 0 8 8 4 18 -3 9 3 5 15 -10 12 -14 22 -32 21 -40z
m2361 53 c0 -6 -4 -13 -10 -16 -5 -3 -10 1 -10 9 0 9 5 16 10 16 6 0 10 -4 10
-9z m-320 -26 c-7 -8 -16 -15 -21 -15 -5 0 -1 8 9 18 20 22 31 19 12 -3z
m-2380 -10 c5 -14 15 -25 22 -25 9 0 8 -3 -2 -10 -8 -5 -10 -10 -5 -10 6 0 12
-10 12 -22 2 -20 -1 -18 -18 10 -12 17 -25 32 -29 32 -11 0 -21 30 -14 41 10
16 24 9 34 -16z m2331 -22 c-12 -20 -14 -14 -5 12 4 9 9 14 11 11 3 -2 0 -13
-6 -23z m409 12 c-7 -9 -15 -13 -17 -11 -7 7 7 26 19 26 6 0 6 -6 -2 -15z
m-2473 -21 c-3 -3 -12 -4 -19 -1 -8 3 -5 6 6 6 11 1 17 -2 13 -5z m2053 -24
c0 -5 -5 -10 -11 -10 -5 0 -7 5 -4 10 3 6 8 10 11 10 2 0 4 -4 4 -10z m20 -9
c-5 -11 -15 -23 -21 -27 -6 -3 -3 5 6 20 20 30 30 35 15 7z m-1956 -9 c2 -4
-4 -8 -14 -8 -10 0 -16 4 -14 8 3 4 9 8 14 8 5 0 11 -4 14 -8z m2297 -5 c-6
-8 -8 -17 -4 -20 3 -4 1 -7 -6 -7 -7 0 -9 -4 -6 -10 7 -11 -8 -14 -18 -4 -7 8
24 53 37 54 5 0 3 -6 -3 -13z m69 -19 c0 -12 -3 -18 -7 -14 -11 10 -12 36 -2
36 5 0 9 -10 9 -22z m-2333 5 c-4 -3 -1 -13 6 -22 10 -14 10 -14 -4 -4 -9 7
-20 9 -25 5 -4 -4 -2 1 5 11 7 9 16 17 19 17 3 0 2 -3 -1 -7z m928 -38 c3 -17
1 -37 -5 -45 -9 -13 -11 -13 -20 0 -5 8 -8 21 -5 28 3 8 5 25 5 40 0 34 18 17
25 -23z m930 36 c-9 -8 -36 -10 -30 -2 2 4 11 8 20 8 8 0 13 -3 10 -6z m-2555
-63 c0 -10 6 -18 14 -18 17 0 25 -29 15 -55 -9 -20 -9 -20 -8 0 2 36 -1 46
-11 40 -5 -3 -8 -21 -6 -41 1 -23 -1 -31 -8 -24 -5 5 -9 32 -9 60 1 27 -3 52
-8 55 -5 4 -14 16 -20 28 -11 21 -10 21 15 -2 14 -14 26 -33 26 -43z m649 34
c7 -13 6 -19 -2 -19 -7 0 -13 9 -13 19 0 10 1 18 3 18 1 0 7 -8 12 -18z m2185
6 c-6 -10 10 -11 20 -1 10 10 46 11 46 1 0 -5 -10 -8 -22 -6 -18 2 -22 -1 -20
-17 2 -12 0 -16 -5 -9 -13 18 -53 36 -53 24 0 -5 -5 -10 -11 -10 -8 0 -8 4 -1
13 12 14 54 18 46 5z m-2554 -13 c-7 -9 -15 -13 -19 -10 -3 3 1 10 9 15 21 14
24 12 10 -5z m396 -23 c-17 -16 -18 -16 -5 5 7 12 15 20 18 17 3 -2 -3 -12
-13 -22z m2247 3 c-7 -21 -12 -19 -10 4 0 11 5 18 9 15 4 -3 5 -11 1 -19z
m132 14 c11 -16 1 -19 -13 -3 -7 8 -8 14 -3 14 5 0 13 -5 16 -11z m-2755 -6
c-1 -5 -15 -24 -32 -43 -29 -32 -30 -32 -13 -5 28 44 45 63 45 48z m2647 -25
c-3 -8 -6 -5 -6 6 -1 11 2 17 5 13 3 -3 4 -12 1 -19z m120 -5 c-4 -3 -1 -13 5
-22 7 -9 8 -13 3 -8 -4 4 -18 -1 -29 -10 -17 -15 -19 -15 -8 -1 10 13 10 18 1
24 -9 5 -7 10 7 15 25 10 29 10 21 2z m-146 -25 c-4 -12 -14 -24 -22 -26 -9
-2 -10 -1 -3 5 6 4 13 16 17 26 3 9 9 17 11 17 3 0 2 -10 -3 -22z m-2264 -3
c0 -8 -4 -12 -9 -9 -5 3 -6 10 -3 15 9 13 12 11 12 -6z m2533 -9 c0 -2 -7 -7
-16 -10 -8 -3 -12 -2 -9 4 6 10 25 14 25 6z m-310 -34 c0 -15 -2 -15 -10 -2
-13 20 -13 33 0 25 6 -3 10 -14 10 -23z m-2817 3 c4 -8 1 -17 -5 -21 -7 -4 -8
-3 -4 4 4 7 2 12 -3 12 -6 0 -11 5 -11 10 0 15 17 12 23 -5z m2787 12 c0 -2
-10 -12 -22 -23 l-23 -19 19 23 c18 21 26 27 26 19z m347 -27 c-1 -11 -5 -20
-10 -20 -5 0 -6 10 -2 23 6 21 6 21 -9 3 -12 -14 -16 -16 -16 -5 0 8 -11 2
-26 -16 l-26 -30 22 33 c12 18 25 30 30 27 5 -3 11 -1 15 5 10 15 24 2 22 -20z
m33 -10 c0 -5 -2 -10 -4 -10 -3 0 -8 5 -11 10 -3 6 -1 10 4 10 6 0 11 -4 11
-10z m-5510 -255 c0 -249 20 -531 58 -843 21 -161 25 -154 -62 -106 -37 21
-45 31 -50 62 -3 20 -12 84 -20 142 -31 212 -55 620 -56 915 l0 89 65 -64 65
-64 0 -131z m2867 242 c0 -8 -6 -14 -14 -14 -9 0 -10 4 -2 14 6 7 12 13 14 13
1 0 2 -6 2 -13z m5039 -204 c-6 -191 -17 -386 -31 -573 -6 -80 -44 -365 -50
-381 -6 -15 -115 -73 -123 -65 -2 3 1 33 7 68 11 62 33 259 51 453 4 55 11
210 15 345 l7 245 61 63 c34 34 63 62 66 62 2 0 1 -98 -3 -217z m-5549 175
c-3 -7 -5 -2 -5 12 0 14 2 19 5 13 2 -7 2 -19 0 -25z m3093 28 c0 -2 -7 -9
-15 -16 -13 -11 -14 -10 -9 4 5 14 24 23 24 12z m258 -29 c0 -28 -3 -32 -28
-32 -16 -1 -26 3 -24 7 3 5 9 6 14 3 14 -9 22 13 11 33 -7 14 -6 18 9 19 14 1
18 -6 18 -30z m-448 17 c0 -8 -19 -13 -24 -6 -3 5 1 9 9 9 8 0 15 -2 15 -3z
m-3460 -82 l0 -78 -37 -18 c-29 -14 -38 -15 -44 -4 -9 14 -42 149 -37 153 9 6
76 23 96 24 21 1 22 -2 22 -77z m4273 67 c33 -9 38 -14 33 -32 -3 -12 -10 -45
-16 -72 -16 -75 -20 -79 -63 -59 l-37 18 0 78 c0 88 2 90 83 67z m-4481 -92
c24 -92 29 -139 16 -154 -8 -10 -5 -13 11 -13 16 0 21 -6 21 -25 0 -31 10 -33
73 -15 17 5 25 5 22 -1 -4 -5 -13 -9 -22 -9 -9 0 -14 -2 -11 -5 10 -10 58 7
58 20 0 7 6 17 13 23 10 9 13 2 12 -36 -1 -26 -4 -53 -9 -60 -9 -15 -36 -16
-36 -1 0 6 7 8 16 5 8 -3 12 -2 9 3 -3 6 -29 9 -58 8 -44 -2 -52 1 -51 16 2
14 -1 15 -12 6 -8 -6 -14 -13 -14 -15 0 -9 82 -54 89 -49 5 3 4 -6 -2 -19 -9
-18 -14 -21 -22 -11 -5 7 -24 15 -42 17 -31 4 -33 3 -39 -38 -3 -23 -3 -47 0
-52 3 -6 -2 -8 -14 -5 -10 3 -26 -2 -35 -11 -9 -8 -23 -13 -33 -10 -16 5 -16
5 1 -6 9 -6 16 -21 16 -33 -1 -16 -3 -17 -6 -5 -4 18 -40 34 -50 24 -4 -3 1
-6 10 -6 9 0 17 -7 17 -15 0 -12 -4 -13 -19 -5 -11 5 -26 10 -33 9 -7 0 -2 -5
11 -10 13 -5 22 -12 19 -14 -7 -7 -98 28 -98 38 0 4 -5 5 -12 1 -8 -5 -9 -2
-4 11 5 15 4 16 -9 5 -11 -9 -15 -9 -15 -1 0 7 -5 9 -12 5 -9 -5 -9 -2 1 9 7
9 10 17 7 17 -4 0 -1 7 6 15 27 30 33 41 36 65 1 13 7 29 13 35 7 7 8 4 3 -9
-5 -14 -4 -17 5 -12 6 4 9 16 6 26 -7 22 14 71 28 63 6 -3 7 -1 3 5 -4 6 7 43
24 81 16 38 30 74 30 80 0 6 4 11 8 11 5 0 9 7 10 15 1 8 3 22 4 30 1 8 5 15
10 15 5 0 7 4 3 9 -3 5 1 15 8 23 8 7 12 20 9 28 -3 8 -1 12 3 7 5 -4 17 -40
27 -80z m735 61 c-3 -8 -6 -5 -6 6 -1 11 2 17 5 13 3 -3 4 -12 1 -19z m3940
-93 c6 -11 8 -26 6 -32 -3 -7 1 -13 8 -13 7 0 10 -2 7 -6 -3 -3 14 -46 39 -96
32 -64 41 -93 33 -98 -8 -5 -4 -9 10 -13 17 -4 20 -9 12 -24 -7 -13 -6 -24 4
-38 8 -10 14 -14 14 -9 0 6 -6 16 -12 23 -8 9 -9 12 -1 7 16 -9 66 -96 59
-104 -12 -12 -80 -31 -89 -25 -6 3 -7 2 -4 -3 3 -6 -7 -15 -24 -21 -26 -10
-29 -9 -29 8 0 10 5 19 11 19 5 0 7 -4 4 -10 -3 -5 -1 -10 4 -10 6 0 11 7 11
15 0 9 -10 15 -26 15 -21 0 -24 -4 -19 -20 8 -24 -10 -27 -19 -4 -8 22 -4 26
41 35 l38 7 -44 -1 c-25 -1 -46 4 -48 10 -2 6 -13 21 -24 34 -10 12 -19 26
-19 31 0 4 -9 8 -19 8 -10 0 -21 6 -24 14 -4 10 -19 14 -46 12 -24 -2 -38 1
-34 7 3 5 0 7 -8 5 -18 -7 -46 8 -58 30 -8 14 -5 18 12 18 12 0 25 -4 29 -10
12 -17 58 -19 58 -1 0 8 5 14 11 13 6 -2 14 4 16 12 4 13 3 13 -6 0 -10 -13
-11 -13 -12 0 0 10 -2 11 -6 3 -2 -7 -9 -13 -14 -13 -6 0 -7 6 -4 13 4 6 1 5
-7 -4 -7 -9 -19 -14 -27 -11 -11 4 -11 6 0 13 10 6 10 9 2 9 -7 0 -10 7 -7 15
4 8 1 15 -5 15 -6 0 -11 -4 -11 -10 0 -5 -5 -10 -11 -10 -5 0 -8 4 -5 8 7 11
-62 44 -75 36 -5 -3 -8 0 -7 8 2 7 -3 12 -10 10 -8 -1 -11 2 -6 9 5 9 2 10
-12 5 -15 -5 -16 -4 -7 5 9 9 18 7 40 -8 15 -11 33 -18 39 -16 6 2 17 -3 24
-12 7 -8 18 -15 26 -15 7 0 25 -5 41 -12 15 -6 38 -13 51 -14 19 -2 21 0 11
18 -6 12 -7 18 -1 14 13 -8 24 22 17 45 -4 11 -2 19 5 19 7 0 9 7 6 16 -7 18
13 96 23 90 3 -2 7 10 7 27 1 18 4 41 7 52 3 11 6 22 7 25 0 3 9 -18 19 -45
10 -28 23 -60 28 -70z m-510 69 c-9 -9 -28 6 -21 18 4 6 10 6 17 -1 6 -6 8
-13 4 -17z m-420 -26 c2 -17 0 -19 -7 -8 -5 8 -6 18 -4 22 8 12 10 10 11 -14z
m47 -4 c4 -10 2 -13 -6 -8 -7 5 -9 2 -5 -9 4 -11 2 -14 -8 -11 -11 5 -12 10
-2 25 14 23 13 23 21 3z m346 -23 c0 -6 -4 -12 -8 -15 -5 -3 -9 1 -9 9 0 8 4
15 9 15 4 0 8 -4 8 -9z m-6057 -121 c81 -61 150 -116 152 -123 5 -14 24 -351
21 -355 -2 -1 -66 39 -143 90 -135 90 -140 95 -151 138 -24 94 -49 360 -34
360 4 0 74 -50 155 -110z m2630 95 c-3 -9 -8 -14 -10 -11 -3 3 -2 9 2 15 9 16
15 13 8 -4z m3369 6 c-8 -5 -13 -11 -13 -15 3 -19 0 -26 -10 -26 -8 0 -8 4 0
13 7 9 7 17 1 23 -6 6 -2 10 12 11 16 2 19 0 10 -6z m95 3 c-3 -3 -12 -4 -19
-1 -8 3 -5 6 6 6 11 1 17 -2 13 -5z m2495 -71 c-4 -102 -40 -315 -55 -329 -7
-7 -72 -51 -146 -98 l-133 -87 6 83 c3 46 9 129 12 184 5 84 10 104 26 115 10
8 76 58 146 111 70 53 132 97 137 97 7 1 9 -28 7 -76z m-8147 18 c28 -20 55
-39 60 -43 23 -18 197 -140 292 -205 56 -39 100 -73 98 -77 -3 -3 -2 -4 1 -1
4 2 16 -1 28 -7 38 -19 161 -102 164 -110 2 -4 8 -8 14 -8 6 0 53 -26 104 -57
l94 -58 0 -77 0 -77 60 -33 c33 -18 60 -36 60 -40 0 -4 7 -5 15 -2 11 5 14 1
9 -12 -4 -14 -3 -16 4 -5 6 8 15 10 22 6 9 -6 11 -4 5 4 -11 19 -15 151 -4
151 5 0 9 -2 9 -4 0 -2 3 -13 6 -23 5 -15 4 -15 -5 -3 -7 10 -11 11 -11 3 0
-7 9 -17 20 -23 11 -6 17 -16 14 -22 -4 -7 -2 -8 5 -4 9 6 9 11 0 22 -6 8 -8
18 -4 22 4 4 10 1 12 -6 3 -6 10 -9 15 -5 7 4 9 -1 6 -14 -4 -13 2 -24 16 -33
17 -10 19 -10 9 1 -34 35 16 33 54 -2 12 -13 23 -19 23 -15 0 5 6 3 14 -3 9
-8 12 -21 8 -34 -3 -12 -6 -53 -6 -92 0 -38 -1 -60 -3 -47 -3 12 -8 22 -13 22
-4 0 -6 16 -3 35 4 29 0 41 -21 62 -15 14 -30 22 -34 18 -4 -4 -2 -9 4 -12 18
-6 -7 -93 -28 -93 -15 0 -18 -9 -18 -45 0 -36 -6 -52 -26 -72 -14 -14 -27 -23
-29 -21 -2 2 -5 24 -6 50 -2 31 -7 44 -15 41 -6 -2 -18 2 -25 10 -8 7 -19 12
-26 10 -6 -2 -15 1 -19 8 -4 7 -3 9 3 6 6 -4 8 4 5 21 l-6 27 -6 -24 c-3 -14
-12 -27 -19 -29 -8 -3 -11 -1 -8 4 3 5 -10 10 -28 11 -29 1 -33 -2 -37 -28 -3
-16 -1 -29 4 -29 4 0 8 -20 8 -45 0 -39 3 -47 25 -55 14 -5 25 -12 25 -14 0
-3 -7 -3 -15 0 -8 4 -15 1 -15 -6 0 -8 10 -11 29 -8 23 3 27 1 23 -14 -2 -10
-8 -18 -13 -18 -5 0 -9 -5 -9 -10 0 -6 8 -5 19 2 11 7 18 15 16 19 -5 7 33 4
65 -6 21 -7 21 -8 4 -27 -15 -16 -16 -21 -4 -28 9 -6 17 -5 22 3 6 9 8 9 8 0
0 -6 -7 -18 -15 -27 -20 -20 -19 -26 5 -26 31 0 24 -26 -12 -44 -28 -13 -30
-16 -10 -16 12 0 22 -4 22 -9 0 -12 -57 6 -66 20 -3 5 -10 7 -15 3 -13 -8 -61
24 -54 36 3 5 0 12 -6 16 -8 4 -9 3 -5 -4 4 -7 3 -12 -1 -12 -10 0 -8 -53 3
-114 6 -31 4 -38 -7 -34 -8 3 -13 11 -11 17 1 7 -2 9 -8 6 -15 -9 -100 17 -93
29 3 5 1 6 -6 2 -10 -7 -92 17 -116 34 -5 4 -23 10 -40 13 -28 5 -143 45 -190
67 -11 5 -47 18 -80 30 -58 21 -124 49 -175 74 -14 7 -53 23 -88 36 -34 12
-64 26 -67 30 -9 14 -18 86 -64 485 -5 44 -12 198 -15 343 -5 213 -4 262 6
256 7 -4 36 -24 63 -43z m2068 34 c-3 -9 -8 -14 -10 -11 -3 3 -2 9 2 15 9 16
15 13 8 -4z m5557 8 c-10 -337 -22 -593 -30 -661 -58 -448 -55 -432 -75 -432
-9 0 -23 -4 -33 -10 -47 -26 -106 -49 -113 -44 -5 3 -9 1 -9 -5 0 -5 -17 -15
-37 -22 -21 -6 -42 -15 -48 -19 -11 -9 -99 -40 -129 -46 -10 -2 -24 -8 -31
-14 -18 -15 -232 -90 -256 -90 -11 0 -18 -4 -15 -8 2 -4 -4 -9 -15 -10 -43 -4
-49 -6 -49 -14 0 -4 -3 -7 -7 -7 -5 1 -11 0 -15 -1 -5 -1 -11 -3 -15 -5 -19
-5 -49 -17 -66 -26 -11 -6 -22 -8 -25 -5 -3 3 0 6 8 6 10 0 10 3 0 15 -7 8 -9
23 -5 32 3 10 8 33 11 52 4 29 2 33 -16 28 -11 -3 -23 0 -27 5 -3 6 -1 8 5 4
6 -3 13 -3 16 2 2 4 -9 8 -25 7 -24 0 -27 -2 -14 -11 19 -14 8 -24 -52 -47
-49 -19 -57 -15 -15 7 31 17 16 21 -23 6 -20 -7 -25 -15 -21 -28 5 -13 3 -13
-9 3 -21 26 -15 59 10 63 20 4 20 4 0 -11 -11 -9 -16 -19 -12 -23 4 -5 12 -2
17 5 5 10 20 12 50 8 28 -3 40 -2 37 6 -2 6 -16 11 -32 12 -16 0 -30 6 -33 15
-4 12 -2 13 9 3 18 -18 30 -16 23 2 -4 9 -19 15 -35 15 -32 0 -39 17 -11 28
10 4 17 18 17 32 0 22 8 28 60 45 33 11 63 24 66 28 3 4 14 4 25 0 16 -6 17
-5 6 9 -9 11 -10 18 -2 23 6 4 8 16 4 28 -6 20 -5 21 12 7 17 -14 18 -13 7 1
-7 9 -9 20 -5 24 4 5 1 5 -5 1 -10 -5 -13 3 -13 32 0 38 -1 39 -34 38 -19 -1
-32 -4 -30 -7 9 -15 -30 -18 -46 -4 -20 18 -51 10 -43 -11 3 -8 9 -11 14 -8 5
3 7 10 4 15 -3 5 1 6 9 3 9 -3 16 -10 16 -16 0 -5 -4 -7 -9 -4 -5 4 -12 0 -15
-6 -3 -9 -11 -6 -24 10 -27 30 -36 28 -16 -3 9 -14 12 -25 8 -25 -5 0 -10 -17
-11 -37 -1 -21 -2 -47 -3 -57 -1 -13 -4 -16 -12 -8 -11 11 -13 66 -4 103 3 13
3 18 0 12 -8 -18 -25 -16 -18 1 3 9 -7 28 -24 44 -23 23 -28 33 -19 42 9 9 5
9 -13 -1 -14 -7 -29 -14 -35 -14 -5 0 -9 -8 -9 -18 2 -25 -5 -21 -18 11 -25
64 -18 87 30 85 9 -1 6 6 -7 18 -12 11 -26 17 -31 14 -6 -3 -10 -4 -10 -1 0 3
10 10 21 17 12 6 19 7 15 1 -3 -5 0 -12 8 -15 8 -3 13 1 12 11 0 10 5 16 13
14 8 -2 11 3 8 11 -3 9 13 22 47 37 28 14 54 28 57 33 11 16 17 -7 8 -30 -5
-13 -15 -23 -24 -23 -13 0 -14 -2 -3 -14 9 -10 15 -11 20 -2 5 7 8 5 8 -6 0
-10 -6 -18 -12 -19 -9 0 -9 -2 -2 -5 7 -3 10 -14 7 -25 -4 -15 -8 -17 -19 -8
-18 15 -26 8 -14 -11 8 -12 13 -13 30 -2 16 10 20 10 20 0 0 -9 3 -10 8 -2 8
13 92 57 92 49 0 -3 16 6 35 21 19 14 33 29 31 33 -3 4 -5 36 -7 71 -1 47 2
64 10 62 7 -1 10 2 7 7 -3 5 24 27 60 48 37 21 78 46 93 55 14 10 33 21 41 25
8 3 27 15 42 25 16 11 33 16 39 12 7 -4 9 -3 5 4 -3 6 20 26 56 48 35 21 81
51 103 67 22 15 63 43 90 62 28 18 122 85 210 149 156 112 175 124 175 109z
m-5586 -19 c9 -24 2 -26 -12 -4 -7 11 -8 20 -3 20 5 0 12 -7 15 -16z m3523
-47 c1 -29 1 -30 -8 -9 -5 13 -7 28 -3 33 8 14 9 12 11 -24z m-3502 -14 c-9
-15 -14 -19 -10 -9 3 11 0 24 -7 29 -9 6 -8 7 5 3 9 -3 17 0 17 6 0 6 3 9 6 6
3 -4 -2 -19 -11 -35z m-291 -8 c-10 -8 -14 -15 -9 -15 6 -1 -3 -7 -20 -15
l-30 -14 30 5 c21 3 24 2 11 -4 -10 -4 -24 -19 -32 -33 l-13 -24 -1 29 c0 25
-2 27 -17 15 -10 -7 -13 -8 -8 -2 16 19 89 72 99 72 6 1 1 -6 -10 -14z m506
-19 c0 -2 -8 -10 -17 -17 -16 -13 -17 -12 -4 4 13 16 21 21 21 13z m-337 -18
c4 -12 -20 -37 -35 -38 -10 0 -10 34 -1 43 11 11 31 8 36 -5z m-144 -38 c0
-10 -3 -8 -9 5 -12 27 -12 43 0 25 5 -8 9 -22 9 -30z m4004 -29 c2 -29 1 -47
-3 -40 -5 8 -9 32 -10 54 -4 83 6 72 13 -14z m-213 39 c0 -13 -6 -20 -17 -19
-11 0 -13 3 -5 6 6 2 12 11 12 19 0 8 2 14 5 14 3 0 5 -9 5 -20z m-3505 0 c-3
-5 1 -10 9 -10 9 0 16 -4 16 -10 0 -6 -10 -5 -25 2 -19 8 -22 14 -13 20 17 10
20 10 13 -2z m3692 -47 c-3 -10 -5 -4 -5 12 0 17 2 24 5 18 2 -7 2 -21 0 -30z
m50 15 c-3 -8 -6 -5 -6 6 -1 11 2 17 5 13 3 -3 4 -12 1 -19z m-3742 -6 c-3 -3
-11 0 -18 7 -9 10 -8 11 6 5 10 -3 15 -9 12 -12z m3782 -8 c-9 -9 -28 6 -21
18 4 6 10 6 17 -1 6 -6 8 -13 4 -17z m83 2 c0 -2 -7 -6 -15 -10 -8 -3 -15 -1
-15 4 0 6 7 10 15 10 8 0 15 -2 15 -4z m-4150 -39 c0 -7 -4 -6 -10 3 -8 13
-10 12 -10 -4 0 -11 -3 -17 -6 -13 -4 3 -4 13 0 22 6 18 26 11 26 -8z m456 -7
c0 -12 -4 -16 -9 -11 -5 5 -6 14 -3 20 10 15 12 14 12 -9z m3527 -10 c-3 -11
-7 -20 -9 -20 -2 0 -4 9 -4 20 0 11 4 20 9 20 5 0 7 -9 4 -20z m-3656 -15 c0
-8 -4 -12 -9 -9 -5 3 -6 10 -3 15 9 13 12 11 12 -6z m3700 -27 c-3 -7 -5 -2
-5 12 0 14 2 19 5 13 2 -7 2 -19 0 -25z m-98 -44 c2 -2 -4 -4 -15 -4 -16 0
-17 -2 -4 -10 9 -6 10 -10 3 -10 -6 0 -15 5 -18 11 -4 6 -17 15 -29 20 -15 6
-10 7 19 3 22 -4 42 -8 44 -10z m-3656 -9 c-3 -9 -8 -14 -10 -11 -3 3 -2 9 2
15 9 16 15 13 8 -4z m-246 -17 c-3 -8 -6 -5 -6 6 -1 11 2 17 5 13 3 -3 4 -12
1 -19z m3923 12 c0 -5 -5 -10 -11 -10 -5 0 -7 5 -4 10 3 6 8 10 11 10 2 0 4
-4 4 -10z m-3955 -9 c3 -5 1 -12 -5 -16 -5 -3 -10 1 -10 9 0 18 6 21 15 7z
m-275 -31 c0 -5 -4 -10 -10 -10 -5 0 -10 5 -10 10 0 6 5 10 10 10 6 0 10 -4
10 -10z m-90 -70 c0 -5 -2 -10 -4 -10 -3 0 -8 5 -11 10 -3 6 -1 10 4 10 6 0
11 -4 11 -10z m4684 -14 c-6 -16 -24 -13 -24 5 0 6 5 7 10 4 6 -3 10 -1 10 6
0 7 2 10 5 7 3 -3 3 -13 -1 -22z m-4557 -1 c5 -4 -1 -6 -13 -3 -12 3 -21 0
-21 -7 0 -7 11 -10 26 -8 22 3 23 2 7 -5 -15 -7 -17 -10 -6 -17 8 -5 18 -2 26
9 8 11 14 13 19 7 3 -6 1 -11 -4 -11 -6 0 -11 -7 -11 -16 0 -14 -4 -13 -32 4
-37 24 -49 64 -18 59 11 -2 23 -7 27 -12z m-67 -5 c12 -7 10 -9 -8 -7 -12 0
-22 5 -22 9 0 11 12 10 30 -2z m4580 0 c-8 -5 -19 -10 -25 -10 -5 0 -3 5 5 10
8 5 20 10 25 10 6 0 3 -5 -5 -10z m-6500 -62 c53 -35 113 -72 133 -83 21 -11
40 -29 42 -40 9 -39 41 -306 37 -309 -2 -3 -25 8 -50 23 -26 15 -83 47 -127
71 -44 23 -81 44 -83 45 -2 2 -9 43 -17 91 -8 49 -19 116 -24 149 -20 108 -21
115 -13 115 4 0 50 -28 102 -62z m8516 20 c-4 -24 -16 -103 -27 -177 -10 -74
-20 -135 -21 -136 -2 -1 -32 -18 -68 -37 -36 -19 -95 -52 -132 -72 -38 -21
-68 -34 -68 -29 0 4 5 37 10 73 5 36 11 92 15 125 10 107 15 124 38 137 29 15
185 115 217 138 37 28 43 24 36 -22z m-2051 22 c4 -6 3 -10 -2 -9 -19 3 -34
-2 -28 -10 3 -5 1 -12 -4 -15 -21 -13 -20 14 1 28 27 19 25 19 33 6z m-4431
-36 c3 -8 2 -12 -4 -9 -6 3 -10 10 -10 16 0 14 7 11 14 -7z m4336 -16 c0 6 5
12 11 12 8 0 8 -5 -1 -15 -13 -16 -30 -11 -30 8 0 7 4 6 10 -3 6 -10 10 -11
10 -2z m-4270 -18 c0 -5 -2 -10 -4 -10 -3 0 -8 5 -11 10 -3 6 -1 10 4 10 6 0
11 -4 11 -10z m2143 -99 c15 -27 27 -54 27 -60 0 -6 -13 -31 -28 -56 l-28 -45
-33 55 c-18 30 -31 58 -29 62 10 25 54 93 59 93 3 0 18 -22 32 -49z m-1911
-18 c-6 -2 -9 -10 -6 -15 4 -7 2 -8 -5 -4 -13 9 -5 26 12 25 9 0 8 -2 -1 -6z
m4465 -139 c-3 -3 -12 -4 -19 -1 -8 3 -5 6 6 6 11 1 17 -2 13 -5z m-137 -43
c0 -5 -7 -11 -14 -14 -10 -4 -13 -1 -9 9 6 15 23 19 23 5z m-4997 -66 c4 -39
3 -50 -2 -30 -9 31 -14 102 -7 94 2 -2 6 -31 9 -64z m114 -12 c-2 -16 -4 -5
-4 22 0 28 2 40 4 28 2 -13 2 -35 0 -50z m4903 30 c0 -24 -3 -33 -8 -25 -5 7
-7 23 -6 35 3 27 3 27 9 27 3 0 5 -17 5 -37z m82 -14 l-10 -34 -1 45 c-1 31 2
41 10 33 7 -7 7 -21 1 -44z m-4947 31 c3 -6 -1 -7 -9 -4 -18 7 -21 14 -7 14 6
0 13 -4 16 -10z m62 -7 c-4 -3 -2 -11 3 -18 7 -8 5 -12 -4 -12 -8 0 -12 7 -11
16 5 22 4 21 12 21 3 0 3 -3 0 -7z m4702 3 c-2 -2 -15 -9 -29 -15 -24 -11 -24
-11 -6 3 16 13 49 24 35 12z m-69 -21 c-7 -8 -17 -15 -23 -15 -6 0 -2 7 9 15
25 19 30 19 14 0z m125 -5 c18 -8 17 -9 -7 -9 -16 -1 -28 4 -28 9 0 12 8 12
35 0z m-4878 -42 c-3 -8 -6 -5 -6 6 -1 11 2 17 5 13 3 -3 4 -12 1 -19z m4710
-34 c-3 -3 -12 -4 -19 -1 -8 3 -5 6 6 6 11 1 17 -2 13 -5z m99 -49 c-3 -8 0
-16 7 -19 7 -2 4 -5 -7 -5 -12 -1 -16 -6 -13 -16 4 -8 1 -17 -4 -21 -6 -3 -8
-18 -5 -33 5 -17 4 -21 -2 -12 -7 9 -13 -2 -22 -38 -6 -28 -16 -53 -20 -56 -5
-3 -18 11 -30 30 -12 19 -27 32 -32 29 -6 -4 -8 -2 -5 3 8 13 -17 36 -27 26
-4 -4 -4 0 -1 9 4 10 -1 21 -15 31 -20 14 -17 16 57 53 43 21 79 42 81 46 6
14 44 -13 38 -27z m-4591 -15 c16 0 17 2 5 10 -8 5 -10 10 -4 10 6 0 17 -7 24
-15 7 -8 19 -15 27 -15 7 0 16 -6 19 -14 3 -8 13 -12 22 -9 13 3 14 2 4 -4 -9
-7 -10 -17 -3 -35 7 -19 5 -32 -8 -54 -10 -16 -17 -35 -15 -42 1 -7 0 -8 -2
-3 -3 6 -24 8 -48 5 -27 -4 -52 -1 -67 7 -13 7 -28 13 -33 14 -5 0 -10 26 -11
57 0 31 1 56 4 55 15 -5 53 32 46 45 -6 10 -5 11 6 1 7 -7 22 -13 34 -13z
m-295 -42 c-1 -26 -3 -30 -10 -16 -6 9 -7 23 -4 32 9 25 14 19 14 -16z m79 -8
c0 -10 -3 -8 -9 5 -12 27 -12 43 0 25 5 -8 9 -22 9 -30z m5181 -12 c0 -5 -4
-6 -10 -3 -19 12 -10 -7 11 -24 22 -17 22 -17 -10 -17 -17 0 -31 4 -31 9 0 5
7 6 16 3 13 -5 14 -3 7 6 -15 19 -12 47 4 41 7 -3 13 -9 13 -15z m-5278 -47
c-3 -20 -9 -28 -17 -24 -18 6 -1 48 21 53 0 0 -1 -13 -4 -29z m85 -3 c-3 -8
-6 -5 -6 6 -1 11 2 17 5 13 3 -3 4 -12 1 -19z m5193 -18 c-8 -5 -19 -10 -25
-10 -5 0 -3 5 5 10 8 5 20 10 25 10 6 0 3 -5 -5 -10z m-5266 -34 c-3 -15 -8
-25 -11 -23 -2 3 -1 17 3 31 3 15 8 25 11 23 2 -3 1 -17 -3 -31z m217 -3 c13
-16 12 -17 -3 -4 -17 13 -22 21 -14 21 2 0 10 -8 17 -17z m4846 -55 c-3 -7 -5
-2 -5 12 0 14 2 19 5 13 2 -7 2 -19 0 -25z m-5231 -50 c-6 -31 -6 -31 14 -13
12 11 20 13 20 6 0 -6 -7 -14 -15 -17 -8 -4 -15 -12 -15 -20 0 -8 -4 -14 -10
-14 -5 0 -7 7 -4 15 4 8 1 15 -6 15 -6 0 -8 5 -3 13 8 12 9 17 12 37 0 6 4 10
7 10 4 0 4 -14 0 -32z m1993 28 c-2 -1 -44 -24 -94 -50 -105 -56 -121 -68
-146 -118 -11 -21 -21 -38 -22 -38 -1 0 -2 40 -2 90 l0 89 55 7 c30 3 73 10
95 14 42 8 121 13 114 6z m1577 -11 c54 -8 104 -15 109 -15 6 0 10 -38 10 -95
l0 -95 -21 43 c-29 55 -42 66 -149 122 -49 26 -92 49 -94 51 -9 8 48 4 145
-11z m1584 -56 c0 -6 -4 -7 -10 -4 -5 3 -10 11 -10 16 0 6 5 7 10 4 6 -3 10
-11 10 -16z m-5094 -46 c-14 -15 -26 -23 -26 -17 0 6 9 19 20 29 11 10 21 25
21 34 1 13 2 13 6 -1 2 -10 -7 -30 -21 -45z m5359 38 c3 -5 2 -12 -3 -15 -5
-3 -9 1 -9 9 0 17 3 19 12 6z m-198 -33 c-3 -8 -6 -5 -6 6 -1 11 2 17 5 13 3
-3 4 -12 1 -19z m-5217 8 c0 -3 -4 -8 -10 -11 -5 -3 -10 -1 -10 4 0 6 5 11 10
11 6 0 10 -2 10 -4z m267 -38 c-3 -8 -6 -5 -6 6 -1 11 2 17 5 13 3 -3 4 -12 1
-19z m4870 -20 c-3 -7 -5 -2 -5 12 0 14 2 19 5 13 2 -7 2 -19 0 -25z m263 22
c-20 -13 -40 -13 -40 0 0 6 12 10 28 10 21 0 24 -2 12 -10z m-5368 -27 c-10
-4 -8 -9 5 -19 16 -12 14 -12 -14 -2 -40 15 -42 23 -5 24 15 1 21 -1 14 -3z
m5378 3 c0 -2 -9 -6 -20 -9 -11 -3 -18 -1 -14 4 5 9 34 13 34 5z m-5321 -35
c7 -5 9 -11 5 -14 -5 -3 -15 1 -22 9 -14 16 -5 18 17 5z m66 -9 c-3 -3 -11 0
-18 7 -9 10 -8 11 6 5 10 -3 15 -9 12 -12z m5139 3 c3 -9 -3 -19 -16 -26 -15
-8 -18 -8 -14 0 4 6 2 11 -5 11 -9 0 16 27 27 30 1 0 4 -7 8 -15z m36 0 c0
-12 -19 -12 -23 0 -4 9 -1 12 9 8 7 -3 14 -7 14 -8z m-5187 -18 c4 3 7 4 7 0
0 -18 -21 -14 -30 5 -10 21 -10 21 3 6 8 -10 17 -15 20 -11z m52 -37 c3 -6 -1
-7 -9 -4 -18 7 -21 14 -7 14 6 0 13 -4 16 -10z m180 -48 c-3 -3 -11 0 -18 7
-9 10 -8 11 6 5 10 -3 15 -9 12 -12z m4645 -136 c0 -2 -8 -10 -17 -17 -16 -13
-17 -12 -4 4 13 16 21 21 21 13z m-6245 -46 c22 -11 43 -20 47 -20 4 0 32 -9
63 -21 60 -22 72 -38 104 -133 10 -28 32 -88 49 -133 16 -45 28 -84 26 -86 -3
-2 -35 2 -72 9 -37 7 -84 15 -105 19 -31 5 -40 12 -53 43 -9 20 -17 42 -18 47
-1 6 -12 33 -25 60 -26 56 -81 210 -81 225 0 15 22 12 65 -10z m7864 -91 c-21
-62 -46 -126 -53 -143 -8 -17 -23 -52 -34 -78 -18 -42 -25 -47 -59 -53 -21 -4
-68 -12 -105 -19 -52 -10 -68 -11 -68 -1 0 12 66 194 99 274 18 42 23 45 107
78 49 19 98 38 109 43 44 19 44 10 4 -101z m-7483 -51 c7 -4 21 -45 33 -90 12
-46 26 -92 31 -103 25 -58 40 -107 35 -115 -3 -4 0 -10 6 -12 7 -2 13 -13 14
-24 1 -10 14 -45 29 -77 14 -32 23 -63 20 -69 -4 -7 -2 -8 4 -4 7 4 13 1 13
-8 2 -24 4 -29 21 -61 33 -63 32 -70 -11 -72 -47 -3 -56 7 -101 107 -18 41
-41 93 -51 115 -39 88 -169 433 -169 450 0 4 114 -29 126 -37z m5779 32 c-3
-5 1 -10 9 -10 22 0 20 -8 -12 -71 -35 -68 -62 -109 -72 -109 -6 0 -32 51 -36
70 0 3 -6 18 -12 33 -7 16 -12 32 -12 37 0 12 28 21 35 11 3 -5 -1 -11 -9 -14
-11 -5 -10 -16 8 -61 11 -31 24 -56 28 -56 9 0 87 137 81 143 -2 3 -19 1 -36
-4 -45 -13 -68 -10 -30 4 18 7 38 18 45 25 15 15 22 16 13 2z m1415 -7 c0 -9
-67 -199 -80 -228 -14 -32 -60 -146 -77 -192 -8 -24 -20 -43 -26 -43 -6 0 -8
-3 -4 -6 3 -4 0 -19 -9 -35 -8 -16 -14 -30 -13 -31 2 -7 -55 -114 -65 -120
-10 -7 -86 -9 -86 -2 0 1 22 52 49 112 27 61 46 113 43 116 -3 4 0 6 7 6 7 0
9 5 5 11 -3 6 -3 14 2 18 14 10 114 307 114 338 0 8 4 12 9 9 5 -3 8 2 7 11
-1 12 13 20 49 29 63 15 75 16 75 7z m-5735 -68 c49 -48 17 -135 -50 -135 -49
0 -84 35 -89 88 -2 23 0 40 5 36 5 -3 9 0 9 6 0 6 10 15 23 20 40 16 77 11
102 -15z m-1299 -7 c6 -4 19 -6 28 -2 9 3 16 1 16 -5 0 -7 10 -9 26 -5 17 4
25 3 21 -3 -4 -6 4 -8 21 -6 26 4 26 4 8 -11 -22 -17 -15 -21 12 -7 16 8 172
-18 212 -36 8 -3 21 -5 28 -4 8 1 19 -2 25 -7 7 -6 24 -9 40 -7 15 2 25 -1 22
-6 -4 -5 9 -6 27 -4 27 4 29 4 13 -5 -16 -8 -13 -9 17 -5 33 5 37 4 33 -15 -2
-11 -6 -24 -10 -29 -3 -6 8 -8 25 -6 36 5 43 -21 8 -28 l-23 -4 23 -8 c28 -9
29 -25 1 -25 -11 0 -17 5 -14 10 6 10 -47 15 -56 5 -4 -3 34 -333 40 -352 1
-2 24 -3 51 -3 63 0 66 -16 3 -19 -26 -1 -49 -3 -51 -5 -10 -11 11 -26 36 -26
15 0 36 -7 46 -15 11 -8 31 -16 45 -16 24 -1 24 -2 -4 -8 -16 -4 -31 -3 -33 1
-2 4 -8 8 -13 8 -6 0 -7 -5 -3 -12 5 -8 0 -9 -17 -3 -13 4 -43 7 -66 7 -24 -1
-43 2 -43 6 0 4 -22 8 -50 8 -83 3 -103 5 -160 16 -30 6 -65 11 -77 10 -13 -1
-23 3 -23 8 0 6 -7 10 -16 10 -14 0 -15 3 -3 18 7 9 10 14 5 10 -13 -11 -37
19 -29 38 4 10 2 15 -3 11 -10 -6 -34 41 -94 182 -34 79 -35 85 -17 76 6 -4 5
-1 -4 7 -11 10 -55 122 -65 168 -1 6 -12 37 -25 68 -5 13 -9 27 -9 32 0 11 59
2 76 -12z m3726 2 c18 -11 41 -20 51 -20 14 0 17 -7 16 -38 l-3 -39 -65 35
c-36 18 -68 36 -70 38 -4 4 28 44 35 44 2 0 18 -9 36 -20z m3101 0 c-3 -11 -9
-20 -13 -20 -4 0 -8 -6 -7 -12 1 -34 -4 -49 -14 -42 -8 4 -9 -1 -4 -16 5 -15
4 -20 -4 -16 -6 4 -9 2 -5 -7 2 -7 -1 -27 -7 -43 -7 -16 -13 -37 -14 -47 -2
-10 -7 -28 -13 -40 -5 -12 -16 -38 -23 -57 -6 -19 -23 -59 -36 -88 -12 -29
-23 -57 -23 -62 0 -6 -4 -10 -9 -10 -5 0 -12 -14 -16 -30 -4 -17 -11 -27 -16
-24 -6 3 -9 0 -8 -7 5 -25 -12 -59 -29 -59 -14 0 -15 -2 -2 -10 12 -7 10 -11
-10 -18 -14 -5 -48 -13 -75 -16 -28 -4 -77 -11 -110 -16 -77 -13 -108 -12
-100 0 3 6 -1 7 -9 4 -9 -3 -16 -10 -16 -15 0 -14 -52 -11 -81 5 -20 10 -29
11 -42 1 -9 -7 -14 -15 -10 -18 3 -4 -7 -6 -23 -6 -18 1 -22 3 -11 6 15 4 16
7 6 19 -11 13 -9 14 14 9 22 -6 26 -4 21 9 -5 12 0 16 17 16 13 0 31 -5 39
-10 13 -8 12 -10 -4 -10 -11 0 -17 -3 -13 -6 15 -15 43 8 45 37 1 17 -1 28 -5
26 -5 -3 -26 -2 -48 3 l-40 7 28 11 c16 7 42 12 58 12 l29 0 0 74 c0 42 4 76
10 78 16 5 23 190 7 200 -9 6 -9 8 1 8 6 0 12 5 12 11 0 20 -33 38 -70 40
l-35 2 40 7 c22 4 47 10 56 14 10 4 20 3 24 -3 3 -6 32 -10 63 -9 37 1 44 2
22 5 -92 9 -83 16 75 48 88 18 163 31 167 29 3 -2 8 1 10 7 2 6 25 12 50 13
25 0 44 4 42 8 -4 5 16 10 108 27 3 0 4 -8 1 -19z m-3728 -10 c10 -11 16 -21
14 -23 -2 -1 -32 -16 -66 -34 l-61 -31 -4 39 c-3 34 -1 39 17 39 11 1 31 7 45
15 33 19 34 18 55 -5z m-2435 -128 c0 -5 -7 -9 -15 -9 -8 0 -12 4 -9 9 3 4 9
8 15 8 5 0 9 -4 9 -8z m5424 -13 c-3 -5 -10 -7 -15 -3 -5 3 -14 -9 -20 -26 -6
-17 -13 -29 -15 -27 -7 7 16 61 29 69 14 9 29 0 21 -13z m143 5 c-3 -3 -12 -4
-19 -1 -8 3 -5 6 6 6 11 1 17 -2 13 -5z m-5521 -40 c-3 -9 -6 -18 -6 -20 0 -2
-7 -4 -15 -4 -16 0 -16 20 0 32 17 13 27 9 21 -8z m5361 -6 c-3 -8 -6 -5 -6 6
-1 11 2 17 5 13 3 -3 4 -12 1 -19z m111 16 c12 -4 22 -10 22 -14 0 -10 -49 0
-56 11 -6 10 2 11 34 3z m62 -19 c0 -8 -7 -15 -15 -15 -16 0 -20 12 -8 23 11
12 23 8 23 -8z m933 -81 c-10 -22 -22 -42 -28 -46 -5 -4 -7 -8 -3 -8 7 0 -17
-71 -47 -135 -7 -16 -16 -42 -20 -56 -6 -25 -13 -28 -81 -38 -41 -6 -91 -11
-110 -11 -31 0 -35 3 -29 18 4 9 24 60 45 112 20 52 45 114 54 136 l17 42 107
14 c59 7 108 13 110 12 2 -1 -5 -19 -15 -40z m-7432 15 c20 -5 39 -17 42 -27
3 -9 25 -65 50 -124 25 -59 48 -122 51 -140 3 -18 3 -28 0 -22 -3 7 -14 10
-25 7 -10 -3 -55 0 -98 7 -87 13 -78 4 -125 125 -8 22 -29 73 -45 114 -17 40
-31 75 -31 78 0 7 137 -7 181 -18z m3079 7 c0 -2 -12 -25 -27 -52 -15 -27 -35
-71 -44 -99 l-16 -50 -11 50 c-27 120 -29 110 30 133 54 21 68 25 68 18z
m1194 -17 c41 -16 55 -26 52 -38 -2 -9 -10 -45 -17 -81 -12 -60 -13 -62 -22
-35 -14 46 -47 117 -69 148 -23 33 -16 33 56 6z m-3264 -19 c8 -5 11 -10 5
-10 -5 0 -17 5 -25 10 -8 5 -10 10 -5 10 6 0 17 -5 25 -10z m2604 -77 c25 -53
27 -55 42 -37 14 18 15 18 4 -3 -6 -13 -14 -23 -18 -23 -7 0 -62 103 -62 115
0 16 12 -2 34 -52z m2717 34 c-10 -9 -11 -8 -5 6 3 10 9 15 12 12 3 -3 0 -11
-7 -18z m-5224 7 c-3 -3 -12 -4 -19 -1 -8 3 -5 6 6 6 11 1 17 -2 13 -5z m5110
0 c-3 -3 -12 -4 -19 -1 -8 3 -5 6 6 6 11 1 17 -2 13 -5z m-2795 -26 c13 -13
17 -18 8 -12 -8 6 -24 16 -35 22 -11 6 -15 12 -8 12 7 0 22 -10 35 -22z m578
12 c8 -5 11 -10 5 -10 -5 0 -17 5 -25 10 -8 5 -10 10 -5 10 6 0 17 -5 25 -10z
m-756 -37 c-26 -38 -29 -86 -10 -138 5 -13 2 -11 -8 5 -27 45 -19 106 22 153
25 28 23 20 -4 -20z m437 14 c-10 -9 -11 -8 -5 6 3 10 9 15 12 12 3 -3 0 -11
-7 -18z m359 -12 c14 -19 14 -19 -2 -6 -10 7 -18 18 -18 24 0 6 1 8 3 6 1 -2
9 -13 17 -24z m-682 8 c-10 -2 -26 -2 -35 0 -10 3 -2 5 17 5 19 0 27 -2 18 -5z
m636 -14 c15 -12 25 -24 21 -27 -3 -3 -11 3 -19 13 -7 10 -33 21 -57 25 -43 7
-44 8 -8 9 23 1 46 -7 63 -20z m-2887 5 c-3 -3 -12 -4 -19 -1 -8 3 -5 6 6 6
11 1 17 -2 13 -5z m2183 -8 c0 -2 -7 -7 -16 -10 -8 -3 -12 -2 -9 4 6 10 25 14
25 6z m140 -40 c0 -12 -5 -7 -19 24 -11 24 -11 24 3 6 9 -11 16 -24 16 -30z
m38 -2 c-3 -14 -5 -12 -10 9 -3 19 -2 25 4 19 6 -6 8 -18 6 -28z m347 -23 c0
-27 -3 -44 -7 -38 -9 15 -10 50 -2 71 3 9 7 16 8 16 0 0 1 -22 1 -49z m107 29
c-18 -17 -20 -25 -12 -40 6 -11 8 -20 6 -20 -3 0 -10 9 -16 20 -8 15 -6 24 10
40 11 11 23 20 27 20 4 0 -3 -9 -15 -20z m-558 1 c4 -5 -3 -7 -14 -4 -23 6
-26 13 -6 13 8 0 17 -4 20 -9z m-45 -56 c0 -5 -4 -3 -9 5 -5 8 -9 22 -9 30 0
16 17 -16 18 -35z m741 -19 c-6 -18 -20 -42 -32 -52 l-22 -19 21 28 c12 15 25
47 29 70 4 23 9 34 12 24 2 -9 -2 -32 -8 -51z m-757 -35 c-4 -6 -53 41 -53 50
0 4 13 -4 28 -19 15 -15 26 -29 25 -31z m164 37 c-3 -8 -6 -5 -6 6 -1 11 2 17
5 13 3 -3 4 -12 1 -19z m-2336 -11 c-10 -9 -11 -8 -5 6 3 10 9 15 12 12 3 -3
0 -11 -7 -18z m-24 -2 c0 -8 -4 -12 -9 -9 -4 3 -8 9 -8 15 0 5 4 9 8 9 5 0 9
-7 9 -15z m2612 -7 c-1 -19 -2 -19 -6 -5 -4 16 -14 18 -79 15 -41 -2 -74 0
-74 5 0 4 36 7 80 7 77 0 80 -1 79 -22z m175 -17 c-2 -3 -12 3 -22 13 -16 17
-16 18 5 5 12 -7 20 -15 17 -18z m-44 -6 c13 -14 21 -25 18 -25 -2 0 -15 11
-28 25 -13 14 -21 25 -18 25 2 0 15 -11 28 -25z m-2779 -8 c-10 -9 -11 -8 -5
6 3 10 9 15 12 12 3 -3 0 -11 -7 -18z m2519 -12 c0 -5 -5 -3 -10 5 -5 8 -10
20 -10 25 0 6 5 3 10 -5 5 -8 10 -19 10 -25z m-2475 15 c3 -6 -1 -7 -9 -4 -18
7 -21 14 -7 14 6 0 13 -4 16 -10z m2253 3 c-10 -2 -26 -2 -35 0 -10 3 -2 5 17
5 19 0 27 -2 18 -5z m590 0 c-10 -2 -26 -2 -35 0 -10 3 -2 5 17 5 19 0 27 -2
18 -5z m-664 -32 c-2 -3 -12 3 -22 13 -16 17 -16 18 5 5 12 -7 20 -15 17 -18z
m386 -31 c-17 -33 -35 -60 -40 -60 -6 0 -10 2 -10 4 0 2 -3 13 -6 23 -6 17 -6
17 7 0 13 -16 17 -13 42 38 15 30 29 55 32 55 3 0 -8 -27 -25 -60z m-317 23
c-7 -2 -19 -2 -25 0 -7 3 -2 5 12 5 14 0 19 -2 13 -5z m247 -13 c6 -11 8 -20
6 -20 -3 0 -10 9 -16 20 -6 11 -8 20 -6 20 3 0 10 -9 16 -20z m353 13 c-7 -2
-21 -2 -30 0 -10 3 -4 5 12 5 17 0 24 -2 18 -5z m-2886 -35 c-3 -8 -6 -5 -6 6
-1 11 2 17 5 13 3 -3 4 -12 1 -19z m5088 -17 c-3 -6 -11 -11 -16 -11 -5 0 -4
6 3 14 14 16 24 13 13 -3z m-35 -11 c0 -5 -5 -10 -11 -10 -5 0 -7 5 -4 10 3 6
8 10 11 10 2 0 4 -4 4 -10z m205 -8 c-3 -3 -11 0 -18 7 -9 10 -8 11 6 5 10 -3
15 -9 12 -12z m-5312 1 c-7 -2 -19 -2 -25 0 -7 3 -2 5 12 5 14 0 19 -2 13 -5z
m151 -35 c6 -4 -18 -7 -54 -6 -56 1 -58 2 -17 5 36 3 47 8 48 21 0 14 2 14 6
2 3 -8 11 -18 17 -22z m5136 21 c11 -8 6 -9 -20 -4 -24 4 -31 3 -21 -3 11 -8
7 -10 -13 -9 -24 2 -25 3 -9 15 20 15 43 15 63 1z m-5276 -10 c-3 -5 -26 -9
-52 -8 -33 1 -40 3 -24 7 36 10 82 10 76 1z m5071 1 c-3 -6 4 -10 17 -11 13 0
17 -3 10 -6 -18 -7 -44 5 -37 17 3 5 8 10 11 10 3 0 2 -4 -1 -10z m-2865 -14
c0 -2 -8 -10 -17 -17 -16 -13 -17 -12 -4 4 13 16 21 21 21 13z m120 -259 l110
-3 -112 0 -113 1 0 110 -1 110 3 -107 4 -107 109 -4z m-93 141 c-2 -18 -4 -6
-4 27 0 33 2 48 4 33 2 -15 2 -42 0 -60z m779 -135 c-4 -9 -28 -13 -83 -13
-43 0 -73 4 -67 8 6 4 14 14 17 22 4 12 6 11 6 -2 1 -14 10 -18 46 -18 33 0
45 4 45 15 0 8 5 15 11 15 6 0 9 -7 5 -15 -3 -8 -1 -15 4 -15 6 0 11 48 12
113 l2 112 3 -104 c2 -58 1 -111 -1 -118z m-519 160 c-3 -10 -5 -2 -5 17 0 19
2 27 5 18 2 -10 2 -26 0 -35z m96 -44 c-4 -4 -6 13 -3 39 l5 47 3 -39 c2 -21
0 -42 -5 -47z m274 59 c-3 -8 -6 -5 -6 6 -1 11 2 17 5 13 3 -3 4 -12 1 -19z
m-530 -50 c-2 -13 -4 -3 -4 22 0 25 2 35 4 23 2 -13 2 -33 0 -45z m530 -10
c-3 -7 -5 -2 -5 12 0 14 2 19 5 13 2 -7 2 -19 0 -25z m-370 0 c-3 -8 -6 -5 -6
6 -1 11 2 17 5 13 3 -3 4 -12 1 -19z m130 -50 c-3 -8 -6 -5 -6 6 -1 11 2 17 5
13 3 -3 4 -12 1 -19z m-147 -38 c0 -31 -4 -40 -17 -40 -13 0 -14 3 -5 12 7 7
12 25 12 40 0 15 2 28 5 28 3 0 5 -18 5 -40z m-1678 -9 c38 -37 23 -97 -27
-107 -45 -8 -74 3 -86 33 -28 73 57 130 113 74z m1938 0 c0 -5 -6 -14 -14 -20
-12 -10 -13 -8 -9 8 5 21 23 30 23 12z m1819 -13 c20 -7 21 -11 10 -24 -27
-33 -131 -106 -139 -98 -4 5 -5 37 -3 72 l5 62 52 -1 c28 -1 62 -6 75 -11z
m-1716 -15 c-7 -2 -21 -2 -30 0 -10 3 -4 5 12 5 17 0 24 -2 18 -5z m-628 -41
c-6 -7 -35 18 -35 31 0 5 9 2 20 -8 11 -10 18 -20 15 -23z m825 18 c-6 -11
-16 -20 -22 -20 -6 0 -3 9 7 20 10 11 20 20 22 20 2 0 -1 -9 -7 -20z m-337
-17 c-45 -2 -122 -2 -170 0 -48 1 -11 3 82 3 94 0 133 -2 88 -3z m-829 -204
l19 -32 13 24 c16 30 18 19 2 -16 -14 -32 -26 -32 -34 0 -11 43 -29 50 -69 25
-19 -12 -35 -19 -35 -17 0 7 63 47 75 47 6 0 19 -14 29 -31z m104 11 c33 -21
34 -21 17 -47 -14 -21 -15 -27 -4 -34 10 -6 5 -9 -15 -9 l-29 0 23 24 c28 31
21 52 -22 71 -18 8 -26 14 -18 15 8 0 30 -9 48 -20z m1340 13 c-10 -2 -26 -2
-35 0 -10 3 -2 5 17 5 19 0 27 -2 18 -5z m72 -18 c16 -8 41 -32 55 -52 20 -30
25 -48 23 -93 l-2 -55 -3 54 c-5 63 -37 117 -85 143 -18 9 -29 17 -25 18 4 0
21 -7 37 -15z m-192 -20 c-15 -14 -31 -33 -37 -42 -5 -10 -12 -15 -16 -11 -7
6 60 78 73 78 4 0 -5 -11 -20 -25z m-1387 -57 c9 -16 6 -18 -33 -16 -37 1 -38
2 -10 5 37 5 38 9 15 37 -17 20 -17 20 0 7 10 -8 23 -23 28 -33z m4061 11 c15
-8 19 -8 14 0 -5 7 2 11 18 11 14 0 26 -2 26 -5 0 -13 -181 -239 -209 -261
-14 -11 -268 -31 -277 -22 -2 3 3 13 12 24 8 10 13 14 10 8 -3 -6 1 -11 8 -11
8 0 12 6 9 13 -6 15 66 96 78 88 5 -3 6 1 3 9 -5 13 9 28 62 65 11 7 12 9 4 5
-13 -6 -13 -4 -1 10 7 9 18 14 24 10 5 -3 8 -2 4 3 -3 5 1 18 9 29 12 16 31
21 97 26 45 3 83 6 85 7 2 1 13 -3 24 -9z m-6410 -10 c56 3 121 -17 114 -34
-3 -8 -2 -14 2 -12 5 1 24 -16 43 -38 18 -22 39 -43 44 -47 6 -4 40 -39 75
-79 l64 -72 -137 5 c-126 5 -140 7 -162 28 -25 24 -34 47 -13 34 7 -4 8 -3 4
5 -4 6 -11 9 -16 6 -12 -7 -81 85 -73 98 3 5 1 7 -4 4 -11 -7 -63 53 -63 73 0
6 -7 13 -15 16 -8 4 -15 11 -15 16 0 7 21 8 58 3 31 -4 74 -7 94 -6z m2588 1
c0 -5 -7 -7 -15 -4 -8 4 -15 8 -15 10 0 2 7 4 15 4 8 0 15 -4 15 -10z m1204
-9 c-21 -13 -35 -32 -43 -58 l-11 -38 5 35 c5 34 44 80 68 80 7 0 -2 -9 -19
-19z m111 -6 c14 -13 25 -30 24 -37 0 -7 -5 -4 -10 8 -6 11 -22 28 -37 37 -15
9 -21 17 -14 17 7 0 24 -11 37 -25z m-3613 -14 c11 -11 10 -13 -1 -6 -9 5 -12
4 -7 -3 4 -7 13 -12 19 -12 7 0 21 -10 31 -22 10 -13 32 -37 48 -54 22 -23 26
-34 17 -39 -8 -6 -10 -4 -4 5 5 9 4 11 -4 6 -17 -11 -3 -26 16 -19 12 5 15 2
10 -9 -4 -12 -1 -14 15 -10 18 4 19 2 9 -16 -9 -18 -8 -23 8 -32 14 -7 21 -6
24 3 3 7 6 5 6 -5 1 -9 -6 -23 -14 -32 -8 -8 -11 -17 -7 -20 5 -3 15 7 21 21
10 21 14 24 21 13 5 -8 6 -18 4 -22 -3 -4 2 -5 12 -1 14 5 15 3 4 -18 -12 -22
-12 -23 3 -10 12 9 17 10 17 2 0 -7 5 -9 11 -6 6 4 13 -2 16 -14 3 -12 10 -18
17 -14 8 4 8 3 0 -6 -6 -7 -18 -13 -27 -15 -8 -1 -22 -7 -30 -14 -11 -10 -17
-9 -28 5 -12 14 -12 16 0 8 10 -5 12 -4 7 3 -4 7 -13 12 -19 12 -17 0 -133
117 -129 131 1 6 -1 8 -6 5 -10 -6 -77 62 -69 71 4 3 -3 11 -14 17 -12 6 -42
34 -66 63 l-45 52 61 -2 c36 -1 65 -8 73 -16z m5777 5 c10 -6 12 -6 7 2 -5 8
0 12 13 12 22 0 20 -4 -24 -54 -6 -6 -32 -37 -59 -68 -40 -48 -51 -56 -67 -48
-11 7 -16 17 -13 28 5 13 4 14 -4 3 -6 -9 -12 -10 -16 -3 -4 6 -13 9 -21 6 -8
-4 -13 -10 -10 -14 3 -5 -1 -11 -7 -13 -10 -4 -10 -6 0 -6 7 -1 15 6 18 14 5
13 11 11 32 -10 24 -25 24 -26 7 -45 -14 -16 -20 -17 -27 -8 -5 9 -8 6 -8 -9
0 -13 -5 -23 -11 -23 -5 0 -7 -4 -4 -10 3 -5 -1 -10 -9 -10 -9 0 -15 -4 -13
-9 3 -12 -42 -51 -59 -51 -8 0 -11 7 -8 18 5 13 4 14 -4 3 -5 -7 -16 -18 -23
-23 -11 -8 -10 -9 4 -4 9 3 17 1 17 -5 0 -6 6 -7 13 -3 7 4 9 3 4 -2 -5 -5
-12 -9 -15 -9 -4 0 -17 -10 -29 -22 -13 -13 -21 -23 -18 -23 3 0 -4 -9 -15
-20 -11 -11 -22 -20 -25 -20 -3 0 -19 -15 -36 -34 -27 -31 -34 -34 -81 -33
-34 1 -53 7 -56 16 -3 8 0 11 6 7 6 -3 13 0 15 6 4 10 8 9 16 -2 5 -8 13 -11
16 -8 4 4 18 3 32 -3 13 -5 22 -5 19 0 -3 4 6 18 20 30 14 12 23 25 19 29 -3
4 -9 2 -13 -4 -4 -6 -15 -13 -25 -17 -10 -4 -15 -11 -12 -17 3 -5 1 -10 -4
-10 -6 0 -11 8 -11 17 0 15 -1 15 -13 -2 -10 -13 -16 -15 -22 -6 -4 8 10 29
39 57 45 43 59 52 54 37 -2 -5 0 -8 3 -8 3 0 13 -6 23 -14 14 -12 16 -12 10 3
-3 9 -10 16 -14 16 -5 0 -8 9 -7 20 1 10 3 17 5 15 2 -2 23 16 47 40 24 24 46
40 50 37 3 -4 3 1 0 10 -4 11 1 20 14 27 11 6 23 20 26 31 7 21 35 28 35 9 0
-5 -3 -9 -7 -7 -5 2 -20 -9 -35 -24 -15 -15 -23 -28 -18 -28 5 0 12 5 15 10 4
6 11 7 17 4 7 -5 8 -2 4 5 -5 8 0 14 14 18 17 5 21 11 17 31 -4 20 5 35 40 71
25 25 43 41 40 36 -3 -6 -1 -17 4 -25 7 -11 8 -6 4 15 -9 58 72 104 124 71z
m-3467 -58 c-4 -4 -8 10 -9 30 -1 37 -1 37 8 7 4 -16 5 -33 1 -37z m1075 -5
c-2 -16 -4 -5 -4 22 0 28 2 40 4 28 2 -13 2 -35 0 -50z m-3081 46 c-59 -9 -86
-19 -50 -19 28 0 43 -32 46 -94 1 -36 6 -52 13 -47 5 4 18 11 28 14 15 6 16 4
7 -13 -8 -16 -7 -24 4 -36 9 -8 21 -14 28 -13 28 3 36 -2 31 -21 -4 -15 0 -20
15 -20 15 0 20 -6 18 -25 0 -14 -4 -25 -8 -25 -5 0 -8 -9 -8 -21 0 -11 -4 -18
-10 -14 -5 3 -6 13 -3 22 4 10 2 14 -5 9 -6 -3 -14 -2 -17 4 -4 6 -1 9 6 8 7
-2 15 6 17 17 3 16 1 18 -9 8 -18 -17 -22 -17 -51 10 -14 12 -34 28 -44 35
-11 7 -12 10 -4 6 8 -4 4 5 -10 18 -14 14 -32 23 -40 20 -13 -5 -13 -3 -1 11
12 15 12 17 -4 11 -14 -6 -16 -4 -10 6 6 10 4 12 -11 6 -10 -4 -15 -4 -11 0 4
4 0 16 -10 26 -15 17 -15 18 0 18 10 0 17 -7 17 -15 0 -8 5 -15 10 -15 14 0
12 11 -6 31 -13 15 -21 16 -36 8 -15 -8 -19 -8 -14 0 4 6 2 11 -4 11 -6 0 -8
5 -4 11 4 8 9 7 15 -2 6 -10 8 -7 6 8 0 12 -5 19 -9 17 -12 -8 -9 11 4 24 8 8
8 12 1 12 -13 0 -25 -28 -17 -41 11 -19 -16 -8 -43 17 -15 14 -21 23 -13 19 9
-4 7 0 -3 9 -17 13 -6 15 115 14 114 0 125 -2 74 -9z m5089 6 c-23 -8 -83 -10
-79 -3 3 4 24 8 47 7 23 0 38 -2 32 -4z m161 -12 c-6 -17 -5 -17 8 0 7 9 18
17 25 17 6 0 3 -9 -7 -21 -54 -66 -86 -98 -93 -93 -5 3 -9 0 -9 -7 0 -6 -8
-18 -17 -26 -11 -9 -12 -12 -3 -7 9 4 12 3 7 -2 -5 -5 -13 -10 -18 -10 -5 -1
-14 -2 -20 -3 -5 0 -7 -6 -3 -13 5 -8 2 -9 -11 -4 -13 5 -15 3 -8 -6 12 -16
-16 -46 -41 -42 -14 2 -15 0 -5 -12 10 -12 9 -13 -5 -8 -9 3 -16 11 -16 17 0
6 -3 7 -6 4 -4 -4 -1 -14 6 -22 9 -11 10 -19 3 -26 -8 -8 -13 -7 -18 2 -6 8
-4 10 5 4 9 -5 11 -4 6 4 -4 6 -11 9 -16 6 -5 -3 -11 -1 -14 3 -8 13 40 55 53
47 6 -3 11 1 11 9 0 8 9 21 20 29 11 8 17 16 14 19 -3 3 2 5 12 5 12 -2 17 6
18 25 1 21 -1 24 -11 16 -10 -8 -13 -7 -13 3 0 11 -2 11 -10 -1 -7 -11 -9 -6
-7 17 2 33 10 42 22 23 3 -5 11 -10 16 -10 6 0 7 5 4 10 -3 6 0 10 7 11 7 0 2
5 -11 10 -18 7 -21 12 -12 23 9 11 9 15 -1 19 -7 3 22 6 66 6 70 1 78 -1 72
-16z m-3542 -54 c21 0 21 -1 1 -8 -32 -13 -45 -2 -44 38 l1 36 10 -32 c8 -23
17 -33 32 -34z m229 11 c7 -6 21 -17 32 -25 11 -8 16 -14 10 -15 -12 0 -74 49
-62 50 4 0 13 -5 20 -10z m-163 -6 c0 -3 -11 -20 -25 -38 -20 -26 -22 -35 -12
-46 10 -12 9 -12 -5 -1 -17 13 -17 15 1 40 10 14 16 32 14 39 -3 6 2 12 11 12
9 0 16 -3 16 -6z m1536 -51 c-35 -30 -94 -31 -127 -3 l-24 20 30 -15 c57 -28
134 -9 136 33 0 13 2 14 6 3 3 -8 -6 -24 -21 -38z m-1399 -28 c32 -30 61 -55
64 -55 13 0 59 42 59 55 0 8 -9 17 -20 20 -11 3 -20 11 -20 16 0 6 14 1 30
-11 17 -12 30 -23 30 -26 0 -8 -65 -63 -75 -64 -5 0 -35 23 -64 50 -30 28 -59
50 -63 50 -4 0 -8 5 -8 10 0 17 8 12 67 -45z m1216 3 c10 -11 16 -22 14 -24
-6 -6 -57 59 -56 72 0 5 6 0 12 -10 7 -11 20 -28 30 -38z m277 33 c0 -6 -12
-23 -26 -38 -28 -30 -28 -29 10 35 9 14 16 16 16 3z m1500 -16 c0 -8 -7 -15
-16 -15 -14 0 -14 3 -4 15 7 8 14 15 16 15 2 0 4 -7 4 -15z m-3070 -30 c-6
-15 -13 -26 -16 -23 -2 3 0 18 6 33 6 15 13 26 16 23 2 -3 0 -18 -6 -33z
m-1253 12 c7 0 11 -5 10 -11 -1 -6 4 -10 11 -8 7 1 12 -4 10 -11 -2 -8 13 -38
33 -68 19 -31 33 -61 31 -67 -5 -16 -88 -15 -101 1 -47 56 -61 76 -61 87 0 6
-5 8 -10 5 -6 -4 -9 -1 -8 7 2 7 -3 12 -10 10 -8 -1 -11 2 -7 8 3 5 1 18 -5
29 -8 16 -6 20 13 24 12 3 36 3 52 0 17 -3 35 -5 42 -6z m4023 -18 c-7 -11 -9
-27 -6 -35 3 -7 2 -13 -2 -13 -21 3 -31 -4 -41 -29 -17 -40 -71 -94 -88 -88
-8 3 -26 6 -39 6 -26 0 -33 27 -12 48 16 16 -4 16 -22 0 -12 -11 -12 -10 0 5
7 10 18 16 25 14 11 -5 42 50 37 66 -1 5 3 5 9 1 8 -4 9 1 4 17 -5 19 -4 21 4
9 10 -13 15 -8 12 13 0 4 28 7 64 7 63 0 65 -1 55 -21z m-3499 -19 c5 0 18
-14 29 -32 l19 -32 -29 -28 c-17 -15 -39 -28 -50 -28 -27 0 -60 35 -60 64 0
28 46 70 68 61 7 -3 18 -5 23 -5z m2098 -6 c13 -12 -8 -10 -29 2 l-25 15 25
-7 c14 -3 27 -8 29 -10z m871 3 c8 -4 26 -8 40 -10 24 -4 43 -37 20 -37 -6 0
-8 -5 -4 -12 4 -6 3 -8 -3 -5 -6 4 -29 -7 -52 -23 -48 -36 -62 -37 -79 -9 -8
12 -9 19 -4 15 5 -3 9 13 10 35 1 23 5 45 8 50 6 10 36 7 64 -4z m-750 -7 c0
-5 -7 -10 -16 -10 -8 0 -12 5 -9 10 3 6 10 10 16 10 5 0 9 -4 9 -10z m-2845
-28 c-3 -3 -11 0 -18 7 -9 10 -8 11 6 5 10 -3 15 -9 12 -12z m4519 1 c-5 -5
-12 -12 -15 -16 -3 -5 -9 -2 -12 7 -5 12 0 16 15 16 12 0 17 -3 12 -7z m-4313
-50 c13 -16 12 -17 -3 -4 -17 13 -22 21 -14 21 2 0 10 -8 17 -17z m4269 -13
c0 -23 4 -24 31 -10 24 13 26 -4 4 -26 -10 -10 -15 -11 -15 -3 0 8 -4 8 -15
-1 -13 -11 -18 -11 -28 0 -9 10 -9 11 0 6 9 -5 11 1 7 24 -4 19 -2 30 5 30 6
0 11 -9 11 -20z m-4770 -12 c0 -7 -5 -20 -11 -28 -9 -13 -10 -12 -5 3 3 9 1
17 -5 17 -6 0 -7 5 -4 10 9 14 25 12 25 -2z m155 2 c3 -5 -1 -10 -9 -10 -9 0
-16 5 -16 10 0 6 4 10 9 10 6 0 13 -4 16 -10z m-538 -33 c7 -5 10 -13 7 -18
-3 -5 0 -9 5 -9 6 0 11 -5 11 -11 0 -5 -5 -7 -12 -3 -7 4 -8 3 -4 -4 4 -6 14
-8 23 -5 12 5 14 3 8 -7 -6 -9 -4 -11 4 -6 8 5 35 -15 73 -53 34 -34 57 -61
52 -61 -6 0 -16 6 -23 13 -11 10 -13 10 -7 0 5 -10 -4 -13 -36 -13 -24 -1 -72
-3 -107 -6 l-65 -5 -52 52 c-29 29 -50 57 -47 62 3 6 2 7 -4 4 -9 -6 -83 63
-83 77 0 6 209 13 230 7 8 -2 21 -8 27 -14z m5707 10 l29 -2 -46 -48 c-28 -28
-52 -45 -59 -41 -6 4 -8 3 -5 -3 4 -6 -12 -32 -36 -57 l-42 -47 -60 5 c-33 2
-89 5 -124 5 l-65 1 34 35 c29 30 36 33 45 21 9 -12 14 -11 35 6 25 19 25 19
2 8 -30 -15 -38 -7 -17 14 9 9 13 16 10 16 -16 0 79 83 101 89 20 5 116 5 198
-2z m-5479 -43 c11 -15 18 -28 15 -28 -3 -1 3 -13 12 -28 12 -18 14 -28 6 -36
-7 -7 -3 -10 16 -8 15 2 30 7 34 11 4 5 -1 5 -10 2 -10 -3 -17 -3 -17 1 3 20
-2 33 -11 27 -5 -3 -10 2 -10 12 1 16 3 15 19 -4 11 -13 24 -23 29 -23 19 0
22 -31 4 -36 -9 -3 -27 -11 -40 -17 -17 -8 -25 -7 -35 3 -10 10 -9 11 2 5 9
-5 12 -4 7 3 -4 7 -11 12 -17 12 -15 0 -68 51 -75 72 -3 10 -10 16 -15 13 -5
-4 -9 1 -9 10 0 9 6 15 12 13 7 -3 19 1 26 9 20 19 35 16 57 -13z m175 11 c-7
-9 -15 -13 -19 -10 -3 3 1 10 9 15 21 14 24 12 10 -5z m-38 -20 c16 -20 23
-23 34 -14 10 8 22 8 45 0 17 -6 35 -8 40 -5 5 3 9 1 9 -4 0 -6 -7 -12 -15
-16 -43 -16 12 -71 61 -61 28 5 28 5 5 -5 -14 -6 -38 -9 -54 -6 -30 5 -50 16
-27 16 7 0 1 11 -14 25 -14 13 -26 31 -26 40 0 8 -5 15 -10 15 -6 0 -10 -6 -9
-12 4 -35 -3 -41 -17 -15 -8 15 -19 25 -24 22 -6 -4 -10 1 -10 9 0 9 -4 16
-10 16 -5 0 -10 5 -10 10 0 17 11 11 32 -15z m4792 13 c-3 -4 -12 -8 -20 -8
-8 0 -14 4 -14 8 0 4 9 8 19 8 11 0 17 -4 15 -8z m-64 -28 c0 -5 5 -10 11 -10
5 0 7 5 3 12 -4 7 -3 8 5 4 13 -8 6 -26 -10 -26 -13 0 -39 -25 -39 -37 0 -13
-38 -43 -55 -43 -8 0 -15 5 -15 11 0 6 7 9 15 6 19 -8 31 13 14 24 -16 10 -9
18 20 24 30 6 42 15 35 27 -4 6 -10 5 -15 -3 -5 -8 -9 -9 -9 -3 0 6 3 14 7 17
10 11 33 8 33 -3z m-4655 -61 c11 -17 -1 -21 -15 -4 -8 9 -8 15 -2 15 6 0 14
-5 17 -11z m4536 -32 c-10 -9 -11 -8 -5 6 3 10 9 15 12 12 3 -3 0 -11 -7 -18z
m-28 6 c-7 -2 -19 -2 -25 0 -7 3 -2 5 12 5 14 0 19 -2 13 -5z m-4580 -10 c3
-5 -16 -9 -41 -10 -37 -1 -41 1 -22 7 33 11 58 12 63 3z m1155 -507 c-7 -8
-17 -12 -22 -9 -4 3 -2 9 5 14 22 13 31 11 17 -5z m343 -9 c-10 -9 -11 -8 -5
6 3 10 9 15 12 12 3 -3 0 -11 -7 -18z m-446 -7 c-3 -5 -12 -10 -18 -10 -7 0
-6 4 3 10 19 12 23 12 15 0z m2650 0 c3 -5 1 -10 -4 -10 -6 0 -11 5 -11 10 0
6 2 10 4 10 3 0 8 -4 11 -10z m-2594 -17 c13 -17 13 -17 -6 -3 -11 8 -22 16
-24 17 -2 2 0 3 6 3 6 0 17 -8 24 -17z m65 5 c4 -7 3 -8 -4 -4 -7 4 -12 2 -12
-5 0 -7 -3 -10 -6 -6 -6 5 3 27 11 27 2 0 7 -5 11 -12z m2361 -10 c-3 -8 -6
-5 -6 6 -1 11 2 17 5 13 3 -3 4 -12 1 -19z m219 7 c-3 -8 0 -15 7 -15 8 0 6
-4 -3 -10 -11 -7 -7 -10 18 -10 20 0 31 4 27 10 -3 6 -1 10 5 10 7 0 9 -7 6
-16 -5 -12 -1 -14 17 -9 17 5 19 4 7 -4 -13 -9 -13 -11 2 -11 24 0 30 -16 13
-30 -13 -11 -14 -10 -9 4 3 9 2 16 -4 16 -6 0 -12 -4 -14 -10 -2 -6 -8 -6 -18
0 -12 8 -12 10 5 10 17 0 17 2 5 10 -22 14 -73 13 -64 -2 4 -7 3 -8 -5 -4 -6
4 -8 12 -5 18 5 8 1 9 -12 5 -18 -7 -18 -7 0 8 19 14 11 21 -17 16 -5 -1 -5 3
-2 9 4 6 13 9 21 6 8 -3 14 -1 14 4 0 6 3 10 6 10 3 0 4 -7 0 -15z m-2745 -2
c-11 -5 -11 -7 0 -15 10 -7 8 -8 -9 -5 -18 4 -22 2 -18 -9 8 -21 -7 -17 -21 6
-11 16 -10 18 2 14 8 -4 15 -2 15 3 0 5 10 9 23 10 12 0 16 -1 8 -4z m2634
-13 c3 -6 -1 -7 -9 -4 -18 7 -21 14 -7 14 6 0 13 -4 16 -10z m-2555 -10 c-8
-5 -19 -10 -25 -10 -5 0 -3 5 5 10 8 5 20 10 25 10 6 0 3 -5 -5 -10z m-132
-21 c10 -16 11 -24 2 -33 -8 -8 -10 -7 -5 7 4 9 3 17 -3 17 -14 0 -33 -26 -25
-33 3 -4 1 -7 -5 -7 -7 0 -12 7 -12 15 0 8 -5 15 -11 15 -6 0 -8 -9 -4 -22 6
-17 4 -20 -9 -15 -9 4 -16 2 -16 -2 0 -5 -14 -14 -30 -20 -22 -7 -29 -7 -24 1
4 6 1 9 -7 6 -8 -3 -13 -11 -11 -17 1 -6 -1 -11 -5 -12 -5 0 -19 -2 -33 -5
-19 -3 -21 -2 -10 6 13 8 12 10 -3 10 -10 0 -15 5 -12 10 10 16 -11 12 -25 -5
-6 -8 -10 -20 -7 -27 4 -8 6 -7 6 5 1 21 21 23 21 2 0 -8 -4 -16 -10 -16 -5
-1 -14 -2 -19 -3 -5 0 -13 -4 -17 -8 -4 -4 -14 -2 -22 5 -13 9 -14 9 -8 0 4
-8 1 -13 -8 -13 -9 0 -16 -5 -16 -11 0 -5 -5 -7 -11 -3 -28 17 5 -53 37 -79
19 -16 32 -32 29 -37 -3 -4 2 -10 10 -14 8 -3 15 -11 15 -18 0 -9 -3 -9 -10 2
-7 11 -8 7 -6 -15 3 -27 21 -40 21 -15 0 6 5 10 10 9 14 -1 42 -18 31 -19 -6
0 -1 -7 10 -15 19 -15 19 -15 0 -30 -11 -8 -15 -15 -9 -15 7 0 15 5 18 10 10
16 25 12 19 -5 -4 -10 -2 -13 8 -10 20 8 42 -20 31 -38 -7 -12 -20 -9 -76 17
-37 18 -65 35 -61 38 3 4 -3 4 -15 1 -12 -3 -21 -1 -21 6 0 6 -3 10 -7 9 -19
-4 -62 15 -56 25 3 5 1 7 -4 4 -9 -6 -61 8 -113 30 -63 26 -150 55 -175 57
-16 2 -31 4 -32 6 -2 1 -7 3 -12 4 -5 0 -12 4 -16 8 -9 9 33 30 45 23 6 -3 10
-1 10 4 0 6 5 11 11 11 5 0 30 9 55 21 25 11 51 18 57 16 7 -2 18 2 25 10 12
11 49 18 75 14 5 -1 6 3 2 9 -7 11 42 33 56 24 5 -3 9 0 9 6 0 6 5 8 10 5 6
-4 7 -11 4 -17 -4 -7 -2 -8 5 -4 6 4 9 11 6 16 -3 4 2 13 11 20 11 10 18 10
26 2 7 -7 8 -15 4 -19 -4 -4 -12 -1 -17 7 -9 13 -10 13 -6 0 6 -24 32 -18 31
8 -1 18 4 22 18 19 11 -3 16 -1 11 5 -4 8 4 9 26 5 20 -4 30 -3 26 3 -10 16 7
12 27 -7 10 -9 21 -13 25 -9 4 4 1 11 -6 15 -7 5 -10 14 -7 20 11 17 26 13 19
-6 -5 -13 -2 -15 12 -10 9 4 25 2 34 -5 13 -10 14 -10 4 2 -15 17 -17 54 -3
45 6 -4 8 -10 5 -15 -3 -5 5 -14 17 -21 20 -11 22 -10 10 3 -10 13 -10 17 3
22 8 3 22 2 32 -1 11 -4 14 -3 9 5 -4 7 -2 12 4 12 6 0 8 5 5 10 -3 6 -2 10 2
10 5 0 14 -10 21 -21z m92 11 c0 -5 -2 -10 -4 -10 -3 0 -8 5 -11 10 -3 6 -1
10 4 10 6 0 11 -4 11 -10z m190 -15 c-7 -8 -16 -15 -21 -15 -5 0 -1 8 9 18 20
22 31 19 12 -3z m2641 8 c13 -16 12 -17 -3 -4 -10 7 -18 15 -18 17 0 8 8 3 21
-13z m-2861 -3 c0 -5 -2 -10 -4 -10 -3 0 -8 5 -11 10 -3 6 -1 10 4 10 6 0 11
-4 11 -10z m804 -8 c3 -5 -1 -9 -9 -9 -8 0 -12 4 -9 9 3 4 7 8 9 8 2 0 6 -4 9
-8z m1726 -2 c0 -5 -2 -10 -4 -10 -3 0 -8 5 -11 10 -3 6 -1 10 4 10 6 0 11 -4
11 -10z m378 1 c11 -6 10 -10 -4 -15 -9 -3 -19 -4 -22 -1 -3 3 1 5 9 5 11 0
11 2 -1 10 -8 5 -10 10 -5 10 6 0 16 -4 23 -9z m-2928 -11 c0 -5 -5 -10 -11
-10 -5 0 -7 5 -4 10 3 6 8 10 11 10 2 0 4 -4 4 -10z m238 -20 c-7 -10 -14 -17
-17 -15 -4 4 18 35 25 35 2 0 -1 -9 -8 -20z m1183 3 c13 -16 12 -17 -3 -4 -10
7 -18 15 -18 17 0 8 8 3 21 -13z m1549 6 c0 -5 5 -7 10 -4 6 3 10 1 10 -4 0
-6 5 -11 11 -11 5 0 7 5 4 10 -3 6 -1 10 4 10 6 0 11 -4 11 -9 0 -6 8 -8 18
-6 10 2 25 -1 33 -6 11 -8 10 -9 -6 -7 -13 2 -19 -2 -17 -11 2 -8 -3 -11 -13
-8 -8 4 -15 2 -15 -2 0 -5 -7 -11 -15 -15 -14 -5 -17 14 -3 24 4 3 -21 6 -55
7 -88 2 -91 2 -83 10 4 5 26 8 49 8 28 0 41 4 40 13 -2 6 2 12 7 12 6 0 10 -5
10 -11z m-1065 -19 c-3 -5 -12 -10 -18 -10 -7 0 -6 4 3 10 19 12 23 12 15 0z
m-975 -4 c0 -2 -7 -7 -16 -10 -8 -3 -12 -2 -9 4 6 10 25 14 25 6z m-896 -17
c-4 -8 4 -9 27 -5 25 4 29 4 14 -3 -14 -7 -15 -10 -5 -10 13 -1 13 -2 0 -11
-8 -5 -19 -10 -25 -10 -5 0 -3 5 5 10 13 8 13 10 -1 10 -9 0 -22 -7 -29 -15
-7 -8 -18 -15 -24 -14 -8 0 -8 2 0 5 7 3 10 13 7 24 -3 12 1 20 14 23 10 3 19
5 21 6 2 0 0 -4 -4 -10z m2738 -2 c21 -7 41 -17 45 -21 4 -4 0 -4 -10 0 -13 5
-16 2 -11 -12 3 -12 3 -15 -3 -8 -10 14 -72 24 -79 12 -3 -4 -13 -8 -22 -8
-12 1 -10 5 8 15 14 7 35 11 48 8 35 -8 26 5 -10 16 -18 5 -26 10 -18 10 8 0
32 -5 52 -12z m373 -11 c6 -6 19 -11 30 -9 11 1 14 0 6 -3 -11 -5 -11 -8 0
-15 10 -6 7 -8 -11 -7 -19 2 -25 -2 -24 -14 1 -10 -2 -18 -7 -18 -5 0 -9 5 -9
11 0 6 -6 9 -14 6 -8 -3 -22 1 -33 8 -17 13 -17 14 0 15 9 0 17 -5 17 -11 0
-5 5 -7 11 -3 8 4 6 10 -6 17 -13 7 -24 6 -36 -1 -19 -12 -49 -6 -49 9 0 5 7
9 16 9 9 0 12 -5 8 -12 -4 -8 -3 -10 2 -5 5 5 10 13 10 18 3 22 5 23 12 11 5
-7 16 -10 26 -6 14 5 15 9 4 16 -9 6 -5 7 12 3 14 -4 30 -12 35 -19z m-563
-28 c-6 -6 -9 0 -9 18 0 23 1 24 9 10 7 -12 7 -21 0 -28z m-2387 13 c16 -19
16 -20 -2 -18 -11 0 -19 8 -19 19 0 22 -1 22 21 -1z m2782 13 c-3 -3 -12 -4
-19 -1 -8 3 -5 6 6 6 11 1 17 -2 13 -5z m-2987 -9 c0 -11 -66 -32 -76 -24 -7
6 -7 -5 0 -36 7 -29 17 -45 29 -49 12 -3 16 -9 11 -17 -4 -8 -3 -10 4 -5 18
11 14 22 -10 34 -20 9 -17 11 25 11 34 1 47 -3 47 -13 0 -10 13 -16 38 -19 25
-2 16 -4 -25 -5 -49 -2 -63 -5 -63 -17 0 -8 -4 -15 -10 -15 -5 0 -6 -7 -3 -17
4 -10 2 -14 -4 -10 -6 4 -14 0 -17 -9 -3 -8 -2 -12 4 -9 6 3 10 2 10 -4 0 -5
-4 -12 -9 -15 -8 -5 -25 -63 -23 -78 1 -3 -4 -11 -11 -17 -10 -7 -18 -5 -30 9
-19 23 -15 25 16 9 20 -9 21 -9 4 4 -14 11 -15 16 -5 21 7 3 2 3 -12 0 -25 -5
-58 17 -59 41 -1 6 -6 10 -13 10 -6 0 -13 6 -16 14 -3 8 0 11 5 8 5 -3 15 -1
23 4 11 7 8 8 -10 5 -18 -3 -33 5 -52 26 -16 16 -28 32 -28 36 0 4 12 15 28
24 20 13 22 18 10 18 -10 0 -18 -4 -18 -9 0 -15 -32 -22 -47 -10 -18 15 -8 25
40 37 27 8 37 7 37 -1 0 -7 5 -6 10 3 8 11 9 8 4 -13 -6 -27 -5 -28 28 -25 29
1 34 5 31 23 -3 12 6 31 22 49 20 22 31 27 51 22 14 -4 23 -3 21 1 -3 5 5 10
19 11 13 1 24 0 24 -3z m133 -8 c3 -7 -3 -13 -14 -13 -13 0 -15 3 -7 13 6 7
12 13 13 13 2 0 5 -6 8 -13z m702 4 c3 -5 2 -12 -3 -15 -5 -3 -9 1 -9 9 0 17
3 19 12 6z m1845 -6 c0 -9 -6 -12 -16 -8 -13 5 -13 7 -2 14 17 11 18 11 18 -6z
m217 -1 c22 -6 40 -43 19 -40 -18 3 -37 17 -32 25 3 3 -3 7 -13 7 -13 0 -16
-6 -13 -26 5 -21 3 -23 -10 -13 -8 7 -18 10 -21 6 -4 -3 -7 0 -7 7 0 14 29 39
45 40 6 0 20 -3 32 -6z m333 -2 c0 -4 -6 -14 -12 -22 -7 -8 -4 -7 7 2 17 14
23 15 45 3 14 -8 33 -14 43 -15 17 0 21 -9 18 -40 -1 -9 4 -6 11 7 l13 22 60
-24 c33 -14 61 -25 62 -25 1 0 0 -8 -3 -17 -4 -13 -3 -14 3 -5 9 12 73 6 73
-7 0 -4 -51 -22 -112 -40 -62 -18 -117 -37 -123 -41 -12 -9 -116 -45 -131 -45
-6 0 -18 -5 -25 -11 -8 -6 -32 -17 -54 -24 -22 -7 -47 -18 -55 -25 -8 -8 -27
-17 -43 -20 -15 -4 -30 -11 -33 -16 -8 -14 -24 -10 -24 6 0 16 69 95 83 95 5
0 5 -5 1 -12 -4 -7 -3 -8 4 -4 6 4 8 14 5 23 -5 12 -3 14 7 8 9 -6 11 -4 5 5
-5 8 6 25 31 48 21 19 40 30 42 23 2 -6 8 -11 14 -11 7 0 6 5 -2 14 -9 12 -7
21 11 45 13 17 27 31 31 31 16 0 21 -33 9 -52 -10 -16 -10 -19 1 -16 23 8 20
47 -6 79 -31 37 -34 54 -7 39 16 -8 21 -6 26 10 6 19 25 28 25 12z m-770 -6
c0 -3 -4 -8 -10 -11 -5 -3 -10 -1 -10 4 0 6 5 11 10 11 6 0 10 -2 10 -4z
m-1707 -31 c-3 -9 -8 -14 -10 -11 -3 3 -2 9 2 15 9 16 15 13 8 -4z m-788 -5
c3 -5 1 -10 -4 -10 -6 0 -11 5 -11 10 0 6 2 10 4 10 3 0 8 -4 11 -10z m123 2
c7 -1 10 -7 7 -12 -4 -6 -19 -8 -33 -6 -15 2 -30 5 -34 5 -5 1 -8 5 -8 9 0 7
28 8 68 4z m2912 -2 c0 -5 -4 -10 -10 -10 -5 0 -10 5 -10 10 0 6 5 10 10 10 6
0 10 -4 10 -10z m-2658 -14 c-3 -6 -7 -15 -8 -21 0 -5 -2 -16 -2 -22 -1 -7 -6
-13 -11 -13 -6 0 -6 12 -1 29 4 16 6 31 4 34 -2 2 3 4 11 4 8 0 11 -5 7 -11z
m2473 4 c3 -6 -1 -7 -9 -4 -18 7 -21 14 -7 14 6 0 13 -4 16 -10z m-317 -22
c-5 -35 -38 -48 -38 -15 0 7 4 7 9 -2 8 -12 11 -9 16 12 9 33 17 36 13 5z
m152 13 c0 -5 -11 -8 -25 -6 -38 4 -43 15 -7 15 18 0 32 -4 32 -9z m279 0 c7
-5 11 -14 7 -19 -4 -7 10 -10 42 -8 48 4 49 3 47 -25 -2 -29 -1 -29 19 -12 21
18 21 18 3 -4 -10 -11 -30 -24 -43 -27 -14 -4 -22 -11 -19 -16 3 -5 -6 -27
-20 -49 -30 -44 -56 -61 -48 -30 3 10 1 19 -4 19 -5 0 -9 -16 -8 -37 0 -22 -5
-38 -14 -41 -10 -3 -12 1 -8 17 3 11 2 21 -3 21 -7 0 -32 52 -32 67 0 4 -3 13
-7 18 -5 6 -11 24 -15 40 -6 29 -6 29 10 10 15 -19 15 -19 8 10 -7 28 -6 29
11 15 17 -13 18 -13 13 0 -3 8 -2 24 3 35 7 18 8 18 8 -5 1 -14 5 -31 10 -39
6 -9 8 0 7 27 -2 42 6 50 33 33z m160 -7 c3 -3 -3 -12 -12 -21 -9 -10 -17 -12
-17 -6 0 6 6 14 13 16 6 3 2 6 -10 6 -15 1 -21 -3 -17 -13 3 -8 0 -17 -7 -22
-9 -5 -10 -2 -6 10 4 10 1 19 -8 22 -29 11 -15 22 23 17 20 -3 39 -7 41 -9z
m-2806 -15 c18 -20 18 -21 -4 -14 -14 5 -19 4 -15 -4 5 -7 1 -8 -10 -4 -11 4
-13 8 -6 11 7 2 12 10 12 18 0 18 2 18 23 -7z m2577 6 c0 -8 -4 -15 -9 -15
-13 0 -22 16 -14 24 11 11 23 6 23 -9z m-80 -9 c0 -8 9 -12 25 -11 14 2 23 0
20 -4 -7 -12 -60 -7 -58 5 1 6 -11 8 -30 5 -31 -4 -31 -5 -7 -12 22 -6 21 -7
-10 -8 l-35 0 24 19 c27 23 71 27 71 6z m-678 -20 c3 3 9 1 12 -5 15 -23 -13
-18 -35 7 -18 20 -19 22 -3 9 11 -9 23 -14 26 -11z m-1962 4 c0 -5 -7 -10 -16
-10 -8 0 -12 5 -9 10 3 6 10 10 16 10 5 0 9 -4 9 -10z m45 0 c-3 -5 -12 -10
-18 -10 -7 0 -6 4 3 10 19 12 23 12 15 0z m313 -15 c-3 -3 -9 2 -12 12 -6 14
-5 15 5 6 7 -7 10 -15 7 -18z m188 0 c1 -8 -3 -19 -10 -24 -8 -7 -12 -4 -13
10 -1 10 3 19 8 19 6 0 7 6 3 13 -4 6 -3 8 1 4 5 -4 10 -14 11 -22z m1650 -10
c-19 -15 -24 -24 -15 -27 9 -3 8 -6 -5 -11 -10 -4 -15 -3 -11 3 12 20 -10 9
-34 -16 -28 -29 -68 -54 -56 -33 6 9 3 10 -11 5 -10 -4 -15 -3 -10 1 4 4 18 8
29 8 13 0 21 5 19 13 -1 8 2 11 7 8 5 -4 13 0 18 8 4 7 23 23 42 34 21 13 28
22 20 25 -8 2 -6 3 4 2 9 -2 17 2 17 8 0 6 3 7 8 3 4 -4 -6 -18 -22 -31z m241
19 c-3 -3 -12 -4 -19 -1 -8 3 -5 6 6 6 11 1 17 -2 13 -5z m-2097 -26 c0 -5 -4
-6 -10 -3 -5 3 -10 1 -10 -6 0 -16 -13 -3 -16 15 -1 9 5 12 17 9 10 -3 19 -10
19 -15z m857 0 c-3 -8 -6 -5 -6 6 -1 11 2 17 5 13 3 -3 4 -12 1 -19z m840 0
c2 -17 0 -19 -7 -8 -5 8 -6 18 -4 22 8 12 10 10 11 -14z m-997 -18 c0 -5 -6
-12 -12 -16 -7 -4 -10 -4 -6 1 4 4 3 14 -4 22 -8 11 -7 12 6 7 9 -3 16 -10 16
-14z m314 4 c5 -14 4 -15 -9 -4 -17 14 -19 20 -6 20 5 0 12 -7 15 -16z m663
-9 c0 -8 -4 -12 -9 -9 -5 3 -6 10 -3 15 9 13 12 11 12 -6z m-1043 -40 c-18
-27 -29 -31 -40 -13 -5 7 -3 8 5 3 8 -4 18 1 27 14 21 30 28 26 8 -4z m146 10
c0 -2 -9 -3 -19 -2 -11 0 -18 5 -15 9 4 6 34 0 34 -7z m277 -2 c0 -9 -4 -10
-14 -2 -7 6 -13 12 -13 14 0 1 6 2 13 2 8 0 14 -6 14 -14z m663 11 c0 -8 -19
-13 -24 -6 -3 5 1 9 9 9 8 0 15 -2 15 -3z m-1748 -39 c-3 -5 -7 -5 -9 2 -3 7
-16 8 -40 3 -19 -5 -52 -6 -72 -3 -34 4 -35 4 -17 -11 18 -14 18 -16 3 -16
-10 0 -20 7 -23 15 -5 12 -8 12 -20 0 -17 -17 -18 -28 -1 -22 6 2 27 -2 46 -9
18 -8 44 -12 57 -10 13 3 24 0 24 -5 0 -5 8 -10 18 -10 9 -1 -1 -5 -23 -9
l-40 -7 40 -2 c44 -1 71 -14 62 -28 -3 -5 3 -9 14 -9 10 0 19 6 19 14 0 7 9
23 20 34 22 24 22 39 0 46 -9 3 -11 -1 -7 -12 5 -13 0 -16 -23 -16 -33 0 -38
15 -17 44 12 16 14 16 14 2 0 -9 -5 -16 -10 -16 -6 0 -8 -2 -5 -5 9 -9 38 7
32 17 -7 11 19 -2 50 -25 19 -14 19 -15 -6 -31 -14 -9 -30 -28 -37 -42 -7 -15
-16 -22 -23 -18 -7 5 -9 2 -5 -9 4 -10 -6 -27 -28 -48 -18 -18 -32 -36 -29
-40 2 -4 0 -10 -6 -14 -5 -3 -22 7 -37 22 -14 15 -23 21 -18 13 6 -11 3 -10
-12 3 -11 9 -25 17 -32 17 -7 0 -9 5 -5 12 5 8 2 9 -9 5 -11 -4 -17 -1 -17 7
0 8 -8 13 -17 12 -12 -1 -18 8 -20 28 -1 15 -5 31 -8 35 -4 3 -5 -3 -4 -14 3
-19 -1 -25 -18 -25 -5 0 -9 18 -10 40 -2 30 2 42 16 49 10 6 21 8 23 5 3 -3 8
4 11 16 3 13 0 20 -9 20 -8 0 -14 -7 -14 -15 0 -18 -26 -20 -36 -3 -5 8 -2 9
9 5 11 -4 17 -1 17 9 0 8 -4 12 -10 9 -5 -3 -10 -2 -10 3 0 5 24 7 53 6 109
-7 172 -5 175 5 2 7 8 6 17 -2 7 -7 10 -16 7 -22z m103 25 c3 -5 1 -10 -4 -10
-6 0 -11 5 -11 10 0 6 2 10 4 10 3 0 8 -4 11 -10z m1848 -7 c-5 -13 -2 -15 11
-10 10 4 15 3 11 -4 -4 -5 -15 -7 -26 -4 -10 4 -27 2 -36 -4 -15 -8 -12 -10
15 -9 18 1 36 -3 40 -7 4 -4 -17 -5 -46 -2 -30 4 -50 2 -47 -3 3 -5 1 -11 -5
-15 -5 -3 -10 -11 -10 -16 0 -6 5 -7 10 -4 6 3 10 1 10 -5 0 -6 5 -8 12 -4 9
6 9 9 1 11 -7 3 -10 10 -7 17 3 9 17 11 49 6 25 -4 45 -3 45 2 0 12 28 10 36
-4 5 -7 2 -8 -7 -3 -8 5 -11 4 -6 0 4 -5 17 -10 28 -12 16 -2 20 1 15 12 -3 9
0 15 8 15 8 0 16 -4 18 -9 2 -5 9 -3 16 5 11 12 8 14 -15 15 -15 1 -32 1 -37
0 -10 -2 -36 19 -36 29 0 4 7 11 16 14 14 5 15 4 5 -8 -10 -12 -5 -16 36 -21
97 -12 93 -9 93 -70 0 -30 -5 -57 -12 -61 -6 -4 -8 -3 -5 2 3 6 -3 11 -14 11
-10 1 -19 -3 -19 -9 0 -7 -4 -7 -13 1 -10 8 -14 7 -14 -3 0 -15 14 -16 35 -3
6 5 12 5 12 0 0 -8 -57 -44 -64 -40 -2 1 -13 -6 -23 -16 -11 -9 -23 -14 -26
-10 -4 3 -7 0 -7 -7 0 -7 -3 -10 -7 -7 -3 4 -12 -1 -18 -10 -11 -15 -14 -12
-25 19 -12 33 -50 70 -50 48 0 -5 4 -10 10 -10 10 0 40 -52 40 -70 0 -23 -22
-8 -35 24 -8 19 -20 40 -27 48 -34 38 -72 82 -64 76 11 -9 35 14 29 29 -3 7
-9 13 -14 13 -4 0 -6 -6 -3 -13 3 -8 -2 -14 -10 -14 -8 0 -12 6 -9 14 4 9 0
11 -13 6 -17 -6 -17 -5 -5 11 10 12 16 14 21 5 6 -8 9 -8 15 1 4 6 13 9 21 6
8 -3 11 0 7 9 -3 8 -10 12 -16 8 -5 -3 -7 -1 -4 4 4 6 17 9 29 6 13 -2 37 5
53 16 17 11 31 20 32 20 1 1 -1 -7 -4 -16z m193 -12 c2 -7 1 -8 -2 -3 -2 4
-23 6 -45 4 -22 -3 -45 0 -51 6 -6 6 9 8 44 6 29 -1 53 -7 54 -13z m-1996 3
c0 -8 -19 -13 -24 -6 -3 5 1 9 9 9 8 0 15 -2 15 -3z m664 -6 c-3 -4 -12 -4
-21 -1 -12 5 -14 3 -8 -7 5 -9 4 -11 -4 -6 -16 10 -4 25 19 23 10 -1 17 -5 14
-9z m307 -5 c13 -16 12 -17 -3 -4 -17 13 -22 21 -14 21 2 0 10 -8 17 -17z
m194 -12 c-3 -2 0 -10 6 -17 7 -9 6 -14 -3 -20 -7 -4 -10 -4 -6 1 4 4 -2 21
-14 37 l-21 30 21 -13 c12 -7 19 -15 17 -18z m-1673 7 c2 -6 2 -24 0 -39 -3
-21 -10 -28 -33 -31 -33 -5 -34 -3 -14 46 15 35 39 48 47 24z m2662 -34 c14
-41 14 -45 0 -40 -9 3 -24 6 -35 6 -16 0 -19 7 -19 40 0 33 3 40 19 40 14 0
24 -13 35 -46z m-2321 21 c-1 -5 -7 -11 -14 -14 -7 -2 -9 1 -5 8 5 7 1 9 -8 5
-9 -3 -16 -1 -16 6 0 6 10 10 23 8 12 -2 21 -7 20 -13z m624 0 c0 -8 -4 -15
-9 -15 -10 0 -11 14 -1 23 9 10 10 9 10 -8z m383 -14 c0 -4 -9 -16 -20 -26
-20 -18 -21 -18 -35 1 -19 25 -18 31 2 43 18 10 53 -2 53 -18z m-1070 9 c13
-8 13 -10 -2 -10 -9 0 -20 5 -23 10 -8 13 5 13 25 0z m1345 -21 c-8 -24 3 -25
22 -1 8 9 12 11 8 4 -4 -7 -2 -18 3 -25 12 -14 -25 -62 -48 -62 -8 0 -14 -8
-14 -17 1 -11 -4 -14 -14 -11 -10 4 -13 2 -8 -5 4 -7 2 -12 -4 -12 -6 0 -8 -5
-5 -10 4 -6 1 -9 -6 -8 -7 2 -13 -1 -14 -7 -1 -21 -16 -34 -32 -28 -12 5 -15
2 -10 -10 4 -11 2 -14 -9 -10 -7 3 -14 1 -14 -5 0 -6 5 -12 11 -14 7 -2 4 -10
-7 -18 -16 -14 -17 -13 -11 4 7 17 6 17 -10 5 -15 -12 -16 -12 -10 5 5 13 3
17 -6 13 -8 -3 -33 14 -57 40 -24 26 -38 43 -32 39 11 -7 55 28 46 37 -3 2 4
7 15 10 14 3 18 1 14 -9 -3 -9 2 -12 16 -9 13 2 21 -1 21 -10 0 -14 -17 -15
-38 -1 -9 5 -20 2 -30 -9 -16 -17 -16 -17 2 -11 10 3 25 1 33 -6 18 -15 52
-18 60 -5 3 5 8 5 12 -2 5 -7 14 -6 29 5 23 16 30 39 10 31 -8 -3 -13 4 -13
19 l0 24 18 -23 c17 -21 18 -21 15 -2 -2 12 3 21 12 21 8 1 23 2 33 3 11 1 15
6 11 13 -4 6 -3 9 2 6 5 -3 15 1 22 8 12 13 10 14 -12 8 -25 -6 -26 -4 -24 29
2 19 7 33 11 30 4 -2 5 -13 2 -24z m-674 -6 c13 -16 12 -17 -3 -4 -17 13 -22
21 -14 21 2 0 10 -8 17 -17z m129 2 c-7 -9 -15 -13 -17 -11 -7 7 7 26 19 26 6
0 6 -6 -2 -15z m436 -18 c2 -12 0 -16 -2 -9 -3 6 -10 9 -15 6 -14 -8 11 -35
25 -27 6 3 8 2 3 -2 -4 -5 -26 -10 -50 -11 -33 -2 -37 0 -19 7 26 10 30 21 5
13 -10 -3 -8 1 5 8 12 8 19 18 15 22 -4 4 -1 6 7 4 9 -2 14 3 12 12 -2 8 0 12
4 7 4 -4 9 -18 10 -30z m-466 -21 c0 -18 -2 -17 -15 8 -19 36 -19 42 0 26 8
-7 15 -22 15 -34z m-42 21 c6 -5 12 -13 12 -20 0 -8 -3 -8 -12 1 -7 7 -19 12
-27 12 -10 0 -12 -3 -5 -8 12 -7 34 -46 34 -58 0 -4 -11 8 -23 27 -32 46 -21
71 21 46z m149 -18 c-4 -15 -2 -19 9 -15 8 3 12 2 9 -3 -7 -13 -43 -10 -41 4
2 14 16 35 23 35 3 0 3 -9 0 -21z m-37 -19 c0 -5 -4 -10 -10 -10 -5 0 -10 5
-10 10 0 6 5 10 10 10 6 0 10 -4 10 -10z m-74 -32 c-3 -29 -21 -35 -22 -8 -1
11 3 17 7 14 5 -3 9 0 9 5 0 6 2 11 4 11 3 0 4 -10 2 -22z m-925 -39 c5 -11
15 -19 22 -17 17 3 57 -20 57 -33 0 -6 -6 -9 -13 -6 -8 3 -14 -1 -14 -9 0 -12
4 -12 24 1 22 15 25 14 50 -12 14 -15 23 -22 18 -14 -5 9 1 7 19 -4 21 -14 25
-22 19 -44 -3 -14 -11 -29 -16 -32 -5 -4 -8 -13 -5 -21 3 -7 -3 -24 -13 -37
-11 -13 -19 -18 -19 -12 0 6 -3 10 -7 9 -16 -3 -43 15 -36 25 3 6 1 7 -5 3
-15 -9 -113 44 -106 56 3 5 0 9 -7 8 -20 -3 -59 11 -59 20 0 4 -11 11 -25 14
-16 4 -23 11 -19 18 4 7 3 8 -4 4 -11 -6 -60 18 -73 37 -3 5 -9 8 -13 8 -19
-3 -27 0 -21 8 3 6 13 10 23 10 9 0 35 4 57 10 29 7 43 7 54 -2 12 -9 13 -9 7
1 -4 6 -5 12 -2 12 2 0 13 3 23 7 15 6 16 4 6 -8 -10 -12 -8 -15 6 -15 12 0
17 5 13 14 -6 17 16 32 35 25 7 -3 18 -14 24 -24z m1136 -3 c-7 -21 -43 -14
-44 8 -2 19 -1 19 8 4 11 -20 29 -24 29 -7 0 5 -4 7 -10 4 -5 -3 -10 1 -10 11
0 14 3 14 15 4 9 -7 14 -18 12 -24z m1293 13 c0 -4 -6 -6 -14 -3 -8 3 -17 1
-21 -5 -4 -7 1 -9 12 -5 16 5 16 4 -1 -10 -11 -9 -15 -16 -10 -16 6 0 19 8 30
18 16 15 27 16 72 9 28 -5 52 -14 52 -20 0 -7 4 -6 10 3 5 8 10 10 10 4 0 -5
13 -9 30 -8 34 2 32 -9 -8 -29 -15 -7 -44 -23 -64 -35 -32 -18 -36 -19 -32 -4
3 10 0 8 -8 -5 -7 -12 -16 -21 -20 -20 -4 1 -16 -6 -28 -15 -11 -10 -20 -15
-20 -11 0 4 -5 2 -12 -5 -14 -14 -32 -16 -23 -3 3 5 1 12 -4 15 -4 3 -8 -4 -7
-16 1 -16 -12 -29 -47 -50 -27 -15 -53 -25 -59 -22 -6 4 -8 2 -5 -3 8 -13 -23
-27 -33 -16 -4 4 -15 34 -25 65 l-18 58 24 20 c13 10 32 22 42 25 9 4 17 11
17 16 0 5 6 9 13 10 6 0 37 17 67 38 50 35 80 42 80 20z m-1440 1 c0 -5 -4
-10 -10 -10 -5 0 -10 5 -10 10 0 6 5 10 10 10 6 0 10 -4 10 -10z m74 -42 c7
-10 21 -18 30 -18 18 0 22 -15 6 -25 -18 -11 -10 -21 19 -23 34 -3 52 16 28
29 -17 10 -12 49 7 49 6 0 17 -10 25 -21 11 -18 11 -23 -1 -31 -10 -8 -9 -9 4
-5 16 6 68 -36 68 -55 0 -5 5 -6 10 -3 16 10 12 -12 -6 -29 -18 -18 -11 -21
17 -6 11 6 18 7 17 3 -4 -13 22 -53 34 -53 7 0 6 6 -3 18 -12 16 -12 16 5 0
28 -25 16 -41 -17 -23 -21 10 -27 11 -24 2 2 -6 12 -14 23 -16 10 -2 22 -8 26
-15 5 -8 11 -7 20 3 11 11 11 13 -1 6 -10 -6 -12 -4 -7 4 6 8 19 0 42 -28 19
-22 59 -65 89 -96 30 -31 55 -63 55 -72 0 -9 3 -14 6 -10 3 3 18 -5 32 -18
l26 -24 -68 -148 c-76 -166 -73 -159 -114 -268 -33 -87 -62 -177 -87 -270 -10
-33 -20 -67 -23 -75 -3 -8 -6 -19 -6 -25 -1 -5 -8 -38 -15 -73 l-14 -63 -70 3
-70 3 -28 110 c-16 61 -34 132 -40 158 -6 27 -24 85 -40 129 -17 45 -28 87
-25 95 3 8 2 12 -3 8 -7 -4 -26 34 -36 75 -7 25 -57 137 -96 214 -23 43 -39
86 -36 96 3 13 0 17 -10 13 -11 -4 -14 -2 -11 8 3 8 10 13 16 12 6 -2 9 3 6
11 -3 7 7 23 22 35 15 11 23 21 19 21 -4 0 -2 7 5 15 7 8 17 12 23 8 6 -3 7
-1 3 5 -4 7 3 23 16 36 13 14 31 36 41 51 11 15 25 24 33 21 7 -3 16 0 20 6 4
7 3 8 -4 4 -19 -11 -14 9 9 38 19 25 40 35 38 19 -3 -21 2 -33 13 -27 7 4 8 3
4 -4 -5 -9 -13 -9 -26 -2 -29 16 -37 12 -12 -6 13 -9 30 -13 38 -10 9 3 30 -9
52 -30 20 -20 30 -32 22 -28 -13 7 -13 5 -2 -8 9 -11 10 -18 2 -23 -5 -3 -10
-13 -10 -21 0 -20 -25 -45 -35 -36 -5 4 -5 2 -2 -4 4 -7 0 -27 -7 -46 -14 -34
-14 -37 30 -112 24 -43 41 -82 38 -87 -3 -5 -1 -9 4 -9 5 0 15 -13 22 -30 7
-16 15 -30 19 -30 8 0 87 153 83 163 -1 4 2 7 8 7 6 0 10 7 10 16 0 9 5 12 12
8 8 -5 9 -2 5 9 -3 9 -2 19 3 22 18 11 10 25 -42 75 -28 27 -48 50 -43 50 5 0
-8 18 -29 39 -24 25 -36 45 -33 55 3 8 1 18 -5 22 -7 4 -8 3 -4 -4 10 -17 -9
-15 -23 1 -6 8 -7 18 -3 22 4 5 2 5 -5 1 -17 -10 -25 11 -13 34 6 12 7 20 1
20 -5 0 -11 -7 -13 -16 -2 -12 -8 -10 -28 12 -14 15 -20 24 -13 20 6 -3 15 -2
18 4 4 6 3 10 -2 9 -20 -3 -44 2 -40 9 3 4 -19 32 -49 62 -30 30 -54 59 -54
63 0 5 14 6 30 3 17 -2 30 -1 30 3 0 14 52 5 64 -11z"/>
<path d="M4291 7509 c0 -15 6 -32 14 -39 16 -13 21 0 6 16 -5 5 -11 18 -14 29
-4 16 -5 14 -6 -6z"/>
<path d="M4515 7419 c-4 -6 -4 -13 -1 -16 3 -4 6 -1 6 6 0 8 7 11 15 7 8 -3
15 -1 15 4 0 13 -27 13 -35 -1z"/>
<path d="M4725 7410 c-8 -13 3 -30 18 -30 8 0 7 3 -2 9 -7 5 -10 14 -7 20 4 6
5 11 2 11 -3 0 -8 -4 -11 -10z"/>
<path d="M4520 7365 c0 -2 8 -9 18 -14 14 -7 19 -6 19 3 0 6 -9 13 -19 13 -10
1 -18 0 -18 -2z"/>
<path d="M4400 7340 c0 -6 7 -10 15 -10 8 0 15 2 15 4 0 2 -7 6 -15 10 -8 3
-15 1 -15 -4z"/>
<path d="M3240 7267 c0 -15 27 -43 34 -36 3 2 -4 15 -15 28 -13 16 -19 18 -19
8z"/>
<path d="M2946 7235 c7 -18 6 -19 -11 -5 -17 14 -17 14 -4 -7 12 -19 15 -20
22 -7 6 10 5 20 -3 27 -8 9 -9 7 -4 -8z"/>
<path d="M3200 7221 c0 -6 4 -13 10 -16 6 -3 7 1 4 9 -7 18 -14 21 -14 7z"/>
<path d="M3237 7219 c7 -7 15 -10 18 -7 3 3 -2 9 -12 12 -14 6 -15 5 -6 -5z"/>
<path d="M3008 7182 c4 -11 1 -13 -8 -7 -9 5 -11 4 -6 -4 6 -9 11 -9 22 0 18
15 18 26 0 26 -8 0 -12 -6 -8 -15z"/>
<path d="M3066 7025 c4 -8 8 -15 10 -15 2 0 4 7 4 15 0 8 -4 15 -10 15 -5 0
-7 -7 -4 -15z"/>
<path d="M5780 7305 c-16 -17 -17 -22 -6 -22 8 0 13 4 11 8 -6 9 20 31 27 23
3 -3 8 -1 12 4 11 18 -24 8 -44 -13z"/>
<path d="M5806 7288 c3 -5 10 -6 15 -3 13 9 11 12 -6 12 -8 0 -12 -4 -9 -9z"/>
<path d="M5749 7263 c0 -5 -2 -18 -3 -30 -1 -12 1 -20 4 -18 8 5 11 55 4 55
-2 0 -4 -3 -5 -7z"/>
<path d="M5995 7140 c-3 -6 1 -7 9 -4 18 7 21 14 7 14 -6 0 -13 -4 -16 -10z"/>
<path d="M5928 7108 c-10 -24 31 -37 44 -14 5 9 14 13 20 10 7 -4 8 -2 4 4 -7
12 -36 5 -36 -9 0 -16 -18 -9 -22 9 -3 16 -4 16 -10 0z"/>
<path d="M6275 7030 c-3 -6 1 -7 9 -4 18 7 21 14 7 14 -6 0 -13 -4 -16 -10z"/>
<path d="M6180 6915 c-10 -12 -10 -15 1 -15 9 -1 5 -8 -10 -21 -23 -19 -23
-20 -5 -34 24 -18 29 -18 43 -1 17 20 21 50 9 67 -8 11 -9 11 -4 -3 3 -10 1
-20 -3 -23 -11 -6 -23 23 -15 36 9 15 -2 10 -16 -6z m29 -58 c-8 -14 -13 -16
-25 -7 -17 15 -10 29 15 27 16 -1 18 -5 10 -20z"/>
<path d="M6250 6864 c0 -8 5 -12 10 -9 6 4 8 11 5 16 -9 14 -15 11 -15 -7z"/>
<path d="M6526 6854 c-11 -8 -16 -14 -10 -14 13 0 39 18 34 24 -3 2 -14 -2
-24 -10z"/>
<path d="M6125 6820 c-3 -5 -1 -10 4 -10 6 0 11 5 11 10 0 6 -2 10 -4 10 -3 0
-8 -4 -11 -10z"/>
<path d="M6256 6817 c3 -10 9 -15 12 -12 3 3 0 11 -7 18 -10 9 -11 8 -5 -6z"/>
<path d="M6190 6809 c0 -5 5 -7 10 -4 6 3 10 8 10 11 0 2 -4 4 -10 4 -5 0 -10
-5 -10 -11z"/>
<path d="M6156 6723 l-66 -86 37 -14 c21 -7 43 -13 50 -13 12 0 93 113 93 131
0 14 -32 69 -41 69 -3 0 -36 -39 -73 -87z"/>
<path d="M6400 6781 c0 -5 5 -13 10 -16 6 -3 10 -2 10 4 0 5 -4 13 -10 16 -5
3 -10 2 -10 -4z"/>
<path d="M6460 6741 c0 -6 4 -13 10 -16 6 -3 7 1 4 9 -7 18 -14 21 -14 7z"/>
<path d="M6196 6601 c-16 -17 -16 -19 0 -25 9 -4 20 -3 23 0 3 4 0 9 -7 11
-10 4 -10 8 -1 19 17 21 5 17 -15 -5z"/>
<path d="M6460 6591 c0 -12 5 -21 10 -21 6 0 10 6 10 14 0 8 -4 18 -10 21 -5
3 -10 -3 -10 -14z"/>
<path d="M2759 6973 c-13 -16 -12 -17 4 -4 9 7 17 15 17 17 0 8 -8 3 -21 -13z"/>
<path d="M2806 6891 c-4 -5 -2 -20 4 -33 8 -21 9 -20 7 10 -1 34 -3 37 -11 23z"/>
<path d="M2495 6850 c3 -5 8 -10 11 -10 2 0 4 5 4 10 0 6 -5 10 -11 10 -5 0
-7 -4 -4 -10z"/>
<path d="M2460 6830 c-23 -7 -23 -8 -3 -9 12 -1 25 4 28 9 3 6 5 10 3 9 -2 -1
-14 -5 -28 -9z"/>
<path d="M2536 6725 c-3 -9 -6 -22 -5 -28 0 -7 5 -1 10 12 5 13 8 26 5 28 -2
2 -6 -3 -10 -12z"/>
<path d="M2139 6519 c-12 -24 3 -50 16 -28 6 8 4 10 -5 4 -10 -6 -12 -4 -7 9
4 10 7 20 7 22 0 3 5 2 12 -2 7 -4 8 -3 4 4 -10 16 -14 15 -27 -9z"/>
<path d="M2112 6460 c0 -14 2 -19 5 -12 2 6 2 18 0 25 -3 6 -5 1 -5 -13z"/>
<path d="M2190 6455 c0 -8 4 -15 10 -15 5 0 7 7 4 15 -4 8 -8 15 -10 15 -2 0
-4 -7 -4 -15z"/>
<path d="M2130 6433 c0 -15 19 -37 26 -31 3 4 -1 14 -10 23 -9 9 -16 13 -16 8z"/>
<path d="M2350 6354 c-17 -10 -20 -14 -8 -14 23 0 48 11 48 21 0 12 -9 10 -40
-7z"/>
<path d="M2066 6307 c3 -10 9 -15 12 -12 3 3 0 11 -7 18 -10 9 -11 8 -5 -6z"/>
<path d="M2186 6215 c-3 -8 -1 -15 4 -15 6 0 10 7 10 15 0 8 -2 15 -4 15 -2 0
-6 -7 -10 -15z"/>
<path d="M2024 6139 c-4 -8 1 -9 16 -4 14 5 20 3 16 -3 -4 -6 2 -8 16 -4 21 5
21 6 2 13 -28 11 -42 10 -50 -2z"/>
<path d="M6890 6416 c0 -2 9 -6 20 -9 11 -3 18 -1 14 4 -5 9 -34 13 -34 5z"/>
<path d="M6783 6385 c-3 -9 -3 -18 -1 -21 3 -3 8 4 11 16 6 23 -1 27 -10 5z"/>
<path d="M6891 6374 c0 -11 3 -14 6 -6 3 7 2 16 -1 19 -3 4 -6 -2 -5 -13z"/>
<path d="M6777 6336 c-4 -10 -1 -13 8 -9 8 3 12 9 9 14 -7 12 -11 11 -17 -5z"/>
<path d="M6962 6270 c0 -14 2 -19 5 -12 2 6 2 18 0 25 -3 6 -5 1 -5 -13z"/>
<path d="M6981 6214 c0 -11 3 -14 6 -6 3 7 2 16 -1 19 -3 4 -6 -2 -5 -13z"/>
<path d="M1873 5750 c1 -15 11 -29 25 -35 12 -5 20 -16 17 -22 -2 -7 0 -13 5
-13 5 0 9 11 8 25 -2 17 -8 25 -21 25 -9 0 -22 10 -27 23 -10 22 -10 22 -7 -3z"/>
<path d="M1660 5694 c-17 -9 -20 -14 -9 -14 9 0 22 7 29 15 15 18 13 18 -20
-1z"/>
<path d="M1720 5586 c0 -7 7 -13 15 -13 8 0 15 4 15 8 0 4 -7 9 -15 13 -9 3
-15 0 -15 -8z"/>
<path d="M1660 5263 c-15 -8 -19 -13 -10 -14 8 0 34 -3 58 -5 26 -3 42 -1 42
6 0 6 -11 8 -27 4 -19 -4 -24 -3 -15 4 23 16 -19 20 -48 5z"/>
<path d="M1517 5185 c-5 -11 0 -15 16 -15 12 0 18 4 12 8 -5 4 -13 11 -16 15
-4 4 -9 1 -12 -8z"/>
<path d="M1578 5183 c7 -3 16 -2 19 1 4 3 -2 6 -13 5 -11 0 -14 -3 -6 -6z"/>
<path d="M7215 5810 c-3 -6 1 -7 9 -4 18 7 21 14 7 14 -6 0 -13 -4 -16 -10z"/>
<path d="M7181 5796 c-8 -10 -8 -16 1 -24 10 -8 13 -4 13 14 0 28 1 28 -14 10z"/>
<path d="M7150 5775 c0 -8 4 -15 10 -15 5 0 7 7 4 15 -4 8 -8 15 -10 15 -2 0
-4 -7 -4 -15z"/>
<path d="M7086 5675 c4 -8 10 -15 14 -15 4 0 10 7 14 15 4 10 -1 15 -14 15
-13 0 -18 -5 -14 -15z"/>
<path d="M7283 5365 c7 -7 14 -10 17 -6 3 3 9 9 13 12 4 4 -3 7 -17 7 -19 0
-22 -3 -13 -13z"/>
<path d="M7330 5376 c0 -2 7 -7 16 -10 8 -3 12 -2 9 4 -6 10 -25 14 -25 6z"/>
<path d="M7411 5258 c5 -10 12 -18 14 -18 2 0 3 8 2 18 0 10 -7 19 -13 19 -9
0 -10 -5 -3 -19z"/>
<path d="M7438 5177 c-3 -19 -2 -25 4 -19 6 6 8 18 6 28 -3 14 -5 12 -10 -9z"/>
<path d="M6753 5459 c-58 -27 -75 -42 -55 -51 4 -1 25 -25 47 -52 l39 -50 14
45 c35 114 40 139 29 138 -7 0 -40 -14 -74 -30z"/>
<path d="M2225 5449 c-28 -17 -35 -29 -35 -65 0 -60 87 -97 129 -55 24 24 28
77 8 104 -15 22 -76 31 -102 16z"/>
<path d="M2330 4561 c-52 -14 -53 -101 -1 -119 55 -19 100 7 101 59 0 44 -50
74 -100 60z"/>
<path d="M1448 4433 c7 -3 16 -2 19 1 4 3 -2 6 -13 5 -11 0 -14 -3 -6 -6z"/>
<path d="M1505 4430 c-19 -8 -19 -9 3 -9 12 -1 22 4 22 9 0 6 -1 10 -2 9 -2 0
-12 -4 -23 -9z"/>
<path d="M1543 4426 c0 -8 6 -12 13 -9 7 2 21 0 32 -6 12 -7 29 -7 48 -1 l29
10 -31 -4 c-17 -3 -35 -1 -40 3 -18 17 -51 22 -51 7z"/>
<path d="M1626 4384 c-4 -9 -4 -19 -1 -22 2 -3 7 3 11 12 4 9 4 19 1 22 -2 3
-7 -3 -11 -12z"/>
<path d="M1251 4104 c0 -11 3 -14 6 -6 3 7 2 16 -1 19 -3 4 -6 -2 -5 -13z"/>
<path d="M1700 3910 c0 -5 5 -10 10 -10 6 0 10 5 10 10 0 6 -4 10 -10 10 -5 0
-10 -4 -10 -10z"/>
<path d="M7755 4501 c-3 -5 -2 -12 3 -15 5 -3 9 1 9 9 0 17 -3 19 -12 6z"/>
<path d="M7488 4453 c6 -2 18 -2 25 0 6 3 1 5 -13 5 -14 0 -19 -2 -12 -5z"/>
<path d="M7368 4423 c7 -3 16 -2 19 1 4 3 -2 6 -13 5 -11 0 -14 -3 -6 -6z"/>
<path d="M7735 4069 c-4 -6 -5 -12 -2 -15 2 -3 7 2 10 11 7 17 1 20 -8 4z"/>
<path d="M2602 3628 c-7 -7 -12 -27 -12 -45 0 -27 5 -35 26 -44 28 -10 64 -3
76 15 12 18 9 56 -6 72 -18 17 -68 18 -84 2z"/>
<path d="M6334 3611 c-7 -8 -4 -103 4 -99 16 7 111 83 111 90 1 7 -108 16
-115 9z"/>
<path d="M7476 3173 c-6 -14 -5 -15 5 -6 7 7 10 15 7 18 -3 3 -9 -2 -12 -12z"/>
<path d="M7606 3098 c3 -5 10 -6 15 -3 13 9 11 12 -6 12 -8 0 -12 -4 -9 -9z"/>
<path d="M7415 3061 c-3 -5 -2 -12 3 -15 5 -3 9 1 9 9 0 17 -3 19 -12 6z"/>
<path d="M1623 3038 c0 -13 1 -17 4 -10 4 10 8 10 21 0 12 -9 11 -6 -2 10 -11
12 -20 22 -20 22 -1 0 -2 -10 -3 -22z"/>
<path d="M1535 3260 c3 -5 8 -10 11 -10 2 0 4 5 4 10 0 6 -5 10 -11 10 -5 0
-7 -4 -4 -10z"/>
<path d="M1635 3220 c3 -5 8 -10 11 -10 2 0 4 5 4 10 0 6 -5 10 -11 10 -5 0
-7 -4 -4 -10z"/>
<path d="M1655 3180 c2 -27 10 -33 12 -10 1 11 -2 22 -6 24 -4 3 -7 -4 -6 -14z"/>
<path d="M1714 3163 c10 -18 -4 -39 -14 -23 -5 7 -7 2 -7 -14 0 -14 4 -26 10
-26 6 0 7 3 4 7 -4 3 1 15 10 25 14 15 14 21 3 31 -10 9 -11 9 -6 0z"/>
<path d="M1720 3103 c0 -4 5 -15 10 -23 8 -13 10 -13 10 2 0 9 -4 20 -10 23
-5 3 -10 3 -10 -2z"/>
<path d="M1750 3025 c18 -19 35 -33 38 -31 4 5 -58 66 -66 66 -3 0 9 -16 28
-35z"/>
<path d="M1887 2949 c7 -7 15 -10 18 -7 3 3 -2 9 -12 12 -14 6 -15 5 -6 -5z"/>
<path d="M7329 3253 c-13 -16 -12 -17 4 -4 9 7 17 15 17 17 0 8 -8 3 -21 -13z"/>
<path d="M7396 3245 c4 -8 8 -15 10 -15 2 0 4 7 4 15 0 8 -4 15 -10 15 -5 0
-7 -7 -4 -15z"/>
<path d="M7340 3235 c-7 -9 -8 -15 -2 -15 5 0 12 7 16 15 3 8 4 15 2 15 -2 0
-9 -7 -16 -15z"/>
<path d="M7363 3215 c-17 -19 -16 -30 0 -16 8 6 17 8 21 4 4 -4 4 0 0 10 -7
20 -6 20 -21 2z"/>
<path d="M7316 3202 c-2 -4 -1 -14 4 -22 7 -11 9 -9 7 8 -1 24 -3 26 -11 14z"/>
<path d="M7260 3170 c-9 -6 -10 -10 -3 -10 6 0 15 5 18 10 8 12 4 12 -15 0z"/>
<path d="M7297 3153 c-12 -18 21 -23 35 -5 11 15 11 16 -4 4 -13 -10 -17 -10
-20 0 -3 8 -6 9 -11 1z"/>
<path d="M7160 2985 c-7 -8 -9 -15 -6 -15 4 0 14 7 22 15 9 8 11 15 6 15 -5 0
-15 -7 -22 -15z"/>
<path d="M7095 2970 c-3 -6 1 -7 9 -4 18 7 21 14 7 14 -6 0 -13 -4 -16 -10z"/>
<path d="M7080 2909 c0 -5 5 -7 10 -4 6 3 10 8 10 11 0 2 -4 4 -10 4 -5 0 -10
-5 -10 -11z"/>
<path d="M1780 3220 c0 -5 5 -10 10 -10 6 0 10 5 10 10 0 6 -4 10 -10 10 -5 0
-10 -4 -10 -10z"/>
<path d="M1970 3029 c0 -5 5 -7 10 -4 6 3 10 8 10 11 0 2 -4 4 -10 4 -5 0 -10
-5 -10 -11z"/>
<path d="M7124 3189 c-11 -18 14 -35 29 -20 6 7 8 12 2 11 -22 -5 -29 1 -15
10 9 6 10 10 3 10 -6 0 -15 -5 -19 -11z"/>
<path d="M2436 3098 c19 -34 97 -138 102 -139 25 -5 58 -6 64 -2 7 4 -14 42
-66 120 -18 29 -27 33 -64 33 -32 0 -41 -3 -36 -12z"/>
<path d="M6455 3102 c-6 -4 -29 -37 -52 -74 -38 -61 -40 -68 -23 -73 22 -7 70
4 70 15 0 5 20 34 44 67 24 32 42 61 39 65 -5 10 -65 10 -78 0z"/>
<path d="M2988 3059 c-21 -12 -24 -49 -6 -67 29 -29 88 -10 88 27 0 46 -39 65
-82 40z"/>
<path d="M5964 3065 c-3 -7 -4 -31 -2 -54 l3 -41 53 32 c28 18 51 37 49 42 -2
5 -25 15 -51 21 -38 10 -49 10 -52 0z"/>
<path d="M1690 2910 c0 -5 5 -10 11 -10 5 0 7 5 4 10 -3 6 -8 10 -11 10 -2 0
-4 -4 -4 -10z"/>
<path d="M1800 2856 c0 -2 8 -10 18 -17 15 -13 16 -12 3 4 -13 16 -21 21 -21
13z"/>
<path d="M1660 2790 c-9 -6 -10 -10 -3 -10 6 0 15 5 18 10 8 12 4 12 -15 0z"/>
<path d="M7211 2908 c-14 -23 -14 -23 8 -4 22 20 25 26 13 26 -4 0 -13 -10
-21 -22z"/>
<path d="M7088 2783 c7 -3 16 -2 19 1 4 3 -2 6 -13 5 -11 0 -14 -3 -6 -6z"/>
<path d="M1945 2893 c4 -14 2 -23 -4 -23 -6 0 -11 5 -11 12 0 6 -2 9 -5 6 -3
-3 -3 -13 1 -22 4 -12 10 -14 19 -6 6 5 15 7 18 3 4 -3 7 -1 7 5 0 7 0 14 0
17 0 3 -3 5 -6 4 -4 0 -11 5 -16 13 -6 9 -7 6 -3 -9z"/>
<path d="M1980 2830 c0 -6 7 -10 15 -10 8 0 15 2 15 4 0 2 -7 6 -15 10 -8 3
-15 1 -15 -4z"/>
<path d="M2185 2860 c4 -6 11 -8 16 -5 14 9 11 15 -7 15 -8 0 -12 -5 -9 -10z"/>
<path d="M2930 2140 c0 -5 5 -10 11 -10 5 0 7 5 4 10 -3 6 -8 10 -11 10 -2 0
-4 -4 -4 -10z"/>
<path d="M2860 2130 c0 -6 7 -10 15 -10 8 0 15 2 15 4 0 2 -7 6 -15 10 -8 3
-15 1 -15 -4z"/>
<path d="M2730 1959 c0 -4 5 -11 10 -14 6 -4 7 -12 4 -18 -4 -7 -3 -9 1 -4 14
12 13 44 -2 44 -7 0 -13 -4 -13 -8z"/>
<path d="M2847 1839 c7 -7 15 -10 18 -7 3 3 -2 9 -12 12 -14 6 -15 5 -6 -5z"/>
<path d="M2906 1771 c9 -9 34 -9 34 -1 0 5 -9 8 -20 7 -10 -1 -17 -3 -14 -6z"/>
<path d="M3120 2109 c0 -5 5 -7 10 -4 6 3 10 8 10 11 0 2 -4 4 -10 4 -5 0 -10
-5 -10 -11z"/>
<path d="M2982 2060 c-14 -23 -16 -44 -3 -35 5 3 11 -3 13 -12 3 -10 5 1 6 25
0 23 0 42 -1 42 -1 0 -8 -9 -15 -20z"/>
<path d="M3020 1958 c0 -4 4 -8 9 -8 6 0 12 4 15 8 3 5 -1 9 -9 9 -8 0 -15 -4
-15 -9z"/>
<path d="M2945 1871 c-3 -6 5 -15 17 -21 21 -10 21 -10 6 3 -10 8 -15 17 -11
20 3 4 4 7 0 7 -3 0 -8 -4 -12 -9z"/>
<path d="M6303 2043 c9 -2 14 -9 11 -15 -4 -7 -2 -8 4 -4 20 12 13 26 -10 25
-18 -1 -19 -2 -5 -6z"/>
<path d="M6481 2023 c-1 -17 16 -25 25 -12 4 7 3 9 -4 5 -5 -3 -13 0 -15 6 -4
9 -6 10 -6 1z"/>
<path d="M6271 1998 c0 -9 -9 -22 -18 -27 -10 -6 -13 -10 -8 -11 21 0 37 18
32 36 -4 16 -5 16 -6 2z"/>
<path d="M6157 1819 c7 -7 15 -10 18 -7 3 3 -2 9 -12 12 -14 6 -15 5 -6 -5z"/>
<path d="M6065 1769 c-4 -6 -5 -12 -2 -15 2 -3 7 2 10 11 7 17 1 20 -8 4z"/>
<path d="M6096 1976 c6 -15 4 -17 -6 -11 -9 6 -11 4 -5 -4 5 -9 10 -10 18 -2
8 8 7 14 -2 24 -10 10 -11 8 -5 -7z"/>
<path d="M5968 1938 c-3 -15 -1 -25 3 -22 5 3 9 1 9 -5 0 -5 -4 -13 -10 -16
-5 -3 -10 -11 -10 -18 0 -6 7 -2 15 9 10 15 12 30 6 50 l-8 29 -5 -27z"/>
<path d="M6006 1911 c3 -7 0 -18 -7 -23 -11 -8 -10 -9 4 -4 9 3 17 1 17 -5 0
-6 5 -7 10 -4 6 3 10 1 10 -5 0 -6 5 -8 11 -4 8 4 5 10 -7 17 -11 6 -25 18
-32 26 -8 9 -10 10 -6 2z"/>
<path d="M6050 1910 c-13 -8 -12 -10 3 -10 9 0 17 5 17 10 0 12 -1 12 -20 0z"/>
<path d="M3360 1770 c0 -5 5 -10 11 -10 5 0 7 5 4 10 -3 6 -8 10 -11 10 -2 0
-4 -4 -4 -10z"/>
<path d="M3526 1747 c3 -10 9 -15 12 -12 3 3 0 11 -7 18 -10 9 -11 8 -5 -6z"/>
<path d="M3355 1740 c-3 -6 1 -7 9 -4 18 7 21 14 7 14 -6 0 -13 -4 -16 -10z"/>
<path d="M3406 1725 c10 -8 23 -15 28 -15 6 0 1 7 -10 15 -10 8 -23 15 -28 15
-6 0 -1 -7 10 -15z"/>
<path d="M3545 1720 c-3 -5 -1 -10 4 -10 6 0 11 5 11 10 0 6 -2 10 -4 10 -3 0
-8 -4 -11 -10z"/>
<path d="M5406 1783 c-13 -33 19 -42 67 -19 24 12 39 24 33 28 -6 4 -16 2 -22
-3 -8 -7 -14 -6 -17 3 -3 9 -12 6 -31 -11 -14 -14 -26 -19 -26 -13 0 7 5 12
10 12 6 0 10 5 10 10 0 16 -17 11 -24 -7z"/>
<path d="M5540 1736 c-24 -11 -38 -22 -32 -24 6 -2 22 4 34 12 12 9 30 16 40
16 9 0 19 4 22 8 9 15 -20 9 -64 -12z"/>
<path d="M5565 1710 c-3 -6 1 -7 9 -4 18 7 21 14 7 14 -6 0 -13 -4 -16 -10z"/>
<path d="M5516 1692 c-3 -5 1 -9 9 -9 8 0 15 4 15 9 0 4 -4 8 -9 8 -6 0 -12
-4 -15 -8z"/>
<path d="M4577 1678 c2 -5 14 -6 25 -2 13 4 18 2 14 -4 -3 -6 -1 -14 5 -17 7
-5 10 0 7 11 -2 13 -12 19 -30 19 -15 1 -24 -3 -21 -7z"/>
<path d="M4636 1652 c-13 -13 -17 -13 -33 -1 -16 12 -15 11 1 -9 18 -21 20
-21 38 -5 18 16 18 16 12 -3 -6 -16 -4 -16 19 5 15 14 27 25 27 26 0 10 -52
-1 -64 -13z"/>
<path d="M3273 1697 c0 -8 6 -14 14 -14 9 0 10 4 2 14 -6 7 -12 13 -14 13 -1
0 -2 -6 -2 -13z"/>
<path d="M3400 1636 c0 -2 8 -10 18 -17 15 -13 16 -12 3 4 -13 16 -21 21 -21
13z"/>
<path d="M3376 1612 c-2 -4 4 -8 14 -8 10 0 16 4 14 8 -3 4 -9 8 -14 8 -5 0
-11 -4 -14 -8z"/>
<path d="M3435 1520 c-4 -6 -14 -9 -24 -6 -12 5 -11 2 3 -9 11 -8 25 -15 30
-15 6 0 5 4 -3 9 -11 7 -11 9 0 13 8 3 11 8 8 12 -4 4 -10 2 -14 -4z"/>
<path d="M5820 1666 c0 -2 7 -7 16 -10 8 -3 12 -2 9 4 -6 10 -25 14 -25 6z"/>
<path d="M5648 1653 c7 -3 16 -2 19 1 4 3 -2 6 -13 5 -11 0 -14 -3 -6 -6z"/>
<path d="M5610 1630 c0 -5 5 -10 11 -10 5 0 7 5 4 10 -3 6 -8 10 -11 10 -2 0
-4 -4 -4 -10z"/>
<path d="M5550 1610 c-9 -6 -10 -10 -3 -10 6 0 15 5 18 10 8 12 4 12 -15 0z"/>
<path d="M5560 1510 c-9 -6 -10 -10 -3 -10 6 0 15 5 18 10 8 12 4 12 -15 0z"/>
<path d="M4279 1648 c11 -11 24 -17 29 -14 6 3 13 -1 16 -10 4 -10 2 -13 -7
-9 -6 4 -4 0 6 -8 10 -8 26 -24 35 -35 l18 -21 13 21 c7 11 8 17 2 13 -6 -3
-11 0 -11 7 0 11 -2 11 -9 0 -6 -10 -10 -10 -20 1 -15 18 -3 50 16 43 8 -4 11
-1 7 5 -3 6 -15 8 -26 6 -11 -3 -21 0 -25 9 -4 12 -8 12 -19 -3 -10 -13 -13
-14 -9 -3 4 11 -1 16 -15 17 -19 2 -19 1 -1 -19z"/>
<path d="M4506 1598 c4 -6 0 -16 -9 -23 -15 -10 -13 -12 11 -11 25 1 27 3 17
23 -5 13 -14 23 -18 23 -5 0 -5 -5 -1 -12z"/>
<path d="M4475 1479 c-10 -15 3 -25 16 -12 7 7 7 13 1 17 -6 3 -14 1 -17 -5z"/>
<path d="M4563 1450 c-2 -20 2 -30 12 -30 23 0 26 17 7 39 l-17 22 -2 -31z"/>
<path d="M4535 1429 c-4 -6 -5 -12 -2 -15 2 -3 7 2 10 11 7 17 1 20 -8 4z"/>
<path d="M4648 1423 c7 -3 16 -2 19 1 4 3 -2 6 -13 5 -11 0 -14 -3 -6 -6z"/>
<path d="M4685 1410 c3 -5 8 -10 11 -10 2 0 4 5 4 10 0 6 -5 10 -11 10 -5 0
-7 -4 -4 -10z"/>
<path d="M4273 1398 c-15 -20 -25 -38 -20 -38 3 0 12 11 21 25 17 26 16 35 -1
13z"/>
<path d="M4650 1400 c0 -5 5 -10 11 -10 5 0 7 5 4 10 -3 6 -8 10 -11 10 -2 0
-4 -4 -4 -10z"/>
<path d="M4295 1381 c-3 -5 -2 -12 3 -15 5 -3 9 1 9 9 0 17 -3 19 -12 6z"/>
<path d="M4414 1376 c1 -8 5 -18 8 -22 4 -3 5 1 4 10 -1 8 -5 18 -8 22 -4 3
-5 -1 -4 -10z"/>
<path d="M4700 1386 c0 -2 7 -7 16 -10 8 -3 12 -2 9 4 -6 10 -25 14 -25 6z"/>
<path d="M4540 1371 c0 -6 4 -13 10 -16 6 -3 7 1 4 9 -7 18 -14 21 -14 7z"/>
<path d="M4760 1343 c0 -6 8 -17 18 -24 16 -13 16 -13 2 6 -8 11 -16 22 -17
24 -2 2 -3 0 -3 -6z"/>
<path d="M4586 1295 c4 -8 8 -15 10 -15 2 0 4 7 4 15 0 8 -4 15 -10 15 -5 0
-7 -7 -4 -15z"/>
</g>
</svg>
