<?xml version="1.0" standalone="no"?>
<!DOCTYPE svg PUBLIC "-//W3C//DTD SVG 20010904//EN"
 "http://www.w3.org/TR/2001/REC-SVG-20010904/DTD/svg10.dtd">
<svg version="1.0" xmlns="http://www.w3.org/2000/svg"
 width="370.000000pt" height="370.000000pt" viewBox="0 0 370.000000 370.000000"
 preserveAspectRatio="xMidYMid meet">

<g transform="translate(0.000000,370.000000) scale(0.100000,-0.100000)"
fill="#000000" stroke="none">
<path d="M1857 3570 c-7 -17 -18 -70 -82 -405 -25 -132 -54 -285 -65 -341
l-20 -101 115 -192 116 -192 -38 -46 -37 -45 -33 37 c-40 46 -40 55 -8 103 14
20 25 43 25 50 0 16 -30 62 -40 62 -11 0 -90 -143 -90 -162 0 -17 132 -209
145 -211 12 -1 155 192 155 210 0 6 -45 95 -100 197 l-100 187 15 62 c32 123
36 139 40 135 2 -2 15 -47 29 -100 l26 -97 -21 -35 c-22 -38 -21 -66 4 -100
13 -18 18 -15 71 57 l56 76 -15 88 c-9 48 -29 162 -45 253 -80 457 -95 531
-103 510z"/>
<path d="M2395 3168 c-44 -28 -82 -51 -84 -53 -1 -2 16 -40 40 -84 l43 -81
-96 -98 -96 -97 8 -40 c4 -22 19 -91 34 -154 l26 -114 -22 -28 c-13 -15 -40
-48 -62 -73 l-38 -46 7 -79 7 -79 46 -6 c26 -3 77 -8 115 -12 55 -5 67 -9 67
-24 0 -16 -7 -17 -60 -13 -60 6 -60 6 -60 -21 0 -29 4 -32 73 -41 38 -5 47
-10 47 -26 0 -18 -6 -20 -57 -17 l-58 3 0 -30 c0 -30 1 -30 58 -33 48 -3 57
-6 57 -22 0 -16 -7 -18 -62 -17 l-63 2 -3 -41 -3 -41 102 -7 c58 -4 106 -3
111 2 14 14 23 324 10 348 -9 17 -35 26 -122 45 l-110 23 0 33 c0 30 3 33 29
33 23 0 30 -5 33 -22 4 -32 58 -39 58 -8 0 29 43 24 48 -5 4 -22 29 -45 49
-45 8 0 13 12 13 33 0 28 7 36 58 69 55 35 175 94 274 134 27 10 48 22 48 26
0 4 -21 48 -47 99 l-47 93 -15 -50 c-8 -27 -16 -51 -17 -53 -2 -2 -23 4 -48
12 -24 8 -47 13 -50 9 -3 -3 -6 -23 -6 -45 l0 -39 -67 6 c-38 4 -81 9 -98 12
l-30 5 22 -19 c12 -11 36 -31 53 -46 l31 -26 -42 -50 -42 -50 -81 6 c-45 4
-83 8 -85 10 -7 6 69 114 80 114 6 0 24 -8 40 -17 32 -19 35 -46 5 -51 -14 -3
-17 0 -13 11 11 28 -31 32 -53 5 -31 -36 -25 -46 31 -50 49 -3 53 -1 80 32 16
19 29 37 29 40 0 3 -40 29 -88 58 l-89 53 -11 77 c-13 80 -15 132 -7 132 2 0
16 -5 30 -12 28 -12 33 -28 10 -28 -11 0 -15 -11 -15 -39 0 -22 4 -42 8 -45 5
-3 30 17 57 44 l49 49 -19 34 -18 34 52 70 c28 39 51 76 51 82 0 6 -25 48 -56
93 l-55 81 28 31 c48 52 66 76 62 80 -2 2 -40 -19 -84 -46z"/>
<path d="M1253 3162 c26 -26 47 -54 47 -62 -1 -8 -27 -53 -60 -100 -50 -72
-57 -87 -46 -100 63 -72 116 -147 116 -162 0 -25 -32 -85 -88 -170 -44 -67
-62 -82 -62 -53 0 20 -9 19 -45 -5 -41 -27 -45 -26 -45 19 0 49 -8 55 -54 36
-19 -8 -39 -15 -44 -15 -5 0 -16 24 -23 53 l-15 52 -47 -93 c-26 -50 -47 -96
-47 -100 0 -5 33 -21 73 -37 89 -35 175 -77 249 -124 51 -32 58 -40 58 -68 0
-37 -1 -37 34 -24 14 6 26 19 28 33 4 30 38 37 45 8 8 -30 57 -24 61 8 3 17
10 22 33 22 26 0 29 -3 29 -33 l0 -33 -110 -23 c-60 -13 -114 -29 -119 -35
-22 -29 -16 -332 8 -359 4 -4 53 -4 109 -1 l102 7 0 31 c0 52 -11 60 -74 52
-51 -6 -56 -4 -56 13 0 17 8 20 58 23 57 3 57 3 60 36 l3 33 -58 -3 c-47 -2
-58 0 -61 14 -2 13 7 18 45 23 69 9 73 12 73 41 l0 27 -65 -7 c-55 -6 -65 -4
-65 9 0 21 8 23 124 34 54 6 102 14 106 18 4 4 11 42 14 83 l6 75 -93 110
c-52 61 -100 110 -109 109 -16 -1 -138 -93 -138 -104 0 -8 39 -61 51 -70 11
-8 109 1 109 10 0 5 -11 21 -23 36 -26 30 -62 28 -50 -2 4 -12 1 -15 -13 -12
-31 6 -28 35 5 52 16 9 34 16 39 16 11 0 88 -108 81 -114 -2 -2 -41 -6 -86
-10 l-81 -6 -41 46 c-23 26 -41 50 -41 54 0 4 24 27 53 51 28 24 88 75 132
114 44 38 102 89 129 111 l48 41 -101 107 c-55 58 -101 111 -101 117 0 6 19
42 42 81 34 57 39 71 27 79 -44 29 -160 89 -171 89 -7 0 9 -22 35 -48z"/>
<path d="M1025 2938 c-23 -61 -75 -225 -75 -235 0 -9 13 -8 50 7 28 11 53 20
55 20 2 0 5 -28 7 -62 l3 -63 46 3 c43 3 47 2 53 -22 9 -36 22 -33 50 13 42
66 42 83 3 143 -35 53 -163 200 -179 206 -4 2 -10 -2 -13 -10z"/>
<path d="M2602 2890 c-97 -109 -259 -327 -249 -336 3 -3 49 -6 104 -7 l98 -2
3 38 3 37 41 -6 41 -7 -5 62 c-2 33 -4 61 -3 61 1 0 27 -9 58 -19 32 -11 57
-17 57 -13 0 19 -79 247 -87 249 -4 1 -32 -24 -61 -57z m-57 -191 c9 -29 -31
-72 -59 -63 -30 9 -30 9 1 48 32 41 49 45 58 15z"/>
<path d="M116 2793 c-3 -21 -6 -56 -6 -79 0 -38 4 -43 63 -87 l62 -46 6 57 7
57 -54 58 c-30 32 -54 62 -54 68 0 5 -4 9 -9 9 -4 0 -11 -17 -15 -37z"/>
<path d="M3560 2822 c0 -5 -25 -36 -56 -71 l-56 -62 7 -54 6 -54 59 42 c33 23
62 50 66 60 8 24 -6 147 -17 147 -5 0 -9 -4 -9 -8z"/>
<path d="M265 2604 c-7 -65 -2 -211 11 -320 5 -43 11 -54 32 -63 13 -7 26 -10
29 -8 2 3 -1 33 -7 68 -5 35 -10 127 -10 205 0 136 -1 141 -24 163 l-24 23 -7
-68z"/>
<path d="M3403 2650 c-22 -17 -23 -26 -23 -142 0 -67 -5 -160 -12 -206 -6 -45
-9 -85 -6 -88 3 -2 17 0 30 7 22 10 26 20 32 76 6 62 9 363 4 369 -2 1 -13 -6
-25 -16z"/>
<path d="M115 2554 c4 -38 8 -74 10 -81 4 -11 95 -63 110 -63 3 0 5 29 5 64
l0 64 -51 37 c-81 58 -81 58 -74 -21z"/>
<path d="M3538 2597 c-79 -64 -76 -59 -83 -130 l-7 -68 60 30 c49 25 60 35 66
62 8 44 8 129 -1 129 -5 0 -20 -11 -35 -23z"/>
<path d="M3329 2594 c-16 -20 -124 -92 -241 -163 -78 -47 -88 -56 -88 -81 0
-22 -7 -33 -29 -44 -31 -17 -41 -13 -41 16 0 23 -7 23 -47 -2 l-33 -20 0 -97
c0 -54 -3 -122 -7 -152 l-6 -54 29 7 c39 10 54 24 54 52 0 28 25 54 51 54 14
0 19 -7 19 -29 l0 -29 113 44 c61 25 139 57 172 73 l61 28 12 109 c14 128 16
304 3 304 -5 0 -15 -7 -22 -16z m-329 -373 c0 -24 -6 -31 -31 -40 -41 -14 -39
-15 -39 18 0 23 6 32 28 39 40 15 42 15 42 -17z"/>
<path d="M340 2489 c0 -62 5 -152 12 -201 l12 -90 49 -25 c58 -29 270 -113
286 -113 6 0 11 11 11 25 0 17 5 25 18 25 28 0 40 -13 47 -52 6 -29 13 -39 37
-47 47 -17 49 -15 43 42 -3 28 -7 97 -9 152 -5 97 -6 101 -33 117 -38 24 -53
22 -53 -6 0 -23 -2 -24 -30 -15 -25 9 -30 16 -30 43 0 31 -6 37 -112 101 -62
38 -140 88 -173 112 -32 24 -63 43 -67 43 -4 0 -8 -50 -8 -111z m420 -289 c0
-28 -1 -29 -30 -19 -24 9 -30 17 -30 39 0 28 1 29 30 19 24 -9 30 -17 30 -39z"/>
<path d="M3503 2393 c-50 -26 -51 -27 -58 -80 -4 -30 -4 -57 -1 -60 9 -9 86
29 96 47 9 17 25 120 19 119 -2 0 -27 -12 -56 -26z"/>
<path d="M134 2393 c4 -9 10 -37 13 -61 6 -41 9 -45 50 -63 25 -10 48 -17 51
-15 4 2 5 29 4 58 -4 54 -4 55 -48 76 -55 27 -79 29 -70 5z"/>
<path d="M872 2153 c3 -76 8 -145 12 -154 4 -10 60 -37 129 -63 149 -57 141
-55 145 -31 2 14 -21 43 -73 95 -41 41 -75 78 -75 81 0 4 32 20 70 35 47 18
70 33 70 43 0 12 -40 34 -132 74 -73 31 -137 57 -142 57 -4 0 -6 -62 -4 -137z
m123 22 c0 -23 -5 -31 -21 -33 -30 -4 -48 21 -34 48 18 33 55 23 55 -15z"/>
<path d="M2678 2232 c-111 -48 -128 -59 -128 -79 0 -28 6 -28 64 -3 l46 19 0
-32 c0 -18 3 -55 6 -82 l6 -51 -63 -26 c-61 -24 -64 -28 -67 -62 l-3 -36 48
18 c26 11 87 34 135 52 63 23 88 38 93 53 4 12 9 82 12 155 5 108 3 132 -8
131 -8 0 -71 -26 -141 -57z m77 -62 c-7 -30 -8 -31 -26 -14 -25 22 -24 33 4
43 28 11 30 9 22 -29z"/>
<path d="M1566 2235 c-3 -9 -6 -32 -6 -51 0 -32 2 -34 33 -33 68 1 72 10 24
57 -36 36 -45 41 -51 27z"/>
<path d="M2075 2210 c-44 -45 -39 -60 23 -60 32 0 32 0 32 50 0 28 -4 50 -8
50 -4 0 -26 -18 -47 -40z"/>
<path d="M2583 2123 c-46 -23 -44 -46 2 -37 34 6 35 5 35 -23 0 -26 -6 -32
-40 -46 -37 -14 -50 -30 -32 -40 4 -3 31 6 61 19 51 23 53 25 47 55 -3 17 -6
44 -6 60 0 34 -17 37 -67 12z"/>
<path d="M1071 2098 l-44 -20 59 -59 c43 -44 60 -55 62 -43 2 9 -10 30 -27 48
-17 18 -31 35 -31 39 0 5 14 13 30 18 32 12 41 40 13 38 -10 0 -38 -10 -62
-21z"/>
<path d="M1580 2076 c-55 -29 -69 -41 -88 -81 -14 -30 -18 -45 -10 -42 7 3 46
20 86 38 63 29 76 31 93 20 12 -7 23 -10 25 -8 9 9 -18 107 -29 107 -7 -1 -41
-16 -77 -34z"/>
<path d="M2026 2098 c-16 -51 -23 -98 -15 -98 5 0 18 5 28 12 16 10 32 6 98
-24 43 -20 79 -35 81 -33 2 1 -7 23 -19 48 -20 40 -31 50 -91 76 -78 35 -77
35 -82 19z"/>
<path d="M1810 2043 c-19 -31 -27 -55 -23 -68 10 -36 53 -115 62 -115 9 0 61
110 61 128 0 15 -53 101 -62 102 -5 0 -21 -21 -38 -47z"/>
<path d="M1120 2070 c-13 -8 -12 -13 8 -32 l22 -22 0 32 c0 34 -5 38 -30 22z"/>
<path d="M2573 2067 c-25 -11 -31 -37 -10 -37 7 0 22 6 33 14 26 20 8 38 -23
23z"/>
<path d="M1550 1951 l-85 -38 3 -44 c2 -24 17 -96 34 -159 16 -63 32 -124 35
-136 4 -18 -3 -23 -71 -38 -42 -10 -82 -16 -90 -13 -14 6 -48 85 -60 144 -7
31 -6 32 34 43 23 6 48 10 56 8 12 -2 43 -69 54 -114 0 -1 -9 -4 -21 -7 -17
-5 -24 1 -37 34 -10 26 -21 39 -34 39 -23 0 -23 -17 2 -75 19 -45 22 -47 53
-42 17 3 44 10 58 15 l26 10 -28 84 c-15 45 -28 91 -28 101 -1 21 -39 22 -143
5 l-70 -11 5 -36 c6 -46 83 -244 105 -270 17 -20 18 -20 129 13 62 18 115 35
119 38 3 3 -6 44 -20 89 -14 46 -28 105 -31 130 l-7 46 37 7 c20 4 47 12 59
17 21 10 22 13 12 59 -6 27 -14 51 -17 55 -4 3 -23 -2 -43 -11 -26 -13 -36
-24 -36 -42 0 -31 34 -26 38 6 5 33 32 28 32 -6 0 -26 -5 -30 -45 -39 l-45
-10 -1 28 c-1 16 -2 34 -3 41 -1 6 21 25 47 41 l48 29 31 -28 31 -29 -7 27
c-10 44 -25 78 -33 78 -5 0 -46 -18 -93 -39z"/>
<path d="M2026 1943 c-9 -25 -14 -48 -11 -51 2 -2 15 8 28 23 l24 28 51 -28
c49 -26 52 -31 52 -67 0 -41 -6 -44 -69 -32 -27 6 -32 11 -29 32 4 35 26 39
38 8 12 -33 30 -34 30 -1 0 32 -65 69 -80 46 -11 -18 -22 -90 -15 -101 3 -4
28 -14 56 -20 l52 -13 -6 -51 c-3 -28 -17 -87 -31 -131 -14 -43 -24 -81 -22
-82 2 -2 48 -17 104 -32 55 -16 109 -32 121 -36 19 -6 26 2 55 67 40 88 73
183 78 223 3 29 2 30 -67 42 -38 8 -85 12 -104 11 -32 -3 -34 -5 -55 -78 -12
-41 -26 -85 -30 -97 -6 -19 -2 -25 30 -38 31 -13 84 -21 84 -12 0 1 9 26 19
54 20 55 19 63 -11 63 -11 0 -18 -7 -18 -19 0 -28 -32 -63 -48 -52 -12 7 -11
18 4 66 l18 57 44 -6 c24 -3 48 -9 54 -12 15 -9 2 -76 -28 -138 l-25 -53 -59
14 c-62 14 -110 30 -110 36 0 2 9 29 19 60 23 65 61 235 61 269 0 19 -14 29
-89 61 -49 20 -91 37 -94 37 -3 0 -12 -21 -21 -47z"/>
<path d="M1916 1914 c-10 -30 -16 -58 -13 -60 3 -3 19 14 37 36 33 41 33 42
13 61 -19 19 -19 19 -37 -37z"/>
<path d="M1732 1948 c-19 -19 -15 -32 23 -68 40 -38 42 -34 18 33 -18 50 -22
54 -41 35z"/>
<path d="M895 1914 c12 -65 53 -226 73 -284 l19 -55 121 -3 c114 -2 122 -1
122 16 0 13 -29 39 -85 77 -47 32 -88 61 -90 65 -3 4 22 29 55 54 48 38 58 51
51 64 -5 10 -58 33 -128 56 -65 21 -124 41 -131 44 -10 4 -12 -4 -7 -34z m133
-82 c4 -30 -26 -42 -44 -17 -10 14 -11 22 -2 32 16 20 42 12 46 -15z"/>
<path d="M2671 1909 c-128 -44 -141 -52 -141 -85 0 -22 4 -24 55 -24 52 0 55
-1 50 -22 -3 -13 -9 -50 -13 -83 l-7 -60 -69 -5 c-57 -4 -70 -8 -76 -25 -4
-11 -6 -23 -3 -27 2 -5 56 -8 119 -8 l115 0 16 38 c17 41 83 297 83 325 0 21
9 23 -129 -24z m69 -47 c0 -5 -7 -17 -15 -28 -15 -19 -15 -19 -30 0 -12 16
-12 22 -2 28 16 10 47 10 47 0z"/>
<path d="M281 1913 c0 -5 10 -35 22 -68 21 -57 24 -60 62 -66 22 -4 41 -6 42
-5 2 2 -5 27 -15 57 -15 43 -26 57 -53 71 -37 18 -59 22 -58 11z"/>
<path d="M3349 1900 c-28 -15 -39 -29 -48 -62 -7 -24 -15 -49 -18 -56 -4 -10
4 -12 33 -6 51 9 58 16 73 66 7 24 15 51 17 61 7 22 -11 21 -57 -3z"/>
<path d="M410 1865 c0 -24 80 -224 96 -240 16 -16 34 -20 34 -7 0 4 -18 53
-40 110 -22 56 -40 109 -40 117 0 8 -9 19 -19 25 -26 13 -31 13 -31 -5z"/>
<path d="M3253 1872 c-7 -5 -26 -46 -42 -93 -16 -46 -36 -101 -45 -121 -17
-39 -9 -56 16 -35 14 10 83 170 103 235 7 23 -8 29 -32 14z"/>
<path d="M493 1831 c3 -16 22 -72 43 -124 41 -107 31 -101 169 -117 133 -15
169 -14 161 6 -3 9 -9 26 -12 39 -5 20 -3 23 16 18 12 -3 29 -21 37 -39 14
-29 40 -51 49 -41 1 1 -11 51 -28 110 -28 98 -33 107 -55 107 -21 0 -24 -4
-21 -32 2 -27 -1 -33 -16 -33 -12 0 -22 12 -30 34 l-11 35 -140 28 c-76 15
-146 30 -153 33 -11 4 -13 -1 -9 -24z"/>
<path d="M3120 1838 c-41 -9 -108 -23 -149 -30 -72 -13 -75 -14 -86 -48 -8
-24 -18 -35 -31 -35 -16 0 -18 6 -16 33 3 30 1 33 -19 30 -18 -2 -27 -18 -50
-93 -16 -49 -29 -98 -29 -108 0 -28 21 -15 43 26 12 24 26 37 39 37 20 0 21
-9 3 -52 -6 -15 -1 -18 29 -18 55 0 225 20 250 29 15 6 31 36 59 114 22 57 37
111 35 118 -2 12 -16 11 -78 -3z"/>
<path d="M1732 1793 c-151 -103 -141 -302 20 -384 51 -26 68 -24 68 7 0 14 -4
23 -10 19 -5 -3 -10 1 -10 9 0 9 8 16 19 16 15 0 21 -8 24 -37 l4 -38 1 38 c2
33 5 38 24 35 12 -2 24 -9 26 -17 3 -10 0 -12 -12 -8 -12 5 -16 0 -16 -18 0
-19 5 -25 23 -26 12 0 16 -3 9 -6 -10 -4 -8 -11 9 -29 32 -34 49 -31 49 11 0
20 -5 35 -11 35 -7 0 3 10 22 23 111 75 131 222 43 326 -45 54 -144 93 -144
56 0 -9 6 -12 15 -9 8 4 15 1 15 -5 0 -6 -11 -11 -24 -11 -18 0 -26 7 -29 23
l-4 22 -2 -22 c-1 -16 -7 -23 -21 -23 -11 0 -20 5 -20 11 0 5 5 7 10 4 6 -3
10 1 10 9 0 25 -42 19 -88 -11z m138 -72 c-16 -31 -27 -33 -44 -6 l-16 25 35
0 c32 0 35 -2 25 -19z m-102 -13 c16 -16 15 -53 -2 -67 -8 -7 -27 -11 -43 -9
-22 2 -29 9 -31 31 -2 16 -1 35 2 43 7 17 57 19 74 2z m230 0 c16 -16 15 -53
-2 -67 -23 -19 -70 -10 -74 14 -2 18 -2 18 8 3 14 -22 43 -23 61 -2 9 11 10
20 2 32 -15 24 -45 27 -60 6 -11 -15 -13 -16 -13 -2 0 27 56 38 78 16z m-21
-24 c9 -23 -11 -38 -26 -20 -13 16 -7 36 10 36 5 0 12 -7 16 -16z m-97 -22 c0
-4 -7 -18 -16 -31 l-17 -24 -18 24 c-26 34 -24 39 16 39 19 0 35 -3 35 -8z
m132 -94 c2 -13 1 -40 -1 -60 l-3 -38 -147 0 c-104 1 -141 4 -128 11 9 5 17
19 17 29 0 15 7 20 26 20 21 0 25 4 22 23 -2 16 -10 22 -28 22 -18 0 -26 -6
-28 -22 -2 -14 -10 -23 -22 -23 -21 0 -33 -33 -17 -49 8 -8 6 -11 -6 -11 -14
0 -17 10 -17 60 l0 60 164 0 c163 0 165 0 168 -22z"/>
<path d="M1704 1696 c-11 -28 1 -51 25 -51 32 0 49 28 32 49 -17 20 -50 21
-57 2z m44 -33 c-10 -12 -14 -12 -27 2 -14 14 -14 17 -1 25 21 13 44 -8 28
-27z"/>
<path d="M1850 1556 c0 -21 -5 -26 -25 -26 -20 0 -25 -5 -25 -25 0 -20 5 -25
25 -25 20 0 25 5 25 25 0 20 5 25 25 25 20 0 25 -5 25 -25 0 -20 5 -25 25 -25
20 0 25 5 25 25 0 20 5 25 25 25 20 0 25 5 25 25 0 20 -5 25 -25 25 -20 0 -25
-5 -25 -25 0 -34 -47 -37 -52 -2 -2 14 -11 23 -25 25 -19 3 -23 -1 -23 -22z"/>
<path d="M1117 1773 l-47 -35 22 -17 c75 -57 118 -81 118 -66 0 8 -20 30 -46
48 l-45 32 30 25 c19 15 28 30 23 37 -5 8 -22 1 -55 -24z"/>
<path d="M2527 1783 c-15 -14 -6 -23 24 -23 29 0 30 -2 27 -37 -3 -36 -5 -38
-43 -43 -29 -4 -41 -10 -43 -24 -3 -15 0 -18 19 -13 13 4 38 7 55 7 36 0 40 6
49 83 l7 57 -44 0 c-25 0 -48 -3 -51 -7z"/>
<path d="M1161 1751 c-12 -8 -12 -12 -2 -25 19 -23 31 -20 29 9 -3 27 -6 29
-27 16z"/>
<path d="M356 1713 c9 -21 20 -48 25 -60 7 -19 16 -23 49 -23 22 0 40 2 40 5
0 2 -11 29 -24 60 -24 54 -26 55 -66 55 l-40 0 16 -37z"/>
<path d="M3261 1728 c-5 -13 -16 -40 -24 -60 l-16 -38 40 0 c39 0 41 2 65 55
13 31 24 58 24 60 0 3 -18 5 -40 5 -33 0 -42 -4 -49 -22z"/>
<path d="M2506 1724 c-9 -23 1 -33 27 -26 21 5 37 19 37 35 0 15 -58 7 -64 -9z"/>
<path d="M1000 1546 c0 -14 45 -104 70 -141 l31 -45 -118 -1 c-65 0 -140 -4
-168 -7 l-50 -7 89 -92 88 -92 247 -3 246 -3 185 -74 c194 -76 293 -111 323
-111 18 0 165 57 180 71 5 4 -20 10 -55 14 -100 12 -351 71 -404 96 -27 12
-92 28 -144 35 -91 12 -92 13 -27 10 59 -2 66 0 51 11 -10 7 -38 13 -62 13
-44 0 -44 0 -39 30 4 16 2 32 -3 35 -10 6 -32 -63 -24 -77 3 -4 0 -8 -6 -8
-10 0 -7 41 6 91 8 29 -41 59 -137 85 -52 14 -96 27 -98 29 -1 2 15 29 37 60
23 31 38 63 35 71 -4 11 -31 14 -129 14 -68 0 -124 -2 -124 -4z m136 -57 c8
-14 -21 -43 -35 -35 -19 12 -13 46 8 46 11 0 23 -5 27 -11z"/>
<path d="M2440 1530 c-16 -29 -4 -40 41 -40 21 0 39 -4 39 -9 0 -5 -17 -37
-37 -71 l-38 -61 -55 6 c-53 5 -57 4 -89 -28 l-32 -34 36 -23 36 -22 -50 -34
c-56 -38 -76 -41 -108 -19 -21 14 -26 14 -70 -8 -50 -25 -146 -61 -198 -73
-29 -6 -29 -7 20 -20 85 -23 131 -18 230 26 l89 40 249 0 249 0 88 93 88 92
-41 7 c-23 3 -97 7 -164 7 -68 1 -123 4 -123 8 0 3 11 20 24 37 22 29 76 129
76 141 0 3 -56 5 -125 5 -114 0 -125 -2 -135 -20z m163 -37 c8 -7 -11 -33 -24
-33 -5 0 -9 9 -9 20 0 19 20 27 33 13z"/>
<path d="M1231 1458 c-17 -23 -29 -43 -27 -45 6 -6 141 -42 144 -38 10 10 -13
24 -58 35 -27 7 -50 14 -50 17 0 3 9 16 20 30 11 14 20 30 20 34 0 20 -20 6
-49 -33z"/>
<path d="M2414 1478 c-4 -6 0 -14 7 -19 11 -7 11 -9 -2 -9 -9 0 -24 -9 -34
-20 -10 -11 -13 -20 -7 -20 6 0 17 -3 26 -6 10 -4 19 3 27 20 7 14 16 26 21
26 5 0 1 -14 -9 -31 -16 -26 -22 -30 -50 -26 -20 4 -36 1 -43 -8 -8 -10 -2
-14 32 -17 24 -3 48 -1 55 4 14 11 66 98 61 102 -11 10 -79 13 -84 4z"/>
<path d="M1515 1445 c-44 -13 -93 -29 -109 -35 l-29 -11 44 -45 c24 -26 67
-64 96 -85 85 -63 287 -159 302 -143 3 4 1 9 -6 11 -16 6 -122 76 -153 102
-21 18 -23 22 -10 31 22 14 26 13 62 -19 51 -44 150 -111 165 -111 7 0 -35 48
-95 108 -73 72 -118 126 -138 164 -16 32 -33 58 -39 57 -5 0 -46 -11 -90 -24z
m95 -67 c0 -12 4 -16 11 -12 8 5 10 -1 7 -20 -4 -18 -1 -29 8 -33 19 -7 18
-22 -2 -30 -11 -4 -23 2 -35 18 -17 23 -18 23 -32 5 -15 -21 -42 -13 -33 10 3
8 -1 14 -9 14 -8 0 -15 7 -15 15 0 8 7 15 16 15 13 0 14 3 5 13 -15 19 -7 24
39 24 33 0 40 -3 40 -19z"/>
<path d="M2048 1408 c-18 -35 -66 -97 -105 -139 -40 -42 -70 -79 -66 -82 8 -9
89 38 126 71 21 20 30 23 39 14 16 -16 -13 -46 -80 -84 -49 -28 -60 -48 -26
-48 29 0 139 53 208 100 68 46 185 155 175 164 -5 5 -214 66 -227 66 -6 0 -26
-28 -44 -62z m116 -24 c36 -36 6 -104 -46 -104 -25 0 -58 35 -58 62 0 49 69
78 104 42z"/>
<path d="M2102 1374 c-27 -19 -28 -36 -3 -58 15 -14 24 -15 40 -6 26 13 27 41
3 63 -16 15 -20 15 -40 1z"/>
<path d="M1271 1446 c-9 -11 -6 -16 19 -24 33 -12 35 -10 20 19 -13 23 -23 24
-39 5z"/>
<path d="M1720 1378 c0 -42 14 -52 44 -33 32 22 33 29 1 43 -37 17 -45 15 -45
-10z"/>
<path d="M557 1363 c-4 -3 10 -27 30 -52 20 -25 37 -47 37 -47 1 -1 25 -5 55
-9 64 -9 63 -5 -2 64 -39 41 -55 51 -81 51 -18 0 -36 -3 -39 -7z"/>
<path d="M1828 1353 c-8 -10 -18 -23 -22 -30 -8 -14 31 -96 43 -89 4 3 16 23
26 46 l19 41 -25 25 c-24 24 -26 24 -41 7z"/>
<path d="M3016 1318 c-25 -29 -46 -56 -46 -61 0 -4 21 -5 48 -2 40 4 53 12 84
48 48 55 48 67 -1 67 -35 0 -45 -6 -85 -52z"/>
<path d="M680 1353 c0 -5 40 -50 88 -102 67 -72 92 -92 109 -90 19 4 9 17 -73
102 -84 85 -124 114 -124 90z"/>
<path d="M2892 1267 c-50 -51 -92 -96 -92 -100 0 -4 8 -7 19 -7 15 0 201 181
201 196 0 2 -8 4 -18 4 -9 0 -59 -42 -110 -93z"/>
<path d="M2233 1263 c-29 -19 -29 -33 -2 -33 15 0 19 5 15 15 -6 17 9 21 19 4
8 -12 -25 -40 -40 -35 -5 2 -18 7 -27 11 -29 11 -21 -11 8 -24 24 -10 32 -9
67 15 l41 27 -23 18 c-27 22 -29 23 -58 2z"/>
<path d="M1452 1248 c3 -7 15 -15 28 -16 21 -3 22 -2 11 12 -16 19 -44 21 -39
4z"/>
<path d="M695 1190 c31 -32 46 -40 75 -40 52 0 55 9 18 47 -28 29 -38 33 -82
33 l-50 0 39 -40z"/>
<path d="M2906 1197 c-15 -19 -26 -37 -26 -40 0 -4 19 -7 43 -7 36 0 49 6 75
33 18 18 32 36 32 40 0 4 -22 7 -49 7 -45 0 -53 -3 -75 -33z"/>
<path d="M1576 1041 c25 -24 155 -71 179 -65 44 11 37 22 -33 48 -64 25 -167
37 -146 17z"/>
<path d="M1385 999 c-170 -53 -377 -131 -377 -144 0 -11 188 -94 215 -95 26 0
21 12 -28 60 -25 24 -45 49 -45 55 0 9 209 85 233 85 3 0 1 -12 -5 -26 -10
-22 -16 -25 -44 -20 -40 8 -84 -9 -91 -34 -6 -23 -30 -27 -35 -5 -2 9 -8 11
-16 7 -9 -6 -2 -20 24 -50 19 -23 39 -42 44 -42 5 0 14 16 20 35 l12 35 68 0
c73 0 79 6 80 68 0 13 6 22 15 22 11 0 15 -12 15 -49 0 -40 4 -53 22 -65 12
-9 25 -16 28 -16 4 0 31 19 61 43 31 23 72 51 92 62 43 23 45 30 16 46 -17 9
-25 7 -42 -8 -43 -37 -52 -42 -67 -33 -12 7 -9 14 14 39 24 25 27 31 13 37 -9
3 -29 -4 -46 -17 -22 -16 -34 -20 -42 -12 -7 7 -2 15 17 28 21 13 24 19 13 26
-19 12 -19 12 -164 -32z"/>
<path d="M2141 1031 c-11 -7 -8 -13 13 -26 18 -12 24 -21 17 -28 -6 -6 -20 -2
-39 12 -33 23 -48 26 -57 11 -4 -6 5 -20 19 -31 15 -11 24 -25 21 -30 -11 -16
-38 -9 -65 16 -24 23 -30 25 -54 14 l-26 -12 67 -45 c38 -24 81 -56 96 -71 26
-24 29 -25 55 -10 18 10 28 24 30 44 7 83 29 103 34 33 l3 -43 72 -3 72 -3 11
-35 c7 -19 17 -33 23 -31 6 2 26 22 45 45 26 31 30 42 18 42 -9 0 -16 -4 -16
-10 0 -19 -28 -10 -33 10 -7 25 -53 43 -94 35 -26 -5 -33 -2 -38 15 -4 12 -5
23 -3 26 6 6 210 -64 222 -76 7 -7 -6 -27 -39 -60 -31 -31 -46 -53 -40 -59 9
-8 212 73 231 92 12 12 -223 99 -421 157 -118 34 -106 32 -124 21z"/>
<path d="M1779 888 c-94 -80 -94 -75 -13 -163 139 -154 138 -152 124 -185 -20
-48 -37 -56 -60 -29 -30 36 -35 67 -14 90 17 19 17 21 -10 47 l-27 27 -31 -35
c-65 -76 -66 -53 16 -299 70 -211 81 -240 90 -230 4 4 106 307 136 401 l17 56
-115 122 -115 121 29 30 c34 36 50 36 86 3 l27 -27 -19 -25 c-25 -31 -25 -44
-1 -66 18 -16 20 -15 60 30 23 26 40 51 39 55 -4 11 -141 129 -150 129 -4 0
-36 -24 -69 -52z"/>
<path d="M1373 814 c-9 -23 8 -46 49 -68 l36 -20 25 30 c15 16 27 34 27 40 1
32 -125 48 -137 18z"/>
<path d="M2203 818 c-29 -14 -28 -26 1 -62 26 -32 44 -30 88 6 21 17 26 29 22
46 -5 18 -13 22 -48 21 -22 0 -51 -5 -63 -11z"/>
<path d="M1317 751 l-37 -6 77 -47 c78 -48 92 -49 93 -6 0 13 -80 72 -92 67
-2 -1 -20 -5 -41 -8z"/>
<path d="M2283 734 c-43 -25 -48 -34 -35 -67 7 -15 17 -11 87 33 72 46 77 50
48 50 -17 0 -37 2 -45 5 -7 3 -32 -7 -55 -21z"/>
</g>
</svg>
